<svg id="Camada_1" data-name="Camada 1" xmlns="http://www.w3.org/2000/svg" viewBox="0 0 500 500"><defs><style>.cls-1{fill:#1577b7;}.cls-2{fill:#fff;}.cls-3{fill:#dedede;}.cls-4{fill:#48555e;}</style></defs><title>graph</title><path class="cls-1" d="M39.71,133.6c.45.31,4,3.65,4.68,2.11.39-.91-4.71-3.81-5.41-4.18a21.63,21.63,0,0,0-7.19-2.31,3.83,3.83,0,0,0,1.33,1.83C35.05,132.48,37.67,132.2,39.71,133.6ZM24.27,201.76c.72.79,1.86,1.82,3,1.05s-.22-2.38-.95-3a1.6,1.6,0,0,0-.91-.4,1.08,1.08,0,0,0-.36,0,1.69,1.69,0,0,0-1,1.37,1,1,0,0,0,.05.57A1.09,1.09,0,0,0,24.27,201.76Zm-9.94-24c1.33.51,3.45,1.88,4.84,1.86,2.22,0,.47-2.37-.69-3.33C14,172.5,7.59,170.34,2,169.52a2.49,2.49,0,0,0-1.33.07A1,1,0,0,0,0,170.74a1.47,1.47,0,0,0,.51.57,26.26,26.26,0,0,0,4,2.48,50.2,50.2,0,0,0,5,2.13Zm2.92,43.09a3.92,3.92,0,0,0-5.11-.06,2.52,2.52,0,0,0-1,1.43,2.25,2.25,0,0,0,.44,1.73,5.67,5.67,0,0,0,1.31,1.23,17.08,17.08,0,0,0,2.92,1.95c.62.3,4.83,2.1,5.15,1.72.45-.53-2.19-5.31-2.52-6A6.72,6.72,0,0,0,17.25,220.85ZM218.17,32.55c.42.47,1.46,1.91,2.08,2,1.25.18-.23-4.4-.36-5.12a13.12,13.12,0,0,0-1.25-4.4c-.16-.28-.39-.57-.7-.55a.83.83,0,0,0-.44.19,4.07,4.07,0,0,0-2,3.51,4.59,4.59,0,0,0,.84,1.95A20.57,20.57,0,0,0,218.17,32.55ZM63.34,128.32a9.41,9.41,0,0,0,3.13.78c0-.8-1.54-1.46-2.12-1.71a2.8,2.8,0,0,0-2.12-.16A1.89,1.89,0,0,0,63.34,128.32ZM170.91,492.37a29,29,0,0,1-3.84-.39,51.39,51.39,0,0,1-19.67-7.65A9.61,9.61,0,0,0,145,483a2.81,2.81,0,0,0-2.58.38,4,4,0,0,0-1.13,2.23,4.93,4.93,0,0,0-.07,2.44,3.78,3.78,0,0,0,1.94,2.24,9.64,9.64,0,0,0,2.83.85,112.48,112.48,0,0,0,13.54,1.66c2.33.14,4.67.21,7,.21,1.17,0,2.34,0,3.5-.07.56,0,2.86.24,3.23-.18C173.89,492.1,171.2,492.37,170.91,492.37Zm70.55,4.29c-1.91.12-3.83-.17-5.75-.15a4.12,4.12,0,0,0-2.63.74,1.36,1.36,0,0,0-.49,1.5,1.51,1.51,0,0,0,.95.69,10.37,10.37,0,0,0,9.34-1.29c.4-.31,1.09-.73.7-1.38S242,496.63,241.46,496.66Zm253-326c-3.52-7.07-8.62-12.87-14.38-18.06s-12.19-9.76-17.56-14c-10.71-7.77-20.3-15.7.75-30.23-39.47-2.27-48.3-11.12-62.19-40.9-3,11.22-11,1.52-18.53-8.56s-14.67-20.54-21.29-31.33c-1.7-2.78-3.75-5.84-6.85-6.3-2.14-.32-4.23.74-6.19,1.71,7.23,63.73-29.42,54.69-88.88,18.58,22.27,37.9,7.05,34.14-31.68,1.43,16,30-5.22,14.64-41.91-8.93,15.74,34.87-10.2,26.9-44.54,14.81,56.85,82.25,61.18,112.4-31.78,53.31,11.67,28.05-7,32.46-38,30.69,11.56,14,28.75,30.52-17.47,13.9,53,48.39,54,58.19-23.48,38.71,17.18,8.07,4.38,25.29,4.38,25.29,18.1,14.51,8.93,26.88-10.45,22.62,20.15,36.58,40.42,67.7,10.38,87.09,30.55,28.81,30.61,50.8,1.39,64.08,1.33,4.5,13.84,3.41,19.88,6.52-1.21,17-14.63,17-21.35,31.26,20.14-7.11,60.42-21.33,67.14,14.22,13.42-14.22,20.14-35.55,53.7-14.22,6.72,7.11,0,14.22-6.71,21.34C169,433,231.37,419.72,188,490c16.73-22.91,64.42-19.93,61.55,3.45,13.53-13.34,84.51,16.31,100.7-42.67,6.72-7.11,20.14,0,26.86,7.11,0-14.22-6.72-28.45,0-42.67,6.71-7.11,20.14,0,26.85,7.11,0-35.56,13.43-92.45,53.71-85.34-6.72-21.33-6.72-35.55-9.47-55.67-1.15-16.85,1.36-29.39,8.5-37.16s18.92-10.77,36.61-8.13C499.2,214.56,504.3,190.46,494.45,170.68ZM93.4,443.21c-1.11-.24-2.73,1.59-3.64,2.22a22.62,22.62,0,0,1-4.65,2.48c-1.17.43-2.37.73-3.53,1.15a37.36,37.36,0,0,0-5.63,2.8,6.53,6.53,0,0,0-1.85,1.38,2.57,2.57,0,0,0-.6,2.25,19.67,19.67,0,0,0,11.6-4C88,449.41,91.54,446.44,93.4,443.21Zm-65-63.6A11,11,0,0,0,22.82,377a2.65,2.65,0,0,0-2.23.45,3.3,3.3,0,0,0-.74,2.3,4.46,4.46,0,0,0,.42,2.59c.75,1.21,2.35,1.4,3.71,1.35a23.91,23.91,0,0,0,5.12-.77C31.3,382.33,29.4,380.43,28.44,379.61Zm114.09,67.57c-.63-.5-2.66.41-3.46.61l-5.58,1.41a66.65,66.65,0,0,0-11.36,3.6c-1,.45-2.16,1.33-1.88,2.44,1.83.72,3.85,0,5.68-.72l11.6-4.53C138.84,449.48,142,448.63,142.53,447.18ZM21.9,314.88c-1.18-1.61-4.58-2.2-6.36-2.57a21.22,21.22,0,0,0-7.37-.23,1.1,1.1,0,0,0-.56.19c-.56.44-.05,1.38.52,1.8,1.7,1.26,3.84,1.62,5.88,2.06,1.35.28,2.7.62,4,1,.77.23,2.52,1.2,3.3,1C22.68,317.82,22.64,315.87,21.9,314.88Zm295-303.15c2.57.54,5.2-.09,7.76-.67a28.51,28.51,0,0,1,9.53-1,11.26,11.26,0,0,1,6.84,3A32.34,32.34,0,0,0,323.08.63a12.19,12.19,0,0,0-7.27-.12,6.18,6.18,0,0,0-4.14,5.81C311.84,9.08,314.31,11.18,316.87,11.73Zm-78,6.8,4.24,4.52c.43.45,1,1.34,1.68,1.44.83.13.52,0,.37-.72-.38-1.86-1.8-3.95-2.58-5.67-.87-1.89-1.73-3.77-2.59-5.66a8.05,8.05,0,0,0-1.4-2.35,2.54,2.54,0,0,0-2.39-.85,1.39,1.39,0,0,0-.46.22,1.82,1.82,0,0,0-.58,1.15,6.64,6.64,0,0,0,.9,4.41A18.67,18.67,0,0,0,238.91,18.53Zm-145,62.29a14,14,0,0,0-4.07-3.31,13.42,13.42,0,0,0-6.33-.83,5.13,5.13,0,0,0-2.26.48,1.83,1.83,0,0,0-1,1.93,2.6,2.6,0,0,0,1.42,1.4c3,1.62,6.35,2.55,9.55,3.76a26.42,26.42,0,0,1,6.12,3.08c.6.44,4.28,4.49,4.38,4.44,1.62-.66-2.05-4.46-2.43-4.92Q96.73,83.75,93.94,80.82Z"/><path class="cls-2" d="M53.5,136.52v230a29,29,0,0,0,29,29H218.38v51h63.24v-51H417.5a29,29,0,0,0,29-29v-230Z"/><rect class="cls-3" x="58.5" y="141.52" width="383" height="16"/><path class="cls-4" d="M42.5,125.52v241a40,40,0,0,0,40,40h128v32h-16v16h111v-16h-16v-32h128a40,40,0,0,0,40-40v-241Zm231,313h-47v-32h47Zm168-72a24,24,0,0,1-24,24H82.5a24,24,0,0,1-24-24v-20h383Zm-383-36v-189h383v189Z"/><rect class="cls-3" x="226.5" y="406.52" width="47" height="16"/><path class="cls-3" d="M266,360.52H234a8,8,0,0,0,0,16h32a8,8,0,0,0,0-16Z"/><circle class="cls-4" cx="250" cy="368.52" r="8"/><circle class="cls-3" cx="321.5" cy="360.52" r="4"/><circle class="cls-3" cx="337.5" cy="360.52" r="4"/><circle class="cls-3" cx="353.5" cy="360.52" r="4"/><circle class="cls-3" cx="369.5" cy="360.52" r="4"/><circle class="cls-3" cx="385.5" cy="360.52" r="4"/><circle class="cls-3" cx="321.5" cy="376.52" r="4"/><circle class="cls-3" cx="337.5" cy="376.52" r="4"/><circle class="cls-3" cx="353.5" cy="376.52" r="4"/><circle class="cls-3" cx="369.5" cy="376.52" r="4"/><circle class="cls-3" cx="385.5" cy="376.52" r="4"/><circle class="cls-3" cx="114.5" cy="360.52" r="4"/><circle class="cls-3" cx="130.5" cy="360.52" r="4"/><circle class="cls-3" cx="146.5" cy="360.52" r="4"/><circle class="cls-3" cx="162.5" cy="360.52" r="4"/><circle class="cls-3" cx="178.5" cy="360.52" r="4"/><circle class="cls-3" cx="114.5" cy="376.52" r="4"/><circle class="cls-3" cx="130.5" cy="376.52" r="4"/><circle class="cls-3" cx="146.5" cy="376.52" r="4"/><circle class="cls-3" cx="162.5" cy="376.52" r="4"/><circle class="cls-3" cx="178.5" cy="376.52" r="4"/><path class="cls-4" d="M320.34,201.57v129h66.32V201.57Zm58.32,128H367.25v-8h11.41Zm0-16H359.88v-8h18.78Zm0-16H367.25v-8h11.41Zm0-16H359.88v-8h18.78Zm0-16H367.25v-8h11.41Zm0-16H359.88v-8h18.78Zm0-16H367.25v-8h11.41Zm0-16H359.88v-8h18.78Z"/><path class="cls-4" d="M179.66,259.85l-14,42H127.39l-14-42L137,201.57h4.27v50.1a10.52,10.52,0,0,0,0,18.23,10.49,10.49,0,0,0,10.54,0,10.53,10.53,0,0,0,0-18.23v-50.1H156Z"/><path class="cls-4" d="M170.5,330.52h-48L124,315.39a6.1,6.1,0,0,1,6.07-5.52H163a6.1,6.1,0,0,1,6.07,5.52Z"/><path class="cls-4" d="M274,330.52H226l1.47-15.13a6.1,6.1,0,0,1,6.07-5.52h32.92a6.1,6.1,0,0,1,6.07,5.52Z"/><path class="cls-4" d="M281.06,272.58c0-20.86-29.3-71-29.3-71s-29.29,50.15-29.29,71a29.3,29.3,0,0,0,58.59,0Z"/></svg>