<svg id="Camada_1" data-name="Camada 1" xmlns="http://www.w3.org/2000/svg" viewBox="0 0 380 380"><defs><style>.cls-1{fill:none;}.cls-2{fill:#10b1e2;}.cls-3{fill:#48555e;}.cls-4{fill:#fff;}</style></defs><title>graph</title><rect class="cls-1" width="380" height="380"/><path class="cls-2" d="M373.29,331.6c0,1.57,0,3.12-.07,4.67H6.77c0-1.55-.06-3.1-.06-4.67s0-3.11.06-4.66C9.24,227.87,90.34,148.31,190,148.31s180.75,79.56,183.22,178.63C373.27,328.49,373.29,330,373.29,331.6Z"/><rect class="cls-3" y="328.69" width="380" height="9.33"/><path class="cls-4" d="M311.28,174.76H288v-28H269.3V100.12H110.7v46.65H92v28H68.72a14,14,0,0,0-14,14V328.69a14,14,0,0,0,14,14h70v28H241.31v-28h70a14,14,0,0,0,14-14V188.75A14,14,0,0,0,311.28,174.76Z"/><path class="cls-3" d="M311.28,165.43h-14v-28H278.63V90.79H101.37v46.65H82.71v28h-14a23.35,23.35,0,0,0-23.33,23.32V328.69A23.35,23.35,0,0,0,68.72,352h60.64v18.66H110.7V380H269.3v-9.33H250.64V352h60.64a23.34,23.34,0,0,0,23.32-23.32V188.75A23.34,23.34,0,0,0,311.28,165.43Zm-42-65.31v158.6H194.66V100.12Zm-158.6,0h74.63v158.6H110.7ZM92,146.77h9.33V268.05H278.63V146.77H288V277.38H204V282a14,14,0,1,1-28,0v-4.66H92Zm-23.32,28h14v112h84.44a23.32,23.32,0,0,0,45.7,0h84.43V174.76h14a14,14,0,0,1,14,14V314.69H54.72V188.75A14,14,0,0,1,68.72,174.76ZM241.31,370.67H138.69V352H241.31Zm70-28H68.72a14,14,0,0,1-14-14V324H325.27v4.67A14,14,0,0,1,311.28,342.68Z"/><path class="cls-3" d="M159.68,109.45H136.35L120,131.22v84.43l28-16.79,28,16.79V131.22Zm7,89.72L148,188l-18.66,11.2V134.33L141,118.78h14l11.66,15.54Z"/><path class="cls-3" d="M120,221.4h56v9.33H120Z"/><path class="cls-3" d="M166.67,240.06H176v9.33h-9.33Z"/><path class="cls-3" d="M120,240.06h37.31v9.33H120Z"/><path class="cls-3" d="M152.68,132.77a4.67,4.67,0,1,1-4.66-4.66A4.67,4.67,0,0,1,152.68,132.77Z"/><path class="cls-3" d="M204,109.45h56v9.33H204Z"/><path class="cls-3" d="M204,128.11h56v9.33H204Z"/><path class="cls-3" d="M232,146.77a18.65,18.65,0,0,0-18.66,18.66v61.74l7.74,15.47a12.21,12.21,0,0,0,21.84,0l7.74-15.47V165.43A18.66,18.66,0,0,0,232,146.77Zm0,9.33a9.33,9.33,0,0,1,9.33,9.33v9.33H222.65v-9.33A9.33,9.33,0,0,1,232,156.1Zm-9.33,65.3V184.08h18.66V221.4Zm6.75,17.07-3.83-7.74h12.88l-3.86,7.74A3,3,0,0,1,229.4,238.47Z"/></svg>