<?xml version="1.0" encoding="UTF-8" standalone="no"?>
<svg
   xmlns:dc="http://purl.org/dc/elements/1.1/"
   xmlns:cc="http://creativecommons.org/ns#"
   xmlns:rdf="http://www.w3.org/1999/02/22-rdf-syntax-ns#"
   xmlns:svg="http://www.w3.org/2000/svg"
   xmlns="http://www.w3.org/2000/svg"
   xmlns:sodipodi="http://sodipodi.sourceforge.net/DTD/sodipodi-0.dtd"
   xmlns:inkscape="http://www.inkscape.org/namespaces/inkscape"
   width="160"
   height="160"
   viewBox="0 0 42.333333 42.333333"
   version="1.1"
   id="svg299"
   inkscape:version="1.0.2 (e86c870879, 2021-01-15)"
   sodipodi:docname="designer_icon.svg">
  <defs
     id="defs293" />
  <sodipodi:namedview
     id="base"
     pagecolor="#ffffff"
     bordercolor="#666666"
     borderopacity="1.0"
     inkscape:pageopacity="0.0"
     inkscape:pageshadow="2"
     inkscape:zoom="3.959798"
     inkscape:cx="100.77204"
     inkscape:cy="69.29856"
     inkscape:document-units="px"
     inkscape:current-layer="layer1"
     inkscape:document-rotation="0"
     showgrid="false"
     units="px"
     width="160px"
     inkscape:window-width="1864"
     inkscape:window-height="1016"
     inkscape:window-x="56"
     inkscape:window-y="27"
     inkscape:window-maximized="1" />
  <metadata
     id="metadata296">
    <rdf:RDF>
      <cc:Work
         rdf:about="">
        <dc:format>image/svg+xml</dc:format>
        <dc:type
           rdf:resource="http://purl.org/dc/dcmitype/StillImage" />
        <dc:title></dc:title>
      </cc:Work>
    </rdf:RDF>
  </metadata>
  <g
     inkscape:label="Layer 1"
     inkscape:groupmode="layer"
     id="layer1">
    <g
       id="g467"
       transform="translate(10.772323,2.2678561)">
      <rect
         x="23.980703"
         y="-0.70681453"
         class="st0"
         width="1.7197917"
         height="1.7197917"
         id="rect4"
         style="fill:#198cff;stroke-width:0.264583" />
      <rect
         x="27.102783"
         y="3.2090189"
         class="st0"
         width="2.1431251"
         height="2.1431251"
         id="rect6"
         style="fill:#198cff;stroke-width:0.264583" />
      <rect
         x="13.714874"
         class="st1"
         width="5.1858335"
         height="5.1858335"
         id="rect8"
         style="fill:#198dff;stroke-width:0.264583"
         y="-2.2678561" />
      <rect
         x="17.868835"
         y="4.4790187"
         class="st2"
         width="8.3608332"
         height="8.3608332"
         id="rect10"
         style="fill:#1b91ff;stroke-width:0.264583" />
      <rect
         x="24.298206"
         y="9.0033932"
         class="st3"
         width="5.7943749"
         height="5.7943749"
         id="rect12"
         style="fill:#1a8fff;stroke-width:0.264583" />
      <rect
         x="1.4117491"
         y="-1.8709812"
         class="st0"
         width="1.7197917"
         height="1.7197917"
         id="rect14"
         style="fill:#198cff;stroke-width:0.264583" />
      <rect
         x="3.9517426"
         y="-0.20410618"
         class="st4"
         width="7.990417"
         height="7.990417"
         id="rect16"
         style="fill:#1b93ff;stroke-width:0.264583" />
      <rect
         x="19.959034"
         y="17.602352"
         class="st5"
         width="8.3608332"
         height="8.3608332"
         id="rect18"
         style="fill:#1e9cff;stroke-width:0.264583" />
      <rect
         x="29.431114"
         y="25.566309"
         class="st0"
         width="2.1431251"
         height="2.1431251"
         id="rect20"
         style="fill:#198cff;stroke-width:0.264583" />
      <rect
         x="-6.8432541"
         y="1.3040187"
         class="st0"
         width="3.175"
         height="3.175"
         id="rect22"
         style="fill:#198cff;stroke-width:0.264583" />
      <rect
         x="-4.6207476"
         y="2.8915188"
         class="st6"
         width="8.3079166"
         height="8.3079166"
         id="rect24"
         style="fill:#1a8eff;stroke-width:0.264583" />
      <rect
         x="25.2507"
         y="32.419022"
         class="st0"
         width="3.8364582"
         height="3.8629167"
         id="rect26"
         style="fill:#198cff;stroke-width:0.264583" />
      <rect
         x="17.233829"
         y="26.492352"
         class="st7"
         width="8.4402084"
         height="8.4402084"
         id="rect28"
         style="fill:#1c96ff;stroke-width:0.264583" />
      <rect
         x="-10.097626"
         y="9.5325603"
         class="st0"
         width="1.7197917"
         height="1.7197917"
         id="rect30"
         style="fill:#198cff;stroke-width:0.264583" />
      <rect
         x="-7.663456"
         y="12.86631"
         class="st4"
         width="7.990417"
         height="7.990417"
         id="rect32"
         style="fill:#1b93ff;stroke-width:0.264583" />
      <rect
         x="7.9204926"
         y="27.2861"
         class="st5"
         width="8.3608332"
         height="8.3608332"
         id="rect34"
         style="fill:#1e9cff;stroke-width:0.264583" />
      <rect
         x="16.440079"
         y="37.922352"
         class="st0"
         width="2.1431251"
         height="2.1431251"
         id="rect36"
         style="fill:#198cff;stroke-width:0.264583" />
      <rect
         x="-8.2455425"
         y="20.486311"
         class="st1"
         width="5.1858335"
         height="5.1858335"
         id="rect38"
         style="fill:#198dff;stroke-width:0.264583" />
      <rect
         x="2.7081978"
         y="31.810478"
         class="st3"
         width="5.7943749"
         height="5.7943749"
         id="rect40"
         style="fill:#1a8fff;stroke-width:0.264583" />
      <rect
         x="-6.2347155"
         y="26.042561"
         class="st2"
         width="8.3608332"
         height="8.3608332"
         id="rect42"
         style="fill:#1b91ff;stroke-width:0.264583" />
      <rect
         x="-10.785552"
         y="31.360685"
         class="st0"
         width="1.7197917"
         height="1.7197917"
         id="rect44"
         style="fill:#198cff;stroke-width:0.264583" />
      <rect
         x="-3.5624142"
         y="37.102142"
         class="st0"
         width="2.1431251"
         height="2.1431251"
         id="rect46"
         style="fill:#198cff;stroke-width:0.264583" />
      <rect
         x="8.6084194"
         y="5.5902691"
         class="st8"
         width="9.6043749"
         height="9.6043749"
         id="rect48"
         style="fill:#24afff;stroke-width:0.264583" />
      <rect
         x="12.497781"
         y="10.088185"
         class="st9"
         width="9.6572914"
         height="9.6572914"
         id="rect50"
         style="fill:#26b5ff;stroke-width:0.264583" />
      <rect
         x="0.24757604"
         y="8.6594353"
         class="st10"
         width="9.7102079"
         height="9.7102079"
         id="rect52"
         style="fill:#24b0ff;stroke-width:0.264583" />
      <rect
         x="11.227784"
         y="19.666101"
         class="st11"
         width="9.8954172"
         height="9.8954172"
         id="rect54"
         style="fill:#29bfff;stroke-width:0.264583" />
      <rect
         x="-2.0278342"
         y="17.152561"
         class="st8"
         width="9.6043749"
         height="9.6043749"
         id="rect56"
         style="fill:#24afff;stroke-width:0.264583" />
      <rect
         x="3.0786209"
         y="21.200684"
         class="st9"
         width="9.6572914"
         height="9.6572914"
         id="rect58"
         style="fill:#26b5ff;stroke-width:0.264583" />
      <rect
         x="5.089448"
         y="12.284227"
         class="st12"
         width="10.874374"
         height="10.874374"
         id="rect60"
         style="fill:#30d3ff;stroke-width:0.264583" />
      <path
         class="st13"
         d="M 7.3648708,26.83631 5.4069542,24.428602 c -0.2116667,-0.264584 -0.238125,-0.635 -0.1058333,-0.926042 l 3.9687499,-7.672916 h 0.1322917 v 4.497916 c -0.7408333,0.555625 -0.873125,1.5875 -0.3439583,2.301875 0.5291666,0.714375 1.5874998,0.873125 2.3018748,0.343958 0.714375,-0.529166 0.873125,-1.587499 0.343958,-2.301874 -0.105833,-0.132292 -0.211666,-0.238125 -0.343958,-0.343959 v -4.497916 h 0.132292 l 3.96875,7.672916 c 0.15875,0.291042 0.105833,0.661458 -0.105834,0.926042 l -1.957916,2.407708 z"
         id="path62"
         style="fill:#ffffff;stroke-width:0.264583" />
      <path
         class="st14"
         d="m 11.704037,16.940894 3.4925,6.720416 c 0.105834,0.185208 0.07938,0.396875 -0.05292,0.582083 l -1.85208,2.275417 H 7.5236208 L 5.6715375,24.243393 c -0.1322916,-0.15875 -0.15875,-0.396875 -0.052917,-0.582083 l 3.4660416,-6.720416 v 3.227916 c -0.8202083,0.740834 -0.873125,1.984375 -0.15875,2.804583 0.7408333,0.820209 1.9843749,0.873125 2.8045839,0.15875 0.820208,-0.740833 0.873125,-1.984374 0.15875,-2.804583 -0.05292,-0.05292 -0.105834,-0.105833 -0.15875,-0.15875 v -3.227916 m -0.02646,-1.42875 h -0.661458 v 5.027083 c 0.635,0.370417 0.846667,1.164166 0.47625,1.799166 -0.370417,0.635 -1.164167,0.846667 -1.7991669,0.47625 -0.635,-0.370416 -0.8466667,-1.164166 -0.47625,-1.799166 0.1058333,-0.211667 0.2910417,-0.370417 0.47625,-0.47625 V 15.512144 H 9.0582042 l -4.048125,7.831666 c -0.2116667,0.423333 -0.15875,0.926042 0.1322917,1.296458 l 2.0372916,2.54 h 6.4029165 l 2.037292,-2.54 c 0.291041,-0.370416 0.343958,-0.873125 0.132291,-1.296458 z"
         id="path64"
         style="fill:#3d4b66;stroke-width:0.264583" />
      <path
         class="st13"
         d="m 5.8832042,31.810477 c 0.15875,-1.508125 1.2435416,-3.122084 1.5610416,-3.598334 h 5.8737502 c 0.3175,0.449792 1.42875,2.06375 1.561041,3.598334 z"
         id="path66"
         style="fill:#ffffff;stroke-width:0.264583" />
      <path
         class="st14"
         d="m 13.159246,28.529643 c 0.423333,0.608542 1.137708,1.799167 1.349375,2.910417 H 6.2536209 c 0.238125,-1.190625 1.0054166,-2.407708 1.3493749,-2.910417 h 5.5562502 m 0.343958,-0.661458 H 7.3119542 c 0,0 -1.74625,2.248958 -1.74625,4.233333 h 9.6837498 c 0,-1.984375 -1.74625,-4.233333 -1.74625,-4.233333 z"
         id="path68"
         style="fill:#3d4b66;stroke-width:0.264583" />
      <path
         class="st15"
         d="M -1.525129,20.221727 V 18.89881 c 0,-6.588125 5.3181249,-11.9062497 11.90625,-11.9062497 v 0 c 6.588125,0 11.90625,5.3181247 11.90625,11.9062497 v 1.322917"
         id="path70"
         style="fill:none;stroke:#3d4b66;stroke-width:0.661458;stroke-miterlimit:10" />
      <rect
         x="9.4021692"
         y="5.987144"
         class="st13"
         width="1.984375"
         height="1.984375"
         id="rect72"
         style="fill:#ffffff;stroke-width:0.264583" />
      <path
         class="st14"
         d="M 11.042579,6.331102 V 7.6540187 H 9.7196625 V 6.331102 H 11.042579 M 11.704037,5.6696437 H 9.0582042 V 8.315477 h 2.6458328 z"
         id="path74"
         style="fill:#3d4b66;stroke-width:0.264583" />
      <rect
         x="-2.504081"
         y="19.216309"
         class="st13"
         width="1.984375"
         height="1.984375"
         id="rect76"
         style="fill:#ffffff;stroke-width:0.264583" />
      <path
         class="st14"
         d="m -0.86367072,19.560269 v 1.322916 H -2.1865874 v -1.322916 h 1.32291668 M -0.20221239,18.89881 H -2.8480457 v 2.645833 h 2.64583331 z"
         id="path78"
         style="fill:#3d4b66;stroke-width:0.264583" />
      <rect
         x="21.308418"
         y="19.216309"
         class="st13"
         width="1.984375"
         height="1.984375"
         id="rect80"
         style="fill:#ffffff;stroke-width:0.264583" />
      <path
         class="st14"
         d="m 22.948829,19.560269 v 1.322916 h -1.322917 v -1.322916 h 1.322917 m 0.661458,-0.661459 h -2.645833 v 2.645833 h 2.645833 z"
         id="path82"
         style="fill:#3d4b66;stroke-width:0.264583" />
    </g>
  </g>
</svg>
