<svg id="Camada_1" data-name="Camada 1" xmlns="http://www.w3.org/2000/svg" viewBox="0 0 200 200"><defs><style>.cls-1{fill:#1577b7;}.cls-2{fill:#fff;}.cls-3{fill:#dedede;}.cls-4{fill:#48555e;}</style></defs><title>graph</title><path class="cls-1" d="M129.7,194.84a3,3,0,0,0-2.82,1.31,3.77,3.77,0,0,0,.06,2.52.72.72,0,0,0,.68.56.76.76,0,0,0,.42.69,1.25,1.25,0,0,0,1.4-.42c1.05-1.18,1.87-2.41,1.18-4.1a.87.87,0,0,0-.92-.56Z"/><path class="cls-1" d="M8.26,129.41A3.38,3.38,0,0,0,4,130.55a2.68,2.68,0,0,0,.48,3.52c0,.49.56.62.91.61l.17,0a1.2,1.2,0,0,0,.59-.08,6.14,6.14,0,0,0,3.14-1.91,2.2,2.2,0,0,0,.6-1.74c-.08-.82-1-1.27-1.59-1.52Z"/><path class="cls-1" d="M0,77.71c3,5.05,8.66,7.11,14.11,7.49-.77.59-.37,1.82.71,1.41,5.79-2.15,12.36,1,12.32,8.51-.06,8.52-8.08,6.81-12.91,5.74-1.39-.32-12.64-1.33-8.85,3.13s14.38,3.66,19,2.24c1.4-.43,7-1.67,3.95,1.7A5.44,5.44,0,0,0,27,110.69c-.16.73.76,1.91,1.2,2.29,3.65,3.21,0,6.29-2.56,8.16-.47.34-.46.69-.23.93-4.09,1.5-9.73,1.16-12.09,5.11-1.69,2.83,1.94,4.25,3.77,4.19a27.2,27.2,0,0,0,6.43-1.19c.64-.18,1.28-.39,1.93-.55l1.21-.49,1.06-.47q3.27-2.32,6.13,1.71c-.43.34-.44.65-.25.86-2.95,2.61-8.38,5.56-7.94,8.67,0,.27.67.15.8.13a9.41,9.41,0,0,0,4.38-2c3.24-2.8,10-6.8,10,.34,0,3.32-1.9,6-3.88,8.22-1.3,1.44-3.33,3.72-2,5.78,2.72,4.2,7.89-4.08,10-.86.68,1,.76,2.85,1.17,4,.7,2,2.37,3.79,3.18,5.84,1.51,3.79-3.92,5.51-1.61,9.64,1.12,2,3.28,1.57,4.57.07s1.62-3.93,2.07-5.74,2-6,2.41-1.67c.15,1.51-1.05,8.68,1.54,8.43,3.2-.31,5.28-5.47,7.67-5.25,1.53,1,1.64,2.73,3.17,3.68,2.27,1.41,6.65,1.15,7.29,4.4,1,5.17-4.55,9.48-2.32,14.94.25.61,1.45.08,1.77-.19,5-4.21,2.09-14.41,5.63-19.78,1.35-2,2.34,3.76,2.31,4.13a12.77,12.77,0,0,1-1.11,3.57c-.87,2.28-1.25,3.46-.76,5.9.39,1.92,1.8,2.79,3.29,1.52,2.29-1.95,2.39-7,2.6-9.86.39-5.38,5.73-3.82,8.8-1.64,2.58,1.82,3.78,5.54,4.6,8.66.56,2.08.91,5.27,3.34,4.92,2.93-.42,3.34-5.35,2.82-7.76a33.51,33.51,0,0,0-1.44-4.16c-1.34-3.78-.71-8.55,6.18-6.6,3.67,1,4,5.78,4.64,9.15.48,2.44,2.82,6.61,5.56,5.8,1.83-.55,1.35-2.43,1-4.09-1-4.9-1.76-8.21.35-13.05,1.26-2.88,5.11-4.75,6.59-1.19a13.06,13.06,0,0,1,.62,3.13,8.54,8.54,0,0,0,1.81,4.71,4.62,4.62,0,0,0,5.51.79c1.7-1,.27-4.19-.25-5.52-1.36-3.47-4.21-5.93-3.1-9.83,1.39-4.91,9-6.15,12.79-8.37.6-.35,1.95-1.26,2.19-2.22.37-1.54-.33-3.51,1.73-3.19a2,2,0,0,0,1.06-.35c4.48,1.13,8.43,4.11,12.49,6.54,2.07,1.24,4.63,2.64,7.06,2.21,5.64-1,.79-7.17-2-8.44-5.06-2.27-14.39-2.26-15.14-10-.64-6.59,4.75-8.53,8.25-12.1s2.63-8,3.48-12.82c1.21-6.88,7.55-3.93,11.52-5.91,1.84-.9,4.37-3.1,3-5.67-.89-1.71-4.46-.74-5.72-.51-2.75.5-4.84,1.18-7.12-1.49-1.89-2.19-2.8-5.76-3-8.71-.35-5.56,3-3.26,5.26-5.58,1.61-1.63,2-4.9-.46-5.58-1.74-.48-3.83.33-5.64,1.09-4.42.29-4-4.38-5.86-8.82-.92-2.19-2.85-3.94-4.21-5.78-2.36-3.19-.77-5.68-.21-9a2.48,2.48,0,0,0-1.23-2.31c-1.93-1-3.5,1.3-4.75-2.26-.42-1.2,0-3.5-1.19-4.34-2.15-1.59-4.8-1.48-7.2-2.5-2.94-1.26-6.11-5-7.52-8.08a3.74,3.74,0,0,0-3.07-2.56c-1.73-.22-4.35.74-3.91-2.56.28-2.14.93-4,.41-6.19-.14-.57-1.07-.29-1.38-.15a9.19,9.19,0,0,0-3.13,2.2c-.56.64-1.11,1.29-1.65,1.94-1.1,1.31-5.84,3.49-5,.56.7-2.35,2.37-5.76-.4-7.52-2.59-1.65-5.1-.19-7.48,1.87-3.52,2.1-7,4.13-10.88,1.4-3.69-2.56,2.47-12.77,3.28-15.89.62-2.34.69-7.83-2.65-6.06-3.08,1.63-4.37,7.67-5,11-.77,4.16-.7,9-4,11.77a26.71,26.71,0,0,1-4.79,3c-4.87,2.57-4.29-1-6.28-2.88-1.5-1.42-5.11.23-5.22,2.31-.07,1.28,1.4,2.5.45,3.82-1.13,1.56-4.34,5.3-6.25,2.39-1.11-1.69-2.56-3.41-4.45-3.47-.32,0-1.54.15-1.62.65-.11.76-.21,1.51-.29,2.27-4.86.58-4.15-4.19-7-7.4a3.26,3.26,0,0,0-4.36-.2c-4.83,3.43,9.53,18,1.66,18-.29,0-1.71.2-1.63.75a7.88,7.88,0,0,1-.05,3.89c-.48,1.54-3.84.08-4.69-.24-1.58-.59-3.09-1.42-4.68-2A7.17,7.17,0,0,0,32.1,46c-3.42,2.74,6.19,10.75,8.23,13.39-3.27,1-3.53,3.62-3.77,7.84-5.72,1.13-3.49,8.06-6.77,12.59-2.26,3.12-6.76,1.72-9.71,1.49-4.3-.35-7.69-1-11.51-3.26-2.77-1.64-5-2.14-7.91-.86-.07,0-.77.34-.64.55Z"/><path class="cls-1" d="M25.5,41.78h.23l.14,0a2.6,2.6,0,0,1,.58.23,1.92,1.92,0,0,0,.89.08,2.18,2.18,0,0,0,1.1-.48,1.07,1.07,0,0,0,.5-1.06,5.8,5.8,0,0,0-.59-2.64c-.73-1.37-2.33-1.28-3.5-.79a3.38,3.38,0,0,0-2.11,2.53c-.12,1.61,1.69,2,2.76,2.1Z"/><path class="cls-1" d="M185.34,74.29a6.06,6.06,0,0,0,2.27.42.83.83,0,0,0,.22,0,1.11,1.11,0,0,0,.5-.06.87.87,0,0,0,.82,0L191,74a10.27,10.27,0,0,0,4.7-2c3-1.51,5.44-3.45,3.66-5.28-1.94-2-5-.42-7,.62-2.54,1.34-5.95,3.39-7.42,6.2a.54.54,0,0,0,.35.77Z"/><path class="cls-1" d="M158.34,39.6c-.2.56.64.91,1.29.69.72.42,2.36-.6,1.48-1.26a11,11,0,0,0,3.08-5.58c.31-.14.55-.34.55-.59a1.8,1.8,0,0,0-.51-1.38,5.74,5.74,0,0,0-.18-.9c-.17-.64-1-.51-1.41-.32a7.89,7.89,0,0,0-3.87,4.89,18.45,18.45,0,0,0-.74,3.39,1,1,0,0,0,.31,1.06Z"/><path class="cls-1" d="M140.47,39.15l.12.08c-.18.71,1,1.14,1.64.55a15.22,15.22,0,0,0,4.38-6.49.66.66,0,0,0-.38-.88c-3.21-1.61-9.45,3.36-5.76,6.74Z"/><path class="cls-1" d="M115.12,5.38A7.2,7.2,0,0,1,118.75.45a3.11,3.11,0,0,1,2.7-.23A3.22,3.22,0,0,1,123,2.34a6.74,6.74,0,0,1-1.78,5.93c-.89,1-3.6,3.53-4.91,2.88S114.85,6.68,115.12,5.38Z"/><path class="cls-1" d="M72.09,17.49a3.44,3.44,0,0,0,2.84-1,4.05,4.05,0,0,0,.86-1.72c.67-2.64-.53-5.5-2.3-7.44-1.26-1.38-3-2.48-4.76-2S66.09,7.68,66,9.49a9.81,9.81,0,0,0,1.33,5.17A5.69,5.69,0,0,0,72.09,17.49Z"/><path class="cls-1" d="M145.94,22.89a1.86,1.86,0,0,0,.18-.7,4.34,4.34,0,0,0-.75-3.35,2.5,2.5,0,0,0-.39-.34,3.92,3.92,0,0,0-2-.62.94.94,0,0,0-.5.07,1.06,1.06,0,0,0-.37.48c-.79,1.56-1,3.3.31,4.58C143.35,23.87,145.16,24.21,145.94,22.89Z"/><path class="cls-2" d="M21.39,45.05v92A11.61,11.61,0,0,0,33,148.66H87.4v20.4h25.2v-20.4H167a11.61,11.61,0,0,0,11.6-11.61v-92Z"/><rect class="cls-3" x="23.39" y="47.05" width="153.22" height="6.4"/><rect class="cls-3" x="90.6" y="153.06" width="18.8" height="6.4"/><path class="cls-3" d="M106.4,134.65H93.7a3.27,3.27,0,0,0-3.27,2.73,3.21,3.21,0,0,0,3.17,3.68h12.7a3.27,3.27,0,0,0,3.26-2.73A3.2,3.2,0,0,0,106.4,134.65Z"/><circle class="cls-4" cx="100" cy="137.66" r="3.2"/><circle class="cls-3" cx="128.6" cy="134.46" r="1.6"/><circle class="cls-3" cx="135" cy="134.46" r="1.6"/><circle class="cls-3" cx="141.4" cy="134.46" r="1.6"/><circle class="cls-3" cx="147.8" cy="134.46" r="1.6"/><circle class="cls-3" cx="154.2" cy="134.46" r="1.6"/><circle class="cls-3" cx="128.6" cy="140.86" r="1.6"/><circle class="cls-3" cx="135" cy="140.86" r="1.6"/><circle class="cls-3" cx="141.4" cy="140.86" r="1.6"/><circle class="cls-3" cx="147.8" cy="140.86" r="1.6"/><circle class="cls-3" cx="154.2" cy="140.86" r="1.6"/><circle class="cls-3" cx="45.79" cy="134.46" r="1.6"/><circle class="cls-3" cx="52.19" cy="134.46" r="1.6"/><circle class="cls-3" cx="58.59" cy="134.46" r="1.6"/><circle class="cls-3" cx="64.99" cy="134.46" r="1.6"/><circle class="cls-3" cx="71.39" cy="134.46" r="1.6"/><circle class="cls-3" cx="45.79" cy="140.86" r="1.6"/><circle class="cls-3" cx="52.19" cy="140.86" r="1.6"/><circle class="cls-3" cx="58.59" cy="140.86" r="1.6"/><circle class="cls-3" cx="64.99" cy="140.86" r="1.6"/><circle class="cls-3" cx="71.39" cy="140.86" r="1.6"/><path class="cls-4" d="M72.62,94.3l-5.84,16.75h-16L45,94.3l9.85-23.25H56.6V91A4.1,4.1,0,0,0,55,96.77a4.36,4.36,0,0,0,1.62,1.54,4.58,4.58,0,0,0,4.4,0,4.1,4.1,0,0,0,1.6-5.74A4.3,4.3,0,0,0,61,91v-20h1.75Z"/><path class="cls-4" d="M17,40.65v96.4a16,16,0,0,0,16,16H84.2v12.8H77.8v6.4h44.4v-6.4h-6.4v-12.8H167a16,16,0,0,0,16-16V40.65ZM109.4,165.86H90.6v-12.8h18.8Zm67.21-28.81a9.61,9.61,0,0,1-9.6,9.61H33a9.6,9.6,0,0,1-9.6-9.61v-8H176.61Zm0-14.4h-22V71.05H128.2v51.6H109.76l-.6-6.15a2.49,2.49,0,0,0-2.47-2.25H93.3a2.49,2.49,0,0,0-2.47,2.25l-.6,6.15H68.36l-.58-6.15a2.5,2.5,0,0,0-2.48-2.25H51.9a2.48,2.48,0,0,0-2.46,2.25l-.61,6.15H23.4V47.05H176.61ZM143.8,77.45v-3.2h7.61v3.2Zm7.61,3.2v3.2H147v-3.2Zm0,6.4v3.2H143.8v-3.2Zm0,6.4v3.2H147v-3.2Zm0,6.4v3.2H143.8v-3.2Zm0,6.4v3.2H147v-3.2Zm0,6.4v3.2H143.8v-3.2Zm0,6.4v3.2H147v-3.2Z"/><path class="cls-4" d="M112.42,99.28c0-8.35-11.72-28.41-11.72-28.41S89,90.94,89,99.28a11.72,11.72,0,0,0,23.44,0Z"/><path class="cls-1" d="M38.8,174.73a8.19,8.19,0,0,0,.53-3.86A1.6,1.6,0,0,0,39,170a1.51,1.51,0,0,0-1-.46A5.24,5.24,0,0,0,34,170.65,3.08,3.08,0,0,0,32.73,173C32.78,175.45,37.76,177.38,38.8,174.73Z"/><path class="cls-1" d="M48.87,189.94a3.68,3.68,0,0,0,1.2-1.31,7.22,7.22,0,0,0-.66-7.58,5.25,5.25,0,0,0-1.91-1.75,2.77,2.77,0,0,0-2.52,0,3.65,3.65,0,0,0-1.09,1A11.34,11.34,0,0,0,42,183.62c-.59,1.68-.68,4.48.75,5.85S47.41,190.85,48.87,189.94Z"/><path class="cls-1" d="M151,179.41a2.67,2.67,0,0,0,.64-.78,5.36,5.36,0,0,0,.27-4.7,3.44,3.44,0,0,0-.66-1c-.85-.85-3.06-1.62-4.23-1.18a5.08,5.08,0,0,0-2.49,3.64C144.26,178.16,148.59,181.33,151,179.41Z"/><path class="cls-1" d="M36.51,15.32a2.54,2.54,0,0,0,1.42-1.49,2.59,2.59,0,0,0-.83-2.73,3.43,3.43,0,0,0-2.86-.63,1.5,1.5,0,0,0-.66.28,1.69,1.69,0,0,0-.46,1.08A12.23,12.23,0,0,0,33,13.42C32.85,15.57,34.76,16.07,36.51,15.32Z"/><path class="cls-1" d="M156.19,158.33a1.44,1.44,0,0,0-.83-.31c-2.07.14-1.31,4.14.67,4.29C159.05,162.53,157.76,159.32,156.19,158.33Z"/></svg>