<svg xmlns="http://www.w3.org/2000/svg" viewBox="0 0 342 340"><defs><style>.cls-1{fill:#80ffdb;}.cls-2{fill:#fff;}.cls-3{fill:#2b3b4f;}.cls-4{fill:#5390d9;}.cls-5{fill:none;}</style></defs><g id="Camada_2" data-name="Camada 2"><g id="Camada_1-2" data-name="Camada 1"><path class="cls-1" d="M217.72,317.54c-19.41,4.29-31.33-32.6-46.68-49.79C142,231.42,85.91,234.88,54.4,203.65,22.31,171.86,58.29,136.93,94.78,120c40.46-18.77,50.67-84.17,93.53-81.69,56.31,3.28,58.43,70.88,118.12,98.4,19.85,9.15,32.1,36.67,16.33,54.85-18.86,21.77-53.05,29.22-65.25,58.24S243.49,311.85,217.72,317.54Z"/><path class="cls-2" d="M305.43,102H254.71V254.15a25.36,25.36,0,0,1-25.37,25.36H91.85A25.35,25.35,0,0,1,66.5,254.15h50.72V102a25.35,25.35,0,0,1,25.36-25.35H280.07A25.35,25.35,0,0,1,305.43,102Z"/><path class="cls-3" d="M229.35,281.51A27.39,27.39,0,0,1,202,254.15h4a23.36,23.36,0,0,0,46.72,0V102a27.36,27.36,0,0,1,54.72,0v2H256.71V254.15A27.4,27.4,0,0,1,229.35,281.51ZM256.79,100h46.55a23.36,23.36,0,0,0-46.55,0Z"/><path class="cls-3" d="M91.86,281.51A27.39,27.39,0,0,1,64.5,254.15h4a23.36,23.36,0,0,0,46.72,0V102a27.38,27.38,0,0,1,27.36-27.35H280.07v4H142.58A23.38,23.38,0,0,0,119.22,102V254.15A27.4,27.4,0,0,1,91.86,281.51Z"/><path class="cls-2" d="M91.86,279.51A25.36,25.36,0,0,1,66.5,254.15H204a25.36,25.36,0,0,0,25.36,25.36"/><path class="cls-3" d="M229.35,281.51a27.4,27.4,0,0,1-27.29-25.36H68.58a23.39,23.39,0,0,0,23.28,21.36v4A27.39,27.39,0,0,1,64.5,254.15v-2H206v2a23.39,23.39,0,0,0,23.36,23.36Z"/><line class="cls-2" x1="136.83" y1="101.43" x2="140.55" y2="101.43"/><path class="cls-4" d="M140.55,103.43h-3.72a2,2,0,0,1,0-4h3.72a2,2,0,0,1,0,4Z"/><line class="cls-2" x1="150.55" y1="101.43" x2="232.65" y2="101.43"/><path class="cls-4" d="M232.65,103.43h-82.1a2,2,0,0,1,0-4h82.1a2,2,0,1,1,0,4Z"/><line class="cls-2" x1="136.83" y1="113.99" x2="140.55" y2="113.99"/><path class="cls-4" d="M140.55,116h-3.72a2,2,0,0,1,0-4h3.72a2,2,0,0,1,0,4Z"/><line class="cls-2" x1="150.55" y1="113.99" x2="232.65" y2="113.99"/><path class="cls-4" d="M232.65,116h-82.1a2,2,0,0,1,0-4h82.1a2,2,0,0,1,0,4Z"/><line class="cls-2" x1="136.83" y1="126.56" x2="140.55" y2="126.56"/><path class="cls-4" d="M140.55,128.56h-3.72a2,2,0,1,1,0-4h3.72a2,2,0,0,1,0,4Z"/><line class="cls-2" x1="150.55" y1="126.56" x2="232.65" y2="126.56"/><path class="cls-4" d="M232.65,128.56h-82.1a2,2,0,0,1,0-4h82.1a2,2,0,1,1,0,4Z"/><line class="cls-2" x1="136.83" y1="139.12" x2="140.55" y2="139.12"/><path class="cls-4" d="M140.55,141.12h-3.72a2,2,0,0,1,0-4h3.72a2,2,0,0,1,0,4Z"/><line class="cls-2" x1="150.55" y1="139.12" x2="232.65" y2="139.12"/><path class="cls-4" d="M232.65,141.12h-82.1a2,2,0,0,1,0-4h82.1a2,2,0,0,1,0,4Z"/><line class="cls-2" x1="136.83" y1="151.69" x2="140.55" y2="151.69"/><path class="cls-4" d="M140.55,153.69h-3.72a2,2,0,1,1,0-4h3.72a2,2,0,0,1,0,4Z"/><line class="cls-2" x1="150.55" y1="151.69" x2="232.65" y2="151.69"/><path class="cls-4" d="M232.65,153.69h-82.1a2,2,0,0,1,0-4h82.1a2,2,0,1,1,0,4Z"/><line class="cls-2" x1="136.83" y1="164.25" x2="140.55" y2="164.25"/><path class="cls-4" d="M140.55,166.25h-3.72a2,2,0,0,1,0-4h3.72a2,2,0,0,1,0,4Z"/><line class="cls-2" x1="150.55" y1="164.25" x2="232.65" y2="164.25"/><path class="cls-4" d="M232.65,166.25h-82.1a2,2,0,0,1,0-4h82.1a2,2,0,0,1,0,4Z"/><line class="cls-2" x1="136.83" y1="176.82" x2="140.55" y2="176.82"/><path class="cls-4" d="M140.55,178.82h-3.72a2,2,0,1,1,0-4h3.72a2,2,0,0,1,0,4Z"/><line class="cls-2" x1="150.55" y1="176.82" x2="232.65" y2="176.82"/><path class="cls-4" d="M232.65,178.82h-82.1a2,2,0,0,1,0-4h82.1a2,2,0,1,1,0,4Z"/><line class="cls-2" x1="136.83" y1="189.38" x2="140.55" y2="189.38"/><path class="cls-4" d="M140.55,191.38h-3.72a2,2,0,0,1,0-4h3.72a2,2,0,0,1,0,4Z"/><line class="cls-2" x1="150.55" y1="189.38" x2="232.65" y2="189.38"/><path class="cls-4" d="M232.65,191.38h-82.1a2,2,0,0,1,0-4h82.1a2,2,0,0,1,0,4Z"/><line class="cls-2" x1="136.83" y1="201.95" x2="140.55" y2="201.95"/><path class="cls-4" d="M140.55,204h-3.72a2,2,0,1,1,0-4h3.72a2,2,0,0,1,0,4Z"/><line class="cls-2" x1="150.55" y1="201.95" x2="232.65" y2="201.95"/><path class="cls-4" d="M232.65,204h-82.1a2,2,0,0,1,0-4h82.1a2,2,0,1,1,0,4Z"/><line class="cls-2" x1="136.83" y1="214.51" x2="140.55" y2="214.51"/><path class="cls-4" d="M140.55,216.51h-3.72a2,2,0,0,1,0-4h3.72a2,2,0,0,1,0,4Z"/><line class="cls-2" x1="150.55" y1="214.51" x2="232.65" y2="214.51"/><path class="cls-4" d="M232.65,216.51h-82.1a2,2,0,0,1,0-4h82.1a2,2,0,0,1,0,4Z"/><line class="cls-2" x1="136.83" y1="227.08" x2="140.55" y2="227.08"/><path class="cls-4" d="M140.55,229.08h-3.72a2,2,0,0,1,0-4h3.72a2,2,0,0,1,0,4Z"/><line class="cls-2" x1="150.55" y1="227.08" x2="232.65" y2="227.08"/><path class="cls-4" d="M232.65,229.08h-82.1a2,2,0,0,1,0-4h82.1a2,2,0,0,1,0,4Z"/><line class="cls-2" x1="136.83" y1="239.64" x2="140.55" y2="239.64"/><path class="cls-4" d="M140.55,241.64h-3.72a2,2,0,0,1,0-4h3.72a2,2,0,0,1,0,4Z"/><line class="cls-2" x1="150.55" y1="239.64" x2="232.65" y2="239.64"/><path class="cls-4" d="M232.65,241.64h-82.1a2,2,0,0,1,0-4h82.1a2,2,0,0,1,0,4Z"/><path class="cls-2" d="M131.07,190.33,95.28,113.57l-4.06-8.69A4.69,4.69,0,0,0,85,102.61l-4.44,2.07a4.69,4.69,0,0,0-2.27,6.24l4.06,8.69,35.79,76.76,13,10.94Z"/><path class="cls-3" d="M133.11,211.61l-16.62-14-40-85.86a6.64,6.64,0,0,1-.23-5.12,6.71,6.71,0,0,1,3.47-3.78l4.44-2.07A6.71,6.71,0,0,1,93,104l40,85.86Zm-13.37-16.48,9.35,7.87,0-12.22L89.41,105.72a2.7,2.7,0,0,0-3.58-1.3l-4.44,2.07A2.65,2.65,0,0,0,80,108a2.72,2.72,0,0,0,.09,2.06Z"/><polygon class="cls-3" points="86.07 148.13 73.63 121.46 94.43 111.76 96.12 115.39 78.95 123.4 89.69 146.44 86.07 148.13"/><rect class="cls-3" x="117.45" y="191.35" width="14.29" height="4" transform="translate(-70.01 70.73) rotate(-24.99)"/><path class="cls-2" d="M288.36,161.55a33.66,33.66,0,1,0-54.66,26.28v28.39h42V187.83A33.59,33.59,0,0,0,288.36,161.55Z"/><path class="cls-3" d="M277.72,218.22h-46V188.78a35.65,35.65,0,1,1,46,0Zm-42-4h38V186.87l.75-.6a31.66,31.66,0,1,0-39.52,0l.75.6Z"/><path class="cls-2" d="M242.62,166.34h.11a6,6,0,0,1,6,6v6.07a0,0,0,0,1,0,0h-6.07a6,6,0,0,1-6-6v-.11A6,6,0,0,1,242.62,166.34Z"/><path class="cls-3" d="M250.69,180.37h-8.07a8,8,0,0,1-8-8v-.11a8,8,0,0,1,8-8h.11a8,8,0,0,1,8,8Zm-8.07-12a4,4,0,0,0-4,4v.11a4,4,0,0,0,4,4h4.07V172.3a4,4,0,0,0-4-4Z"/><path class="cls-2" d="M248.69,216.22h12a0,0,0,0,1,0,0v6.07a6,6,0,0,1-6,6h-.11a6,6,0,0,1-6-6v-6.07A0,0,0,0,1,248.69,216.22Z"/><path class="cls-3" d="M254.76,230.25h-.11a8,8,0,0,1-8-8v-8.07h16v8.07A8,8,0,0,1,254.76,230.25Zm-4.07-12v4.07a4,4,0,0,0,4,4h.11a4,4,0,0,0,4-4v-4.07Z"/><path class="cls-2" d="M266.68,166.34h.11a6,6,0,0,1,6,6v.11a6,6,0,0,1-6,6h-6.07a0,0,0,0,1,0,0V172.3A6,6,0,0,1,266.68,166.34Z"/><path class="cls-3" d="M266.79,180.37h-8.07V172.3a8,8,0,0,1,8-8h.11a8,8,0,0,1,8,8v.11A8,8,0,0,1,266.79,180.37Zm-4.07-4h4.07a4,4,0,0,0,4-4v-.11a4,4,0,0,0-4-4h-.11a4,4,0,0,0-4,4Z"/><line class="cls-2" x1="248.69" y1="216.22" x2="248.69" y2="178.37"/><path class="cls-3" d="M248.69,218.22a2,2,0,0,1-2-2V178.37a2,2,0,0,1,4,0v37.85A2,2,0,0,1,248.69,218.22Z"/><line class="cls-2" x1="260.72" y1="178.37" x2="260.72" y2="216.22"/><path class="cls-3" d="M260.72,218.22a2,2,0,0,1-2-2V178.37a2,2,0,0,1,4,0v37.85A2,2,0,0,1,260.72,218.22Z"/><line class="cls-2" x1="248.69" y1="178.37" x2="260.72" y2="178.37"/><path class="cls-3" d="M260.72,180.37h-12a2,2,0,0,1,0-4h12a2,2,0,0,1,0,4Z"/><line class="cls-2" x1="186.45" y1="279.51" x2="315.96" y2="279.51"/><path class="cls-3" d="M316,281.51H186.46a2,2,0,0,1,0-4H316a2,2,0,1,1,0,4Z"/><line class="cls-2" x1="2" y1="279.51" x2="158.94" y2="279.51"/><path class="cls-3" d="M158.94,281.51H2a2,2,0,0,1,0-4H158.94a2,2,0,0,1,0,4Z"/><line class="cls-2" x1="99.97" y1="297.13" x2="59.35" y2="297.13"/><path class="cls-3" d="M100,299.13H59.35a2,2,0,0,1,0-4H100a2,2,0,1,1,0,4Z"/><line class="cls-2" x1="258.61" y1="297.13" x2="129.64" y2="297.13"/><path class="cls-3" d="M258.61,299.13h-129a2,2,0,1,1,0-4h129a2,2,0,0,1,0,4Z"/><rect class="cls-5" x="2" width="340" height="340"/></g></g></svg>