<?xml version="1.0" encoding="utf-8"?>
<!-- Generator: Adobe Illustrator 23.0.1, SVG Export Plug-In . SVG Version: 6.00 Build 0)  -->
<svg version="1.1" id="Camada_1" xmlns="http://www.w3.org/2000/svg" xmlns:xlink="http://www.w3.org/1999/xlink" x="0px" y="0px"
	 viewBox="0 0 500 500" style="enable-background:new 0 0 500 500;" xml:space="preserve">
<style type="text/css">
	.st0{fill:#1577B7;}
	.st1{fill:#FFFFFF;}
	.st2{fill:#48555E;}
	.st3{fill:#DEDEDE;}
</style>
<title>graph</title>
<path class="st0" d="M408.9,324.9c-24-29.8,2.3-43.6,10.3-66.1c7.4-20.8-4.5-16.2,10.5-32c10.1-10.7,27.1-10.4,36.6-24.2
	c0.6-0.3-21.4-13.4-22-13.8c-17.3-11.7-10.6,5.2-16.3-18.7c-8.1-34,11-70.3,38.1-82.4c-7.6-7.6-24.2-10-33.3-3.9
	c-19.7,13.1-4.8,11.7-12.3,28.2c-10,21.9-18.6,49.6-44,50s-30.9-35.4-30.2-62.4c0.8-32.1,23.4-42.6,11.7-77.7
	c-32.6-1.8-27.6,4.7-52.4,24.6c-21.5,17.2-42.8,4.1-61.6,26.7c-13,15.8-12.1,58.1-39.9,44.8c-17-8.2-16.8-40.6-21.6-57.6
	c-16.4-57.2-35.4-45.7-38.5,7.5c-2.6,44.4,27.8,112.9-27.5,121.5c5.3-0.8-36.8-16.7-31.6-11.8c-8.5-8.1-5.4-23.4-12.7-34.8
	c-4.5-7-8.2-9.2-12.9-16.6c-3.5-5.5-3.5-10.8-5.7-14.9c-7.2-13.1-14.3-7.7-23-18.8c9.1,11.5,34.8,34.3,24,53.1
	c-5.3,9.3-24,0.1-30.8,5.2c-41.2,31.1,14.7,73.9,26.4,99.6c3.7,8.2-1.8,16.9,1.4,24.2c2.4,5.5,8.9,11.3,11,16.7
	c7.6,19.9,11.1,29.7,9.7,53.2c-0.9,15.4-3.7,48.8-8.3,59.5c-5.1,12-29,10-23.2,35.1c-3.6-15.6,40.1,22.4,33.9,19.9
	c10.7,4.3,11.2-25.8,23.6-7.1c7.1,10.8-1.5,19.8-2.3,30.2c10.3,0,26.7,17.4,36,13.3c8.3-3.7,15.6-20.5,23.8-25.6
	c11.5-7.1,22.6,6.4,32.6-17.4c3.2-7.5-3.4-27.7-1.7-37.4c6.6-36.9,39.1-58.2,68.5-30.8c7.8,7.2,16.3,28,24.2,37.3
	c8.6,10.2,22.8,27.5,34.6,31.5c-16.1-27.9-33.3-35.5-4-54.5c23.8-15.4,23.6,2.7,43.7,6.8c16.5,3.4,45.4-13.8,60.9-0.6
	c15.3,13,9,34.4,15.6,53.8c24.3-5.3,13.1,15.5,31.5-7.7c6.7-8.5,20.5-41,20.3-52.4C481.2,354.5,428,348.6,408.9,324.9z M375.2,469.9
	c-1.6-1.6-2.3-4.7-1-6.7c-7-1.9-14.5-1.7-21.4,0.6c-3.3,1.1-6.6,2.6-10.1,2.5c-2-0.1-3.9-0.6-5.8-1.3c-2.2-0.8-4.4-2.1-6.6-2.7
	s-2.7-0.4-1.3,2c2.3,4,5.5,7,7.5,11.5c0.9,2.3,2,4.6,3.2,6.7c1.1,1.8,2.5,3.3,3.7,5c1.8,2.7,3.1,5.9,5.1,8.5s4.8,4.6,7.6,3.7
	c1-3.6-4.2-6.9-2.9-10.3c0.4-1,1.3-1.7,2.3-1.9c1.9-0.4,3.9,0.4,5,1.9c1.3,1.6,1.8,3.9,3.1,5.5c1.5,1.9,4.2,2.3,6.2,1
	c1-0.8,1.9-1.9,2.6-3c1.6-2.3,3.3-4.9,3.5-8c0.1-2.5-0.7-5.3,0.5-7.3c0.7-1.2,2-1.7,3-2.5c1.2-0.8,1.8-2.2,1.6-3.6
	C378.9,471.8,376.8,471.3,375.2,469.9z M393.3,465.4c-1,0.3-2,0.9-2.8,1.7c-0.6,0.5-2.2,1.3-2.4,2.1c0.6,0.6,1.7,0.3,2.4,0.1
	c0.9-0.4,1.7-0.6,2.7-0.8c1-0.1,2,0.1,2.8-0.6c0.1-0.1,0.2-0.2,0.3-0.4c0.1-0.4,0.1-0.9-0.2-1.2
	C395.4,465.4,394.3,465.1,393.3,465.4z M44.7,349c1.5-0.6,3.2-0.7,4.5-1.8c2.2-1.8,2.5-5.8,1.9-9s-1.8-6.2-2-9.5
	c-0.1-2.2,0.2-4.7-1-6.3s-2.9-1.5-4.4-2.4c-2.9-1.8-3.6-6.4-5.3-9.8c-1.5-2.8-3.8-4.8-6-6.7c-0.8-0.8-1.9-1.4-3-1.6
	c-1.5-0.1-2.8,1.3-3.9,2.5c-1.6,1.8-3.3,3.8-3.9,6.4c-0.6,3,0.4,6.2,1.9,8.6c3.3,5.5,7.6,9.5,5.8,17.3c-0.7,2.4-1.7,4.8-3.1,6.9
	c-0.2,0.5-0.6,1-1.1,1.3c-0.4,0.2-0.8,0.2-1.1,0.2c-1.5-0.3-3-0.8-4.4-1.5c-1.5-0.5-3.6,2-4.8,3.2c5.4,1.8,10.2-0.7,15,0.5
	c2.4,0.6,5.3,1,5.4,4c0.1,2.6-2.1,4.6-2.2,7.2C37.5,356.5,40.3,350.7,44.7,349z M5,349.6l-3.4,3.9c-0.6,0.6-1.1,1.4-1.4,2.2
	c-0.3,1.1-0.1,2.3,0.5,3.3c0.6,0.8,1.6,1.2,2.6,1c1.3-0.5,2.3-1.6,2.7-2.9c0.5-1.4,0.9-2.9,1.2-4.4c0.4-1.7,1.6-3.6,1.7-5.4
	C7.4,347,6.1,348.4,5,349.6z M60.7,35.4c0.9,0.6,1.6,1.5,2.5,2.2c2,1.4,4.3,2,6.4,1.6c1.9-0.3,3.8-0.8,6-0.3s4.9,2.8,5.3,5.2
	c0.1,1.2-0.1,2.3-0.5,3.3c-0.7,3.5,0.1,7.5,2.3,10.9c1.7-1.8,2.8-4,3.3-6.6c0.6-2.9,0.5-6.3,1.8-8.6c1.4-2.3,4.3-3.2,5.8-5.5
	c2.5-3.7,0.4-11.3-4.4-16.1c-1.3-1.1-2.6-2.4-3.7-3.7c-1.9-2.6-1.9-5.6-1.2-7.8c0.3-1,0.7-2.1-0.1-3.3c-1.1-1.8-3.2-1.6-4.9-2.1
	c-2.9-0.8-6-4.5-8.7-4.6c-4-0.2-3,6.8-6.7,7.5c-1.6,0.3-3.8-0.8-5.7-2.1c-1.2-1-2.5-1.7-3.8-2.2C52,2.6,50.9,5,50.2,7.2
	c-0.5,1.1-0.6,2.5-0.2,3.9c0.8,2.2,3.2,3.6,5.2,4.6c3.5,1.7,13.5,3.8,11.1,9.1c-0.9,2-11.3,5.2-7.3,9.3
	C59.5,34.6,60.1,35.1,60.7,35.4z M17.8,75.8c2.5,2.2,4.5,4.7,6.9,6.9c-2.9-5.2-3.4-8.9-3.7-14c0-1.4-0.4-2.8-1.3-4
	c-0.9-1-2-1.9-3.3-2.4c-2.1-1.1-4.4-1.5-6.7-1.1c-2,0.5-3.2,2-2.9,3.9C7.6,69.3,14.3,72.7,17.8,75.8z M492.8,170.2
	c-0.4-0.4-0.9-0.6-1.4-0.7c-0.6,0-1.1,0.2-1.6,0.6c-3.5,2.4-5.6,6.9-7.1,11.5s-2.3,9.4-4.1,13.9c-1.6,3.9-3.1,4.7,1.5,5.2
	c3.3,0.5,6.7,0.2,9.9-0.9c5-1.9,8.7-6.3,9.7-11.6C501,181.2,497.6,174,492.8,170.2L492.8,170.2z"/>
<path class="st1" d="M53.5,146.5v230c0,16,13,29,29,29h135.9v51h63.2v-51h135.9c16,0,29-13,29-29v-230H53.5z"/>
<path class="st2" d="M320.3,212.6v129h66.3v-129H320.3z M378.7,340.5h-11.4v-8h11.4V340.5z M378.7,324.5h-18.8v-8h18.8V324.5z
	 M378.7,308.5h-11.4v-8h11.4V308.5z M378.7,292.5h-18.8v-8h18.8V292.5z M378.7,276.5h-11.4v-8h11.4V276.5z M378.7,260.5h-18.8v-8
	h18.8V260.5z M378.7,244.5h-11.4v-8h11.4V244.5z M378.7,228.5h-18.8v-8h18.8V228.5z"/>
<path class="st2" d="M179.7,270.8l-14,42h-38.3l-14-42l23.6-58.3h4.3v50.1c-5,2.9-6.8,9.3-3.9,14.4c0.9,1.6,2.3,2.9,3.9,3.9
	c3.3,1.9,7.3,1.9,10.5,0c5-2.9,6.8-9.4,3.8-14.4c-0.9-1.6-2.2-2.9-3.8-3.8v-50.1h4.2L179.7,270.8z"/>
<path class="st2" d="M170.5,341.5h-48l1.5-15.1c0.3-3.1,2.9-5.5,6.1-5.5H163c3.1,0,5.8,2.4,6.1,5.5L170.5,341.5z"/>
<path class="st2" d="M274,341.5h-48l1.5-15.1c0.3-3.1,2.9-5.5,6.1-5.5h32.9c3.1,0,5.8,2.4,6.1,5.5L274,341.5z"/>
<path class="st2" d="M281.1,283.6c0-20.9-29.3-71-29.3-71s-29.3,50.1-29.3,71c0.3,16.2,13.7,29.1,29.8,28.8
	C268.1,312,280.8,299.3,281.1,283.6z"/>
<rect x="58.5" y="151.5" class="st3" width="383" height="16"/>
<rect x="226.5" y="416.5" class="st3" width="47" height="16"/>
<path class="st2" d="M42.5,135.5v205v36c0,22.1,17.9,40,40,40h128v32h-16v16h16h79h16v-16h-16v-32h128c22.1,0,40-17.9,40-40v-36
	v-205H42.5z M273.5,448.5h-47v-32h47V448.5z M441.5,376.5c0,13.3-10.7,24-24,24h-128h-79h-128c-13.3,0-24-10.7-24-24v-20h383V376.5z
	 M58.5,340.5v-189h383v189H58.5z"/>
<path class="st3" d="M266,370.5h-32c-4.4,0-8,3.6-8,8s3.6,8,8,8h32c4.4,0,8-3.6,8-8S270.4,370.5,266,370.5z"/>
<circle class="st2" cx="250" cy="378.5" r="8"/>
<circle class="st3" cx="321.5" cy="370.5" r="4"/>
<circle class="st3" cx="337.5" cy="370.5" r="4"/>
<circle class="st3" cx="353.5" cy="370.5" r="4"/>
<circle class="st3" cx="369.5" cy="370.5" r="4"/>
<circle class="st3" cx="385.5" cy="370.5" r="4"/>
<circle class="st3" cx="321.5" cy="386.5" r="4"/>
<circle class="st3" cx="337.5" cy="386.5" r="4"/>
<circle class="st3" cx="353.5" cy="386.5" r="4"/>
<circle class="st3" cx="369.5" cy="386.5" r="4"/>
<circle class="st3" cx="385.5" cy="386.5" r="4"/>
<circle class="st3" cx="114.5" cy="370.5" r="4"/>
<circle class="st3" cx="130.5" cy="370.5" r="4"/>
<circle class="st3" cx="146.5" cy="370.5" r="4"/>
<circle class="st3" cx="162.5" cy="370.5" r="4"/>
<circle class="st3" cx="178.5" cy="370.5" r="4"/>
<circle class="st3" cx="114.5" cy="386.5" r="4"/>
<circle class="st3" cx="130.5" cy="386.5" r="4"/>
<circle class="st3" cx="146.5" cy="386.5" r="4"/>
<circle class="st3" cx="162.5" cy="386.5" r="4"/>
<circle class="st3" cx="178.5" cy="386.5" r="4"/>
<path class="st0" d="M437,46.9c-0.1-2.3-0.5-4.7-1.1-7c-1.5-5.7-4.3-11.4-3.3-17c0.6-3.1,2.5-5.8,5-7c1.3-0.7,2.9-0.9,4.4-0.3
	c1.4,0.7,2.5,2.1,3.4,3.5c1.4,2.1,2.8,4.2,3.4,6.7c0.7,2.6,0.5,5.3,0.1,7.8c-0.1,0.5-0.2,1.1,0,1.6c0.5,1.3,2.2,1.2,3.1,0.4
	c1-0.7,2-1.8,3.1-1.4c1.4,0.5,1.8,2.8,1.1,4.2c-0.7,1.4-2.1,2-3.4,2.6c-4.3,2.1-8.2,5.1-11.4,8.9c-0.7,0.8-2.9,4.7-4.2,4.1
	C436.3,53.5,437.1,48.2,437,46.9z"/>
<path class="st0" d="M474.3,19.7c1.4-1.7,3-3.5,5.1-4.2c0.5-0.2,1.1-0.2,1.7-0.2c1.5,0.2,2.6,1.3,3.4,2.6c0.2,0.4,0.4,0.8,0.4,1.3
	c0,0.6-0.5,1.1-1,1.5c-1.8,1.5-4,2.3-6.4,2.7c-1,0.2-4.5,1-5.2,0.1C471.4,22.4,473.8,20.3,474.3,19.7z"/>
</svg>
