<svg id="Camada_1" data-name="Camada 1" xmlns="http://www.w3.org/2000/svg" viewBox="0 0 380 380"><defs><style>.cls-1{fill:none;}.cls-2{fill:#10b1e2;}.cls-3{fill:#48555e;}.cls-4{fill:#fff;}</style></defs><title>ident</title><rect class="cls-1" width="380" height="380"/><path class="cls-2" d="M373.29,331.6c0,1.57,0,3.12-.07,4.67H6.77c0-1.55-.06-3.1-.06-4.67s0-3.11.06-4.66C9.24,227.87,90.34,148.31,190,148.31s180.75,79.56,183.22,178.63C373.27,328.49,373.29,330,373.29,331.6Z"/><rect class="cls-3" y="328.69" width="380" height="9.33"/><path class="cls-4" d="M311.28,174.76H288v-28H92v28H68.72a14,14,0,0,0-14,14V328.69a14,14,0,0,0,14,14h70v28H241.31v-28h70a14,14,0,0,0,14-14V188.75A14,14,0,0,0,311.28,174.76Z"/><path class="cls-3" d="M311.28,165.43h-14v-28H82.71v28h-14a23.33,23.33,0,0,0-23.33,23.32V328.69A23.33,23.33,0,0,0,68.72,352h60.64v18.66H110.7V380H269.3v-9.33H250.64V352h60.64a23.34,23.34,0,0,0,23.32-23.32V188.75A23.32,23.32,0,0,0,311.28,165.43ZM92,146.77H288V277.38H92Zm149.27,223.9H138.69V352H241.31Zm84-42a14,14,0,0,1-14,14H68.72a14,14,0,0,1-14-14V324H325.27Zm0-14H54.72V188.75a14,14,0,0,1,14-14h14v112H297.28V174.76h14a14,14,0,0,1,14,14Z"/><path class="cls-3" d="M190,177a35,35,0,1,0,35.05,35A35,35,0,0,0,190,177Zm10.84,58.38a25.73,25.73,0,1,1,9.42-7.48A25.73,25.73,0,0,1,200.84,235.4Z"/><path class="cls-3" d="M169.73,227.92a73.89,73.89,0,0,0-9.14,3.21,75.57,75.57,0,0,0-42.19,46.25,72.71,72.71,0,0,0-2.33,9.33h9.51a65.76,65.76,0,0,1,41.53-48.11,64.2,64.2,0,0,1,12-3.2A25.83,25.83,0,0,1,169.73,227.92Zm82,49.46a63,63,0,0,1,2.7,9.33h9.52a72.71,72.71,0,0,0-2.33-9.33,75.57,75.57,0,0,0-42.19-46.25,74,74,0,0,0-9.15-3.21,25.8,25.8,0,0,1-9.41,7.48,64.2,64.2,0,0,1,12,3.2A66,66,0,0,1,251.7,277.38Z"/></svg>