<svg id="Camada_1" data-name="Camada 1" xmlns="http://www.w3.org/2000/svg" viewBox="0 0 500 500"><defs><style>.cls-1{fill:#1577b7;}.cls-2{fill:#fff;}.cls-3{fill:#dedede;}.cls-4{fill:#48555e;}</style></defs><title>ident</title><path class="cls-1" d="M464.78,211.64c-10,7.28-48.37-8.85-21.89-60-4.48,8.65-57.31,61.06-40.61-39.24-1.6,9.62-5.83,8.54-12.68,5.09-13.71-20.69-35.79-38.26-32.36-65.85-3.43,6.9-5.52,12.45-12.37,12.45-20.55,0-27.11-12.9-30.54-33.59-10.28,37.93-55.21,17.83-72.34.59,37.57,57.09,6.17,116.15-62.17-12.5C173,32.41,186.71,62.4,173,72.75s-30.27,5.16-44-8.63c6.85,13.79,4.73,29.46,4.73,43.25-3.42,17.24-34.27,15.88-44.54,5.53,3.42,13.79,23.44,37.62,13.16,51.41-10.28,24.14-53.48,4.6-70.61-5.74,17.13,20.69,70.85,32.81,57.15,67.29-6.86,17.25-41.66-5.52-62.21-2.07,3.42,10.35,34.64,16.23,31.21,33.47-2.44,4.91-15.87,1.31-19.3,1.31,3.43,3.45,16.19,4.76,16.19,11.66C48,287.47,22,284,8.3,284c10.28,6.9,36.25,14.62,39.67,28.41,3.43,10.35-11.43,26.8-21.71,26.8,13.71,0,28.24,0,35.1,6.86,0,6.9-14.48,9.1-21.33,12.55,3.42,0,18.22,2.07,21.65,9C65.1,384.84,40,393,29.75,399.89c17.13,0,40.39-14.19,54.1-3.84,10.27,6.89-9.62,29.38-9.62,39.73C84.5,425.43,100.34,412.9,114,416.35c0,3.45-2.13,19.43-2.13,22.87,6.85-3.44,18.37-12.63,21.8-5.73,0,10.35-4.61,28.47-11.46,38.81,10.28-6.89,58.31-70.58,63.08-60.78,5.42,11.16,1.95,69.08-1.48,79.43,6.86-10.35,66.32-125.07,66.42,1.81,6.86-13.8,18.12-77.45,55.41-11.15-6.75-12-6.13-22.5,7.57-32.85,6.86-3.44,36.34-1.38,46.62,9-3.42-13.79,9.79-52.91,50-30.26-12.68-7.14-24.91-29.3-21.49-43.1,10.28-20.69,42.11-7.22,59.24,6.58-3.43-13.8-31.87-71.54-14.74-75,13.71-3.45,28.38,1.29,42.09,1.29-17.13-3.45-61.67-25.05-61.31-26.13,4.65-13.87,65.72-17.71,72.33-17.83-10.25-1.18-21.41-2.64-28-4.29C452.93,266.54,400.79,258.16,464.78,211.64ZM20,144.92c.81.44,6,3.9,6.15,1.34,0-1.21-1.42-3.34-2-4.42-.71-1.45-1.45-2.9-2.3-4.27a2.92,2.92,0,0,0-.76-.94,2.88,2.88,0,0,0-1.54-.36,5.12,5.12,0,0,0-3.26.63c-1.42,1-1.42,3.31-.46,4.79A10.53,10.53,0,0,0,20,144.92Zm6.23,106.56a15,15,0,0,0,2.56,1.67c.65.33,2.6,1.6,3.3,1.39,1.13-.33-.39-1.78-.78-2.14a6.47,6.47,0,0,0-5.53-1.78C25.71,251,26,251.26,26.27,251.48Zm376-150.65a11,11,0,0,1,.64,1.86c.07.3.08,1.51.43,1.52a51.59,51.59,0,0,0-.33-5.27,15.53,15.53,0,0,0-.34-2.45,2.6,2.6,0,0,0-.39-.94,1.1,1.1,0,0,0-.87-.46,1.43,1.43,0,0,0-.79.38,1.26,1.26,0,0,0-.39.5,1.37,1.37,0,0,0,.16,1C401,98.28,401.7,99.51,402.26,100.83Zm-34,367a13.34,13.34,0,0,0-4-4.3,8.17,8.17,0,0,1-2.41-2.12c-.32-.47-.64-1.67-1.31-.86s.92,5.07,1.26,6.13a21.08,21.08,0,0,0,.93,2.39,6.32,6.32,0,0,0,2.36,3,2.76,2.76,0,0,0,3.53-.53C369.35,470.44,368.88,469,368.22,467.82ZM125.4,54.54c.82-.87.86-3.64,1.25-4.91.52-1.7,1.17-3.36,1.65-5.08a26.88,26.88,0,0,0,1-6.43,10.74,10.74,0,0,0-.78-4.84,9.59,9.59,0,0,0-5.9-4.7c-1.44-.48-3.35-.59-4.14.71a3.79,3.79,0,0,0,0,3c.62,2.14,3.6,12.06-7.6,3.17C126,49,123.49,53,125.4,54.54ZM109,446.8c-.13-.36-.32-1.51-.59-1.73s-.13-.09-.52.12-.62.54-1.05.73a9.49,9.49,0,0,1-1.57.48,16.86,16.86,0,0,0-3.35,1A7.42,7.42,0,0,0,98,454.07a5,5,0,0,0,.3,1.84,5.11,5.11,0,0,0,1.24,1.78,5.87,5.87,0,0,0,4.93,1.88,7.05,7.05,0,0,0,3-1.53,8,8,0,0,0,2.22-2.37,7.5,7.5,0,0,0,.38-5.48C109.83,449,109.39,447.92,109,446.8ZM316.17,19.33a2.4,2.4,0,0,1,1-.41c.38-.05.82,0,1.11-.25a.8.8,0,0,0,.2-.76,1.73,1.73,0,0,0-.37-.74,1.48,1.48,0,0,0-.7-.61,1.57,1.57,0,0,0-.83.05,2.48,2.48,0,0,0-1.41.78,2.72,2.72,0,0,0-.38,1.57c0,.41-.24,1.5.08,1.76A5.76,5.76,0,0,1,316.17,19.33Zm136,122.9a5.63,5.63,0,0,1,4.94,1c.93.78,1.53,1.9,2.43,2.72a5.31,5.31,0,0,0,5.32,1.05,2.81,2.81,0,0,0,1.54-1.16c.77-1.33-.27-3-1.5-3.95a8.66,8.66,0,0,0-5.19-1.69c.89-.61,1.91-1.59,1.48-2.58-.34-.78-1.35-1-2.18-.92-3.33.11-7.2,2-8.95,5C448.57,144.05,450.92,142.53,452.12,142.23Zm47.49,176.1a4.08,4.08,0,0,0-3.11-2,7.93,7.93,0,0,0-3.78.55c-1.08.39-4.05,1.31-4,2.83s3.08,3.08,4.15,3.79a7.45,7.45,0,0,0,1.51.84,4.11,4.11,0,0,0,3.77-.58,4.59,4.59,0,0,0,1.8-3.42A3.84,3.84,0,0,0,499.61,318.33Zm-20.47-.28a10,10,0,0,0,1.21.25,24.51,24.51,0,0,0,3.2.26,2.74,2.74,0,0,0,1-.08C483.88,318.71,479.32,317.15,479.14,318.05ZM454.3,402.36a18.23,18.23,0,0,1-.36,4.66,10.5,10.5,0,0,0-.48,4.39,7.06,7.06,0,0,0,1.45,2.71,3.39,3.39,0,0,0,2.24,1.58,2.39,2.39,0,0,0,2.19-1.47,5.86,5.86,0,0,0,.38-2.76c-.24-4.62-2.27-10.21-5.94-13.2C453.5,399.34,454.24,401.17,454.3,402.36ZM473,205.1c1-.37,6.14-5.07,6.86-5.76,1.11-.92,2.32-1.88,3.37-2.78a10,10,0,0,0,2.15-2.24,52.7,52.7,0,0,0-7.86,5.79C476.61,201,472,205.48,473,205.1ZM327.77,489.41a7.13,7.13,0,0,0-5.52.26,48.06,48.06,0,0,1-5.25,2.19c-1.43.38-2.72,0-4.12.08.79,1.71,2.77,3.44,4.22,4.67A13.23,13.23,0,0,0,325,500a4.75,4.75,0,0,0,1.72-.19,5.7,5.7,0,0,0,2.91-3.11,8.22,8.22,0,0,0,.74-2A4.9,4.9,0,0,0,327.77,489.41ZM235.33,20.61a41.21,41.21,0,0,1-8.06-4.22,12.44,12.44,0,0,1-3-3,13.24,13.24,0,0,1-1.61-3.72,12.6,12.6,0,0,1-.17-7.44c.39-1.11,1.23-2.26,2.4-2.25a2.76,2.76,0,0,1,2,1.21,14.12,14.12,0,0,1,1.85,3.5A116,116,0,0,0,238,22.23M4.82,332.52a5.69,5.69,0,0,0-3,.22A2.78,2.78,0,0,0,0,335a2.86,2.86,0,0,0,1.35,2.45,6.81,6.81,0,0,0,2.76.94,28.34,28.34,0,0,0,6.7.12c1.12-.09,2.24-.23,3.36-.38,1-.13,2,0,1.26-1-.41-.55-2-1-2.64-1.36-.87-.46-1.73-.95-2.61-1.39A18.38,18.38,0,0,0,4.82,332.52Zm98-305A4.47,4.47,0,0,0,99,27.19a1.83,1.83,0,0,0-1.23,1.58,1.92,1.92,0,0,0,1.28,1.52,9.12,9.12,0,0,0,3.93.39,10.12,10.12,0,0,1,2.27.13c.5.08,1.27.29,1-.38-.22-.52-1.16-1.16-1.58-1.53A9.8,9.8,0,0,0,102.81,27.53Z" transform="translate(0 0)"/><path class="cls-2" d="M56.82,136.52v230a29,29,0,0,0,29,29H221.7v51h63.24v-51H420.82a29,29,0,0,0,29-29v-230Z" transform="translate(0 0)"/><rect class="cls-3" x="61.82" y="141.52" width="383" height="16"/><path class="cls-4" d="M45.82,125.52v241a40,40,0,0,0,40,40h128v32h-16v16h111v-16h-16v-32h128a40,40,0,0,0,40-40v-241Zm231,313h-47v-32h47Zm168-72a24,24,0,0,1-24,24h-335a24,24,0,0,1-24-24v-20h383Zm-383-36v-189h383v189Z" transform="translate(0 0)"/><rect class="cls-3" x="229.82" y="406.52" width="47" height="16"/><path class="cls-3" d="M269.32,360.52h-32a8,8,0,1,0,0,16h32a8,8,0,0,0,0-16Z" transform="translate(0 0)"/><circle class="cls-4" cx="253.32" cy="368.52" r="8"/><circle class="cls-3" cx="324.82" cy="360.52" r="4"/><circle class="cls-3" cx="340.82" cy="360.52" r="4"/><circle class="cls-3" cx="356.82" cy="360.52" r="4"/><circle class="cls-3" cx="372.82" cy="360.52" r="4"/><circle class="cls-3" cx="388.82" cy="360.52" r="4"/><circle class="cls-3" cx="324.82" cy="376.52" r="4"/><circle class="cls-3" cx="340.82" cy="376.52" r="4"/><circle class="cls-3" cx="356.82" cy="376.52" r="4"/><circle class="cls-3" cx="372.82" cy="376.52" r="4"/><circle class="cls-3" cx="388.82" cy="376.52" r="4"/><circle class="cls-3" cx="117.82" cy="360.52" r="4"/><circle class="cls-3" cx="133.82" cy="360.52" r="4"/><circle class="cls-3" cx="149.82" cy="360.52" r="4"/><circle class="cls-3" cx="165.82" cy="360.52" r="4"/><circle class="cls-3" cx="181.82" cy="360.52" r="4"/><circle class="cls-3" cx="117.82" cy="376.52" r="4"/><circle class="cls-3" cx="133.82" cy="376.52" r="4"/><circle class="cls-3" cx="149.82" cy="376.52" r="4"/><circle class="cls-3" cx="165.82" cy="376.52" r="4"/><circle class="cls-3" cx="181.82" cy="376.52" r="4"/><path class="cls-4" d="M286.48,259.85l-14,42H234.21l-14.05-42,23.63-58.28h4.27v50.1a10.52,10.52,0,0,0,0,18.23,10.49,10.49,0,0,0,10.54,0,10.53,10.53,0,0,0,0-18.23v-50.1h4.26Z" transform="translate(0 0)"/><path class="cls-3" d="M412,262.52a196,196,0,0,0-317.38,0l-6.47-4.71a204,204,0,0,1,330.33,0Z" transform="translate(0 0)"/><rect class="cls-4" x="245.32" y="169.58" width="16" height="16"/><rect class="cls-4" x="83.4" y="252.16" width="16" height="16"/><rect class="cls-4" x="407.25" y="252.16" width="16" height="16"/><path class="cls-4" d="M277.32,330.52h-48l1.47-15.13a6.1,6.1,0,0,1,6.07-5.52h32.92a6.1,6.1,0,0,1,6.07,5.52Z" transform="translate(0 0)"/></svg>