<?xml version="1.0" encoding="utf-8"?>
<!-- Generator: Adobe Illustrator 23.0.1, SVG Export Plug-In . SVG Version: 6.00 Build 0)  -->
<svg version="1.1" id="Camada_1" xmlns="http://www.w3.org/2000/svg" xmlns:xlink="http://www.w3.org/1999/xlink" x="0px" y="0px"
	 viewBox="0 0 500 500" style="enable-background:new 0 0 500 500;" xml:space="preserve">
<style type="text/css">
	.st0{fill:#1577B7;}
	.st1{fill:#FFFFFF;}
	.st2{fill:#DEDEDE;}
	.st3{fill:#48555E;}
</style>
<title>ident</title>
<path class="st0" d="M490.1,265.6c-3.2-5.3-83.2-55.9-68.8-63.6c21.3-11.3,52.3-5.1,70.8-25.5c-21.4-25.7-66.1-15.7-93.4-28.3
	c-49.7-22.9-4.7-57,32.5-50.5c-4.1-12,40.4-95.3-16.3-69.9c-12.1,5.4-15.1,26.5-25.5,35.8c-8.7,7.7-23.3,10.5-32.4,18.6
	c-13.2,11.8-44.5,61.6-56.1,21.1c-4.1-14.4,7-25.9,12.6-37.9c9.9-21.3,13.1-33.5,10.2-57.3C309.6,27,293.6,44,282.9,65.6
	c-11.1,22.3-15.9,50.7-28.1,72c-45.4,78.9-48.2-54.7-53.1-83.3c-28.5,2.6-40.3,46.6-66.6,19.3c-17.1-17.8-3.6-53.5-17.5-73.6
	c3,27-26.7,42-26.1,63.8c0.6,22.1,44.2,39.1,42.8,59.7c-1,14.4-39.5,39.1-52.3,41.3c-24.1,4.3-37.2-10.7-43-33.6
	c-4,4.8-7.6,27.4-6.1,33.4c20.2,5,59.3,16.3,62.2,41.8c4.2,36.4-41.9,23.3-65.1,29.3c15.8,10.2,32.2,19.6,48,29.8
	c-12.2,4.9-33.3,7.5-46.4,8.8c18,1.1,51.2,5.9,68.7,12c32.6,11.3,27.7,22.5,6.1,46.7c-26.2,29.3-89.9,31.7-105.1,64.7
	c30.2,3,43.9,9.9,73.4-4.6c23.2-11.4,52.8-45.3,78-46.6c-0.4,20.9-0.5,40.7-12,58.2c-9,13.8-44,25.6-40.9,44.9
	c26.1-2.4,32.4-35.8,53.1-43.3c21.5-7.8,43.4,11.4,54.2,29.8c9.3,15.6,7.6,49.8,25.1,59.9c28.6,16.5,35.5-21.2,53.7-33.9
	c35.8-25.1,83.8,29.6,110.3-18.8c5.3-9.6,21.2-135.8,34.8-125c1.8,1.4,5.8,3.9,6.6,6.1c6.2,17.3,8,36.4,14.3,54
	C480,349.1,518.3,311.8,490.1,265.6z M49,77.3c-3.3,0.5-4.6,3-7.6,1.7c-4.3-2.1-6.3-0.4-8,3.3c-0.5,1.1-7.6,11.8-1.8,15.8
	c2.2,1.5,1.5,7.1,3.7,8.6c0.3,0.2,1,3.3,1.4,3.3s-0.9-6-0.6-6.1c1.8-1.2,5.8,1.2,7.6,0C45,103,44,99.6,45,98.2
	c1.9-2.5,7.2-12.3,5.7-15.2C49.5,80.7,51.3,77,49,77.3z M69.5,454.6c-7.5,0.1-15.8,3.9-15.3,13.1c0.5,5.7,3.2,6.3,8.1,4.1
	c4-1,4.6-4.1,7.9-6.7c1.2-3.8,7.6-1.9,12.3-0.4c3.8-0.4,6.8-9,5.4-12.3C81.9,453.9,75.7,454.6,69.5,454.6z M4.1,299.4
	c0.8,0.3,3.3-2.9,3.8-3.4c0.4-0.4-1-1.4-0.9-2c0.7-3.8,0.3-9.9,2.6-12.9c1.6-2,9.4-2.5,8.2-5.4c-5.7,1.6-14.3,6.5-17.8,11
	c-0.6,0.8,4.3,4,4.1,5C3.9,293.8,2,298.7,4.1,299.4z M415.6,500.2c4,0.2,8.1-7.8,7.4-11.7c-0.5-2.9-3.9-3.9-6.4-5.5
	c-2.3-1.7-0.7,0.5-2.9,2.9c-1.1,1.4-5.4,0.6-6,2.3c0.4,0.7-1.4-0.7-1.3,0.1C405.3,492.2,411.7,500,415.6,500.2z M464.6,98
	c2.6-3.5,6.2-6.1,10.4-7.4c27,4.8-38.1,17.3-24.1,7.5C455,98.1,461.5,100.7,464.6,98z M444.3,436.5c1.7,5.3,5.3,9.8,10.1,12.6
	c2.6,1.7,5.8,2.4,8.9,2c4.2-0.8,7.4-4.5,8.6-8.6c0.6-1.5,0.6-3.2,0-4.7c-0.8-1.9-2.7-3-4.5-3.9c-3-1.5-6-2.7-9.1-3.8
	c-2.8-1-5.8-1.8-7.9-3.9c-3.1-3.1-3.3-7.7-3.1-11.8C444.3,421.4,441.9,428.9,444.3,436.5z M237.8,3.8c0.8,0.1,1.6,0.3,2.3,0.8
	c0.9,0.8,1.5,1.8,1.6,3c1,5.3-0.7,10.8-4.7,14.5c-3.9,3.7-20.9,10.1-20.1,0.1C217.7,13.7,229.3,2.7,237.8,3.8z"/>
<path class="st1" d="M53.5,146.5v230c0,16,13,29,29,29h135.9v51h63.2v-51h135.9c16,0,29-13,29-29v-230H53.5z"/>
<rect x="226.5" y="416.5" class="st2" width="47" height="16"/>
<path class="st3" d="M283.2,270.8l-14,42h-38.3l-14-42l23.6-58.3h4.3v50.1c-5,2.9-6.8,9.3-3.9,14.4c0.9,1.6,2.3,2.9,3.9,3.9
	c3.3,1.9,7.3,1.9,10.5,0c5-2.9,6.8-9.4,3.8-14.4c-0.9-1.6-2.2-2.9-3.8-3.8v-50.1h4.3L283.2,270.8z"/>
<path class="st3" d="M274,341.5h-48l1.5-15.1c0.3-3.1,2.9-5.5,6.1-5.5h32.9c3.1,0,5.8,2.4,6.1,5.5L274,341.5z"/>
<rect x="58.5" y="151.5" class="st2" width="383" height="16"/>
<path class="st3" d="M42.5,135.5v205v36c0,22.1,17.9,40,40,40h128v32h-16v16h16h79h16v-16h-16v-32h128c22.1,0,40-17.9,40-40v-36
	v-205H42.5z M273.5,448.5h-47v-32h47V448.5z M441.5,376.5c0,13.3-10.7,24-24,24h-128h-79h-128c-13.3,0-24-10.7-24-24v-20h383V376.5z
	 M58.5,340.5v-189h383v189H58.5z"/>
<path class="st2" d="M266,370.5h-32c-4.4,0-8,3.6-8,8s3.6,8,8,8h32c4.4,0,8-3.6,8-8S270.4,370.5,266,370.5z"/>
<circle class="st3" cx="250" cy="378.5" r="8"/>
<circle class="st2" cx="321.5" cy="370.5" r="4"/>
<circle class="st2" cx="337.5" cy="370.5" r="4"/>
<circle class="st2" cx="353.5" cy="370.5" r="4"/>
<circle class="st2" cx="369.5" cy="370.5" r="4"/>
<circle class="st2" cx="385.5" cy="370.5" r="4"/>
<circle class="st2" cx="321.5" cy="386.5" r="4"/>
<circle class="st2" cx="337.5" cy="386.5" r="4"/>
<circle class="st2" cx="353.5" cy="386.5" r="4"/>
<circle class="st2" cx="369.5" cy="386.5" r="4"/>
<circle class="st2" cx="385.5" cy="386.5" r="4"/>
<circle class="st2" cx="114.5" cy="370.5" r="4"/>
<circle class="st2" cx="130.5" cy="370.5" r="4"/>
<circle class="st2" cx="146.5" cy="370.5" r="4"/>
<circle class="st2" cx="162.5" cy="370.5" r="4"/>
<circle class="st2" cx="178.5" cy="370.5" r="4"/>
<circle class="st2" cx="114.5" cy="386.5" r="4"/>
<circle class="st2" cx="130.5" cy="386.5" r="4"/>
<circle class="st2" cx="146.5" cy="386.5" r="4"/>
<circle class="st2" cx="162.5" cy="386.5" r="4"/>
<circle class="st2" cx="178.5" cy="386.5" r="4"/>
<path class="st2" d="M408.7,272.5c-63.5-87.6-186.1-107.2-273.7-43.7c-16.8,12.2-31.5,26.9-43.7,43.7l-6.5-4.7
	c66.1-91.2,193.7-111.5,284.9-45.4c17.4,12.6,32.8,28,45.4,45.4L408.7,272.5z"/>
<rect x="242" y="179.6" class="st3" width="16" height="16"/>
<rect x="80.1" y="262.1" class="st3" width="16" height="16"/>
<rect x="403.9" y="262.1" class="st3" width="16" height="16"/>
</svg>
