<svg id="Camada_1" data-name="Camada 1" xmlns="http://www.w3.org/2000/svg" viewBox="0 0 200 200"><defs><style>.cls-1{fill:#1577b7;}.cls-2{fill:#fff;}.cls-3{fill:#dedede;}.cls-4{fill:#48555e;}</style></defs><title>ident</title><path class="cls-1" d="M64.17,21.66A2.32,2.32,0,0,0,65.35,19c-.54-1.72-2.5-2.8-3.86-3.57a1.67,1.67,0,0,0-1.35,0l-.21,0a2.4,2.4,0,0,0-1.55,1.12,10.85,10.85,0,0,0-.75,1.27,3.3,3.3,0,0,0-.08,3.34c1.44,2,4.78,1.64,6.62.52Z" transform="translate(0 0)"/><path class="cls-1" d="M81.15,14.06c3.73,1.14,4-4,2.94-6.76.27-.5-.27-1.08-1-1-.7-.12-1.62.2-1.6.75-2.44,1.81-4.07,5.91-.35,7Z" transform="translate(0 0)"/><path class="cls-1" d="M118,11.71c3.61-1.34,5.08-6.42,3.44-9.89.16-.21.13-.44-.28-.63a.32.32,0,0,0-.09,0,6.35,6.35,0,0,0-.71-.93c-.53-.54-2.43-.07-2.13.66-3.14,1.11-3.69,7.45-2,10.54.32.59,1.24.46,1.74.28Z" transform="translate(0 0)"/><path class="cls-1" d="M134,13.9a4.64,4.64,0,0,0,4.78-4c.62-2.84,0-6.15-2.5-7.57-.5-.29-2.38.17-2.08.56-4.17,2-6.64,11-.2,11Z" transform="translate(0 0)"/><path class="cls-1" d="M167.5,64.33c3.54,1.63,7.26-.49,8.64-4.36.22-.63-.42-.94-1.09-.91a1.1,1.1,0,0,0-.55-.19c-3.05-.09-6.53,1-7.35,4.69a.66.66,0,0,0,.35.77Z" transform="translate(0 0)"/><path class="cls-1" d="M3,111.55c-.26.12-.32.3-.26.46a5.45,5.45,0,0,0-2.67,3.93c-.71,3.75,2,6.13,5.29,5.53,3-.55,4.36-4.27,4.13-7.23-.28-3.82-3.87-4-6.49-2.69Z" transform="translate(0 0)"/><path class="cls-1" d="M12.13,96.1c1.82-1.65-.29-3.11-1.82-3.82,0,0,0,0,0-.06a6.22,6.22,0,0,0-7.13-.47A1.91,1.91,0,0,0,2.27,94c.45,1.31,1.92,2.18,3,2.72,2,1,5.09,1,6.85-.61Z" transform="translate(0 0)"/><path class="cls-1" d="M29.75,40.34c1.23-.57,1.2-1.76.5-2.8a9.53,9.53,0,0,0-1.16-1.38l-.13-.1a.5.5,0,0,0-.17-.4,1.59,1.59,0,0,0-1.62-.13c-1.07.42-3.09,1.21-3.1,2.77,0,1.14,1.33,1.74,2.13,2a4.79,4.79,0,0,0,3.55,0Z" transform="translate(0 0)"/><path class="cls-1" d="M24.46,124a2.82,2.82,0,0,0,.19-1.44,6.29,6.29,0,0,0,.4-.83.25.25,0,0,0-.14-.36,9.85,9.85,0,0,0-1.07-.55,4,4,0,0,0-.74-.62,6.48,6.48,0,0,0-4.92-.46l-.85.12a6.7,6.7,0,0,0-5,1.51c-1.46.78-2.36,1.86-1.92,3.27a3.68,3.68,0,0,0,2.74,4.15,10.54,10.54,0,0,0,6.07-.55c2.07-.72,4.33-2,5.28-4.24Z" transform="translate(0 0)"/><path class="cls-1" d="M30,135.27l-.29-.13c-.07-.1-.13-.21-.21-.31a1.35,1.35,0,0,0-1.41-.21c-3-.51-6.51.92-8.89,2.58-2.87,2-4,6.53-.62,8.68,5,3.12,14.4-3.85,11.67-9.82.21-.25.21-.54-.25-.79Z" transform="translate(0 0)"/><path class="cls-1" d="M165.43,165a1.55,1.55,0,0,0-1.3.44h0s-.06.06-.08.1a1.36,1.36,0,0,0-.21.1c-.78.59-2.09,1.59-1.91,2.82a1.39,1.39,0,0,0,.12.41l-.3.51c-1,2,.92,2.67,2.41,2.43a5.9,5.9,0,0,0,4.52-3.62c.7-2.21-1.76-3-3.24-3.2Z" transform="translate(0 0)"/><path class="cls-1" d="M151.24,176.17a.94.94,0,0,0-.52-.17c-2.67-2.57-3.51-8.65-8-7.77-5.88,1.16-2.15,8.73-.37,11.85,2.22,3.9,6.39,7.27,10.82,5.91,5.24-1.62,0-8-2-9.82Z" transform="translate(0 0)"/><path class="cls-1" d="M199.77,116.31a3.24,3.24,0,0,0-.71-1.32c-.43-.5-1.9-.25-2.23.17a1.22,1.22,0,0,0-.76-.33,1,1,0,0,0-.32-.07c-1.35-.06-3.18-.24-4.36.7a1.11,1.11,0,0,0-.35,1.4,1.75,1.75,0,0,0,0,2.67c1.65,2,4.26,2,6.4.91a4.1,4.1,0,0,0,2.47-3.55c.19-.17.21-.38-.09-.58Z" transform="translate(0 0)"/><path class="cls-1" d="M177.94,148.22c-2.65-1.54-8.32.15-10.25-2.29s-1.54-7.53-.92-10.25c.77-3.4,4.87-3.61,7.39-4,.17,0,.94-.27.83-.63-1.85-5.8,3.46-3.1,6.67-3.57,2.85-.42,3.18-3.3,1.79-5.39s-3.58-3.32-5-5.3c-2.71-3.66-.85-9.06.23-13,.05-.18.08-.34.12-.52.37-.12.76-.23,1.19-.33,1.73-.39,2.26-2.12,2.09-3.85-.51-5.35-8.1-7.29-10.07-12-.24-2.89,4.91-4.23,7.61-4a6.5,6.5,0,0,0,3.47-.75c2.24-1.31,4.52-4.37,2.93-7a6.88,6.88,0,0,0-2.75-2.48c-2-2.61-6.15-2.11-10-2.12a31.3,31.3,0,0,1-4.66-.69,12.41,12.41,0,0,0-4.1-4.89h0a13,13,0,0,1-1.45-5.55c0-.25-.27-.39-.57-.46,1.4-7.34,8.24-13.76,6-22-.2-.72-1.81-.49-2.2-.09-5,5.22-11.84,10.9-17.27,2.75-3.64-5.46,1.27-10,5-13,4.93-3.88,11.9-7.53,12.08-15,0-.27-.44-.37-.6-.39-10.21-1.69-14.87,14.37-21,20.47-3.92,3.89-4-1.06-5.93-3.26a10.27,10.27,0,0,0-5.89-3.55c-2.09-.45-4.22-2.49-6.51-2a3.07,3.07,0,0,0-1.29.64c-2,1.75-3-.57-3.47-2.88-.16-.81-2-.43-2.31.05-3.27,4.57-15.33,5.69-16.86-.38-.58-2.31.25-5.67.44-8,.2-2.64,1.85-10.5-2.38-9.79C98.45,3,97.3,6,96.77,7.59c-.85,2.52-.09,5.36-.93,8-1,3.1-4.72,4.49-7.14,5.75C85.46,23,84,26.08,82.39,29.41,80.17,34,76.15,21.8,76,21.24a18.32,18.32,0,0,0-3.14-7.17,1.75,1.75,0,0,0-2.26.18c-1.67,2.88-.45,6.32.25,9.32,1.63,6.87-.88,12.25-8.94,9.26-4.33-1.61-8.45,3.08-10.77,6.9-2.32.12-6.24-4.4-7.59,1.34-.12.56.36,1.28.6,1.7,1.17,2.11,1.27,4.08-.32,6.09s-5.67,1.52-8,2.61c-3.91,1.87-.1,7.12,1.82,8.87a36.64,36.64,0,0,1,3.61,3.55c3.49,4.18-3.43,6.46-6.31,3.24-2-2.2-3.26-5-5.83-6.5-1.37-.81-7.73-.51-7.27,2.26C22.24,65,24.48,66.06,26,67c3.46,2.07,6.18,3,7.58,7.57,2.2,7.2-5.13,10.7-10.36,11.27-.79.09-3.16.29-3.41,1.51-.54,2.61,2.67,4.9,4.59,5.74a8,8,0,0,0,1.46.39c1,3-3.13,8.09-2.85,11.18a2,2,0,0,0,1.12,1.42c3.19,1.35,4.45,3.66,3,7.51-1.55,4.1-2.88,5.37-.43,9.12a34.17,34.17,0,0,0,3.21,4.42c-.93,4.21,4.57,3.63,6.58,6.42,1.4,1.94.58,4.56,1,6.8a2.9,2.9,0,0,0,.27.75.27.27,0,0,0,.13.25.34.34,0,0,1,.09.08,3.15,3.15,0,0,0,.84.79c3.36,3.78.69,9.82-1,14.13-1.06,2.65-3.89,7.53-1.91,10.3,1.5,2.11,5.18,1.07,6.89.07a14,14,0,0,0,2.29-2.13c2.56-2.61,6.35-2.07,9.46-2.37,2.91-.28,6.69-1.49,7.41,2.54.51,2.86-.8,6.19-1.84,8.74-2.4,5.92-5.62,9.61-6.65,16.05-.34,2.16-1.51,8,1.75,8.08,3.92.15,4.12-4.7,4.27-7.83.16-3.57-.26-7.45,1.65-10.59a49,49,0,0,1,7.2-9.05c1.68,3.83,2.29,11.13,2.1,14.7-.25,4.39-5.31,12.22.59,14.94,2,.94,4-1.2,5-2.77,1.39-2.16,1.44-5.48,1.34-7.94-.07-1.74-.4-3.5-.55-5.24-.46-5.16,10.23-7.69,11-3.2.51,2.87.13,8.56,2.6,10.14,1.68,1.08,4.35.23,5.73-1,2.56-2.34,3.15-7.59,4.33-10.79a19,19,0,0,1,1.31-2.73c.2-.35,3-3.43,4.36-3.2.22,2.54.61,3.85,3,4.36,4.14.9,6.29,6.63,10.28,8.55,4.61,2.23,10.09-3.28,8.09-8.37-1.21-3.11-1.14-8.65,3.19-8.95a5.31,5.31,0,0,0,2.55-1.32c4.65-3.41,0-2.61,1.53-7.89.34-1.91,1.5-2.07,3.46-.48a21.57,21.57,0,0,1,.88,3.14,4.06,4.06,0,0,0,2,2.67c1.63.61,3.6.91,5.19-.15,3.8-2.53,7.88-10.12,8.18-15,.22-3.5,5.64,1.83,6.78,2.86a51.06,51.06,0,0,0,6.44,4.65c2.5,1.62,5.93,3.22,9,2.63,7-1.37,7.12-8,1.13-11.51Z" transform="translate(0 0)"/><path class="cls-1" d="M110.15,180.84l-.23-.1a4.86,4.86,0,0,0-.57-.85,1.66,1.66,0,0,0-2.09.26c-.16,0-.32,0-.46.06a3.72,3.72,0,0,0-.51.16,4.6,4.6,0,0,0-1.69.79,2.49,2.49,0,0,0-.66.79,2.18,2.18,0,0,0-.93,1.87,2.06,2.06,0,0,0,1,2.27,2.61,2.61,0,0,0,1,.11,3.23,3.23,0,0,0,2.56.26,2.42,2.42,0,0,0,1.54-.76s0-.08.08-.12l.43-.43a3.63,3.63,0,0,0,.7-3.5c.26-.24.31-.54-.17-.81Z" transform="translate(0 0)"/><path class="cls-1" d="M135.67,186a3.24,3.24,0,0,0-2.7.2.61.61,0,0,0-.3.33,1.93,1.93,0,0,0-.92.47c-.55.28-1.17.7-1,1.33a2.28,2.28,0,0,0,.6,1,.7.7,0,0,0,.19.3,1.37,1.37,0,0,0,.2.13,2.64,2.64,0,0,1,.31.39c.07.1.29.13.55.12a2.19,2.19,0,0,0,.76.28,2.68,2.68,0,0,0,2-.63,3.23,3.23,0,0,0,1.53-2.25,1.79,1.79,0,0,0-1.18-1.64Z" transform="translate(0 0)"/><path class="cls-2" d="M24.37,45.05v92A11.6,11.6,0,0,0,36,148.66H90.38v20.4h25.2v-20.4H170a11.6,11.6,0,0,0,11.6-11.61v-92Z" transform="translate(0 0)"/><rect class="cls-3" x="26.37" y="47.05" width="153.22" height="6.4"/><rect class="cls-3" x="93.58" y="153.06" width="18.8" height="6.4"/><path class="cls-3" d="M109.31,134.65H96.6a3.27,3.27,0,0,0-3.26,2.73,3.2,3.2,0,0,0,3.16,3.68h12.71a3.27,3.27,0,0,0,3.26-2.73A3.2,3.2,0,0,0,109.31,134.65Z" transform="translate(0 0)"/><circle class="cls-4" cx="102.9" cy="137.88" r="3.2"/><circle class="cls-3" cx="131.51" cy="134.68" r="1.6"/><circle class="cls-3" cx="137.91" cy="134.68" r="1.6"/><circle class="cls-3" cx="144.31" cy="134.68" r="1.6"/><circle class="cls-3" cx="150.71" cy="134.68" r="1.6"/><circle class="cls-3" cx="157.11" cy="134.68" r="1.6"/><circle class="cls-3" cx="131.51" cy="141.08" r="1.6"/><circle class="cls-3" cx="137.91" cy="141.08" r="1.6"/><circle class="cls-3" cx="144.31" cy="141.08" r="1.6"/><circle class="cls-3" cx="150.71" cy="141.08" r="1.6"/><circle class="cls-3" cx="157.11" cy="141.08" r="1.6"/><circle class="cls-3" cx="48.7" cy="134.68" r="1.6"/><circle class="cls-3" cx="55.1" cy="134.68" r="1.6"/><circle class="cls-3" cx="61.5" cy="134.68" r="1.6"/><circle class="cls-3" cx="67.9" cy="134.68" r="1.6"/><circle class="cls-3" cx="74.3" cy="134.68" r="1.6"/><circle class="cls-3" cx="48.7" cy="141.08" r="1.6"/><circle class="cls-3" cx="55.1" cy="141.08" r="1.6"/><circle class="cls-3" cx="61.5" cy="141.08" r="1.6"/><circle class="cls-3" cx="67.9" cy="141.08" r="1.6"/><circle class="cls-3" cx="74.3" cy="141.08" r="1.6"/><path class="cls-4" d="M116.82,94.3,111,111.05H95L89.13,94.3,99,71.05h1.79V91a4.1,4.1,0,0,0-1.62,5.74,4.36,4.36,0,0,0,1.62,1.54,4.58,4.58,0,0,0,4.4,0,4.1,4.1,0,0,0,1.6-5.74,4.3,4.3,0,0,0-1.6-1.54v-20H107Z" transform="translate(0 0)"/><path class="cls-3" d="M166.38,95.47a78.41,78.41,0,0,0-127,0l-2.59-1.88a81.63,81.63,0,0,1,132.15,0Z" transform="translate(0 0)"/><rect class="cls-4" x="99.58" y="58.25" width="6.4" height="6.4"/><rect class="cls-4" x="34.77" y="91.45" width="6.4" height="6.4"/><rect class="cls-4" x="164.38" y="91.45" width="6.4" height="6.4"/><path class="cls-4" d="M20,40.65v96.4a16,16,0,0,0,16,16H87.18v12.8h-6.4v6.4h44.4v-6.4h-6.4v-12.8H170a16,16,0,0,0,16-16V40.65Zm92.41,125.21H93.58v-12.8h18.8Zm67.2-28.81a9.6,9.6,0,0,1-9.6,9.61H36a9.61,9.61,0,0,1-9.6-9.61v-8H179.58Zm0-14.4H112.67l-.6-6.15a2.49,2.49,0,0,0-2.47-2.25H96.21a2.49,2.49,0,0,0-2.47,2.25l-.6,6.15H26.37V47.05H179.58Z" transform="translate(0 0)"/></svg>