<svg id="Camada_1" data-name="Camada 1" xmlns="http://www.w3.org/2000/svg" viewBox="0 0 268.47 90"><defs><style>.cls-1{fill:none;}.cls-2{fill:#48555e;}.cls-3{fill:#1577b7;}</style></defs><title>logo</title><rect class="cls-1" width="268.47" height="90"/><path class="cls-2" d="M57.84,14.36a4.69,4.69,0,0,0-4.7,4.7v4.69h13v42.5h-13v4.69a4.69,4.69,0,0,0,4.7,4.7H75.5V14.36ZM36.59,23.75V19.06a4.69,4.69,0,0,0-4.7-4.7H14.23V75.64H31.89a4.69,4.69,0,0,0,4.7-4.7V66.25h-13V23.75Z" transform="translate(0.24)"/><path class="cls-3" d="M62.53,58v4.7H56a2.9,2.9,0,0,1-2.9-2.91V53.28h4.7A4.69,4.69,0,0,1,62.53,58Z" transform="translate(0.24)"/><path class="cls-3" d="M36.59,40.31V62.67H30.1a2.9,2.9,0,0,1-2.9-2.91V40.31Z" transform="translate(0.24)"/><rect class="cls-3" x="40.41" y="40.31" width="9.39" height="22.36"/><path class="cls-3" d="M62.53,30.23V45a4.69,4.69,0,0,1-4.69,4.69h-4.7v-13H27.2V27.33H59.63A2.9,2.9,0,0,1,62.53,30.23Z" transform="translate(0.24)"/><path class="cls-2" d="M110.92,45.4h.1l5.14-15.92h7V52.23h-5.28V37.58l-.09,0-5,14.67h-3.54l-4.93-14.45h-.09V52.23H98.91V29.48h6.92Z" transform="translate(0.24)"/><path class="cls-2" d="M139.76,47.81H133l-1.31,4.42h-5.56l7.42-22.75h2.83v0h2.83l7.44,22.75h-5.57Zm-5.55-4.06h4.33l-2.13-7.06h-.09Z" transform="translate(0.24)"/><path class="cls-2" d="M167.45,29.48V44.23a7.6,7.6,0,0,1-2.6,6.12,10.08,10.08,0,0,1-6.76,2.21,10.2,10.2,0,0,1-6.82-2.21,7.57,7.57,0,0,1-2.6-6.12V29.48H154V44.23a4.29,4.29,0,0,0,1.1,3.19,4.11,4.11,0,0,0,3,1.08,4.05,4.05,0,0,0,3-1.07,4.37,4.37,0,0,0,1.07-3.2V29.48Z" transform="translate(0.24)"/><path class="cls-2" d="M177,43.51v8.72h-5.28V29.48h7.92a9.82,9.82,0,0,1,6.26,1.83,6,6,0,0,1,2.32,5,5,5,0,0,1-.93,3,6.54,6.54,0,0,1-2.75,2.06,5.12,5.12,0,0,1,3,2,6.11,6.11,0,0,1,.92,3.45v1.43a8.82,8.82,0,0,0,.26,2,2.71,2.71,0,0,0,.92,1.63v.31h-5.45a2.51,2.51,0,0,1-.81-1.7,14.54,14.54,0,0,1-.19-2.3V46.86a3,3,0,0,0-3.37-3.35Zm0-4.06h2.67a3.63,3.63,0,0,0,2.44-.73,2.6,2.6,0,0,0,.84-2.08,3,3,0,0,0-.87-2.24,3.33,3.33,0,0,0-2.44-.86H177Z" transform="translate(0.24)"/><path class="cls-2" d="M198.55,52.23h-5.27V29.48h5.27Z" transform="translate(0.24)"/><path class="cls-2" d="M220.77,44.56l0,.09a7.3,7.3,0,0,1-2.2,5.9,9.28,9.28,0,0,1-6.4,2,8.81,8.81,0,0,1-9.32-9.33V38.48a9.37,9.37,0,0,1,2.46-6.74,8.59,8.59,0,0,1,6.51-2.59,10,10,0,0,1,6.69,2A7.11,7.11,0,0,1,220.85,37l0,.09h-5.14a4.22,4.22,0,0,0-.89-3,4,4,0,0,0-2.92-.9,3.09,3.09,0,0,0-2.74,1.43,6.79,6.79,0,0,0-1,3.8v4.78a6.41,6.41,0,0,0,1,3.83,3.49,3.49,0,0,0,3,1.44,3.32,3.32,0,0,0,2.62-.91,4.51,4.51,0,0,0,.81-3Z" transform="translate(0.24)"/><path class="cls-2" d="M230.11,52.23h-5.26V29.48h5.26Z" transform="translate(0.24)"/><path class="cls-2" d="M253.77,42.9a9.46,9.46,0,0,1-2.66,6.93,9.3,9.3,0,0,1-7,2.73,9.27,9.27,0,0,1-9.7-9.66V38.81a9.46,9.46,0,0,1,2.68-6.92,10.26,10.26,0,0,1,14,0,9.46,9.46,0,0,1,2.68,6.92Zm-5.26-4.12a6.54,6.54,0,0,0-1.15-4,4.19,4.19,0,0,0-6.52,0,6.68,6.68,0,0,0-1.13,4V42.9a6.64,6.64,0,0,0,1.15,4,3.84,3.84,0,0,0,3.29,1.56,3.76,3.76,0,0,0,3.22-1.56,6.71,6.71,0,0,0,1.14-4Z" transform="translate(0.24)"/><path class="cls-3" d="M143.9,75.44V61.38h4.65a5.88,5.88,0,0,1,4.35,1.67,5.81,5.81,0,0,1,1.67,4.29v2.14a5.79,5.79,0,0,1-1.67,4.29,5.92,5.92,0,0,1-4.35,1.67Zm2.35-12.18v10.3h2.3a3.38,3.38,0,0,0,2.68-1.14,4.31,4.31,0,0,0,1-2.94V67.32a4.28,4.28,0,0,0-1-2.92,3.38,3.38,0,0,0-2.68-1.14Z" transform="translate(0.24)"/><path class="cls-3" d="M165.5,69.11H160v4.45h6.49v1.88h-8.83V61.38h8.76v1.88H160v4h5.51Z" transform="translate(0.24)"/><path class="cls-3" d="M173.61,71.62l.25,1h.06l.24-1,3.36-10.26H180l-5,14.06h-2.23l-5-14.06h2.5Z" transform="translate(0.24)"/><path class="cls-3" d="M190,69.11h-5.5v4.45H191v1.88h-8.84V61.38h8.77v1.88h-6.42v4H190Z" transform="translate(0.24)"/><path class="cls-3" d="M195.93,73.56h6.59v1.88h-8.94V61.38h2.35Z" transform="translate(0.24)"/><path class="cls-3" d="M215.81,69.67a5.93,5.93,0,0,1-1.62,4.27,5.56,5.56,0,0,1-4.21,1.7,5.36,5.36,0,0,1-4.1-1.7,6,6,0,0,1-1.58-4.27V67.14a6,6,0,0,1,1.58-4.27,5.35,5.35,0,0,1,4.1-1.7,5.55,5.55,0,0,1,4.2,1.7,5.93,5.93,0,0,1,1.63,4.27Zm-2.35-2.55a4.37,4.37,0,0,0-.94-2.89A3.13,3.13,0,0,0,210,63.1a3,3,0,0,0-2.44,1.13,4.51,4.51,0,0,0-.9,2.89v2.55a4.51,4.51,0,0,0,.9,2.91A2.94,2.94,0,0,0,210,73.72a3.13,3.13,0,0,0,2.55-1.13,4.46,4.46,0,0,0,.93-2.92Z" transform="translate(0.24)"/><path class="cls-3" d="M221.14,70.1v5.34h-2.35V61.38h5.39a5.23,5.23,0,0,1,3.65,1.2,4.48,4.48,0,0,1,0,6.33,5.23,5.23,0,0,1-3.65,1.19Zm0-1.88h3a2.58,2.58,0,0,0,2-.69,2.49,2.49,0,0,0,.66-1.77,2.37,2.37,0,0,0-2.62-2.5h-3Z" transform="translate(0.24)"/><path class="cls-3" d="M239.73,69.11h-5.5v4.45h6.49v1.88h-8.84V61.38h8.77v1.88h-6.42v4h5.5Z" transform="translate(0.24)"/><path class="cls-3" d="M245.67,69.6v5.84h-2.35V61.38h4.84a5.51,5.51,0,0,1,3.63,1.06,3.71,3.71,0,0,1,1.29,3,3.13,3.13,0,0,1-.57,1.88,3.89,3.89,0,0,1-1.64,1.26,3,3,0,0,1,1.71,1.22,4,4,0,0,1,.53,2.11v1.17a5,5,0,0,0,.15,1.21,1.72,1.72,0,0,0,.51.89v.23h-2.41a1.56,1.56,0,0,1-.49-1,8.78,8.78,0,0,1-.11-1.35V72a2.39,2.39,0,0,0-.62-1.72,2.29,2.29,0,0,0-1.7-.64Zm0-1.88H248a3.16,3.16,0,0,0,2.05-.54,2,2,0,0,0,.65-1.65,2.17,2.17,0,0,0-.64-1.67,2.73,2.73,0,0,0-1.94-.6h-2.49Z" transform="translate(0.24)"/></svg>