<svg xmlns="http://www.w3.org/2000/svg" viewBox="0 0 1740.62 647.2"><defs><style>.cls-1{fill:none;}.cls-2{fill:#4ea5d9;}.cls-3{fill:#fff;}.cls-4{fill:#23f0c7;}.cls-5{fill:#2f4858;}</style></defs><g id="Camada_2" data-name="Camada 2"><g id="Logo"><rect class="cls-1" width="1740.62" height="647.2"/><rect class="cls-2" x="199.99" y="199.99" width="247.22" height="247.22"/><path class="cls-3" d="M229.17,298.13H280.1v94.43A25.46,25.46,0,0,1,254.64,418h0a25.47,25.47,0,0,1-25.47-25.47Z"/><path class="cls-4" d="M418,254.64V280.1H229.17V254.64a25.47,25.47,0,0,1,25.47-25.47H392.56A25.47,25.47,0,0,1,418,254.64Z"/><path class="cls-3" d="M298.13,298.13h50.93v56.94a25.46,25.46,0,0,1-25.46,25.47h0a25.47,25.47,0,0,1-25.47-25.47Z"/><path class="cls-3" d="M367.1,298.13H418v94.43A25.47,25.47,0,0,1,392.56,418h0a25.46,25.46,0,0,1-25.46-25.47Z"/><path class="cls-5" d="M367.1,152.8v18h94.79a14.5,14.5,0,0,1,14.5,14.5V461.89a14.5,14.5,0,0,1-14.5,14.5H367.1v18a29.2,29.2,0,0,0,29.2,29.2H500A23.61,23.61,0,0,0,523.6,500V147.2A23.61,23.61,0,0,0,500,123.6H396.3A29.2,29.2,0,0,0,367.1,152.8Z"/><path class="cls-5" d="M280.1,494.4v-18H185.31a14.5,14.5,0,0,1-14.5-14.5V185.31a14.5,14.5,0,0,1,14.5-14.5H280.1v-18a29.2,29.2,0,0,0-29.2-29.2H147.2a23.61,23.61,0,0,0-23.6,23.6V500a23.61,23.61,0,0,0,23.6,23.6H250.9A29.2,29.2,0,0,0,280.1,494.4Z"/><path class="cls-5" d="M648.32,170.29l34.07,106.2,34-106.2H764.8V322.93H727.89V224.81l-33.34,98.12H670.23l-33.44-98.24v98.24H600V170.29Z"/><path class="cls-5" d="M876.76,294.42H826.34l-8.81,28.51H778.22l56-152.64h34.6l56.4,152.64H885.67ZM835.14,266H868L851.5,213.06Z"/><path class="cls-5" d="M1054.25,170.29V270.2q0,17-7.23,29.41a46.82,46.82,0,0,1-20.76,18.92q-13.51,6.51-32,6.5-27.9,0-43.93-14.47T934,270.93V170.29h37V271.67q.63,25.05,23.28,25.06,11.41,0,17.29-6.3t5.88-20.44v-99.7Z"/><path class="cls-5" d="M1133.93,268.94H1114v54h-36.8V170.29h60.08q27.15,0,42.46,12t15.3,34q0,15.91-6.45,26.39t-20.18,17l31.87,61.63v1.57h-39.42ZM1114,240.64h23.28q10.47,0,15.77-5.52t5.3-15.4q0-9.87-5.35-15.5t-15.72-5.62H1114Z"/><path class="cls-5" d="M1256.49,322.93h-36.7V170.29h36.7Z"/><path class="cls-5" d="M1405.57,271.25a55.78,55.78,0,0,1-8.6,28.15,51.87,51.87,0,0,1-22.07,18.92q-14.2,6.72-32.45,6.71-30.09,0-47.38-19.6t-17.3-55.36v-7.55q0-22.43,7.81-39.26a59.18,59.18,0,0,1,22.49-26q14.67-9.16,34-9.17,27.79,0,44.67,14.62T1405.88,223h-36.69q-.42-13.94-7-20T1342,196.92q-13.72,0-20.12,10.27T1315.2,240v10.8q0,24.42,6.13,34.91t21.12,10.48q12.69,0,19.4-6t7.13-19Z"/><path class="cls-5" d="M1462.18,322.93h-36.69V170.29h36.69Z"/><path class="cls-5" d="M1617,249.76q0,22.32-8.28,39.52a61.16,61.16,0,0,1-23.53,26.47Q1570,325,1550.45,325t-34.59-9a61.11,61.11,0,0,1-23.54-25.64q-8.44-16.67-8.86-38.26v-8.6q0-22.42,8.23-39.57a61.14,61.14,0,0,1,23.59-26.48q15.36-9.33,35-9.33,19.4,0,34.6,9.23a62.19,62.19,0,0,1,23.64,26.26q8.44,17,8.54,39Zm-37.42-6.4q0-22.74-7.6-34.54T1550.24,197q-27.67,0-29.25,41.52l-.1,11.22q0,22.42,7.44,34.49t22.12,12.06q14,0,21.49-11.85t7.66-34.07Z"/><path class="cls-2" d="M600,477.86V387.1H626.8a42.1,42.1,0,0,1,21.35,5.36,36.66,36.66,0,0,1,14.43,15.21,48.28,48.28,0,0,1,5.11,22.57v4.55q0,12.9-5.14,22.69a36.25,36.25,0,0,1-14.65,15.09,44,44,0,0,1-21.79,5.29Zm15.77-78v65.45h10.29q12.41,0,19-7.76t6.77-22.28v-5.05q0-14.78-6.43-22.57t-18.63-7.79Z"/><path class="cls-2" d="M711.64,479.11q-14.4,0-23.35-9.07t-8.94-24.15V444a40.55,40.55,0,0,1,3.89-18,29.78,29.78,0,0,1,10.94-12.38,29,29,0,0,1,15.71-4.42q13.79,0,21.29,8.79t7.51,24.87v6.11H694.62q.69,8.35,5.58,13.22A16.74,16.74,0,0,0,712.51,467a20.53,20.53,0,0,0,17-8.42l8.16,7.79a27.24,27.24,0,0,1-10.81,9.39A33.91,33.91,0,0,1,711.64,479.11Zm-1.81-57.79a12.76,12.76,0,0,0-10.07,4.37q-3.82,4.37-4.89,12.15h28.86v-1.12q-.5-7.61-4.05-11.5T709.83,421.32Z"/><path class="cls-2" d="M788.25,459.54a6.87,6.87,0,0,0-3.33-6.17q-3.34-2.13-11.07-3.74a57,57,0,0,1-12.9-4.12Q749.6,440,749.6,429.61q0-8.72,7.36-14.58t18.7-5.86q12.09,0,19.54,6a19,19,0,0,1,7.45,15.52H787.5a9.34,9.34,0,0,0-3.24-7.26,12.43,12.43,0,0,0-8.6-2.9,13.42,13.42,0,0,0-8.14,2.31,7.27,7.27,0,0,0-3.14,6.17,6.11,6.11,0,0,0,2.93,5.42q2.93,1.93,11.84,3.9a55.89,55.89,0,0,1,14,4.68,19.78,19.78,0,0,1,7.55,6.51,16.64,16.64,0,0,1,2.46,9.23,17.57,17.57,0,0,1-7.54,14.74q-7.54,5.64-19.76,5.64a35,35,0,0,1-14.78-3,24.38,24.38,0,0,1-10.1-8.23,19.47,19.47,0,0,1-3.61-11.28h14.71a10.71,10.71,0,0,0,4,8.26q3.74,2.89,9.91,2.9c4,0,7-.76,9.1-2.28A7,7,0,0,0,788.25,459.54Z"/><path class="cls-2" d="M846,479.11q-14.4,0-23.35-9.07t-8.94-24.15V444a40.55,40.55,0,0,1,3.89-18,29.78,29.78,0,0,1,10.94-12.38,29,29,0,0,1,15.71-4.42q13.79,0,21.29,8.79t7.51,24.87v6.11H829q.69,8.35,5.58,13.22A16.76,16.76,0,0,0,846.91,467a20.53,20.53,0,0,0,17-8.42l8.16,7.79a27.24,27.24,0,0,1-10.81,9.39A33.91,33.91,0,0,1,846,479.11Zm-1.81-57.79a12.76,12.76,0,0,0-10.07,4.37q-3.82,4.37-4.89,12.15h28.86v-1.12q-.5-7.61-4-11.5T844.23,421.32Z"/><path class="cls-2" d="M898.9,410.41l.44,7.8q7.47-9,19.63-9,21.07,0,21.45,24.12v44.57H925.27V434.17q0-6.42-2.77-9.51t-9.07-3.09q-9.16,0-13.66,8.29v48H884.63V410.41Z"/><path class="cls-2" d="M979.63,458.66l14.27-48.25h15.65l-23.38,67.45H973l-23.56-67.45h15.71Z"/><path class="cls-2" d="M1015.22,443.52a39.75,39.75,0,0,1,3.93-17.86,28.75,28.75,0,0,1,11-12.22,31.09,31.09,0,0,1,16.34-4.27q13.65,0,22.16,8.79t9.19,23.31l.07,3.56a40,40,0,0,1-3.84,17.82,28.29,28.29,0,0,1-11,12.16,31.29,31.29,0,0,1-16.49,4.3q-14.27,0-22.84-9.51t-8.58-25.34Zm15.15,1.31q0,10.41,4.3,16.3a14,14,0,0,0,12,5.89,13.84,13.84,0,0,0,11.94-6q4.28-6,4.27-17.51,0-10.23-4.39-16.21a14.81,14.81,0,0,0-23.72-.1Q1030.38,433.11,1030.37,444.83Z"/><path class="cls-2" d="M1106.86,477.86h-15.15V382.11h15.15Z"/><path class="cls-2" d="M1147.13,458.66l14.28-48.25h15.64l-23.37,67.45h-13.16L1117,410.41h15.71Z"/><path class="cls-2" d="M1215.39,479.11q-14.4,0-23.34-9.07t-9-24.15V444a40.42,40.42,0,0,1,3.9-18,29.64,29.64,0,0,1,10.94-12.38,28.9,28.9,0,0,1,15.71-4.42q13.77,0,21.28,8.79t7.52,24.87v6.11h-44.08q.69,8.35,5.58,13.22a16.76,16.76,0,0,0,12.31,4.86,20.52,20.52,0,0,0,17-8.42l8.17,7.79a27.34,27.34,0,0,1-10.82,9.39A33.91,33.91,0,0,1,1215.39,479.11Zm-1.81-57.79a12.74,12.74,0,0,0-10.06,4.37q-3.84,4.37-4.9,12.15h28.86v-1.12q-.49-7.61-4-11.5T1213.58,421.32Z"/><path class="cls-2" d="M1251.36,443.64q0-15.58,7.23-25a23.18,23.18,0,0,1,19.39-9.44q10.73,0,17.33,7.48V382.11h15.15v95.75h-13.72l-.75-7q-6.79,8.24-18.14,8.23a23.06,23.06,0,0,1-19.17-9.54Q1251.36,460,1251.36,443.64Zm15.15,1.31q0,10.29,4,16.05a12.83,12.83,0,0,0,11.25,5.77q9.29,0,13.59-8.29v-28.8q-4.18-8.12-13.47-8.11a13,13,0,0,0-11.34,5.83Q1266.51,433.24,1266.51,445Z"/><path class="cls-2" d="M1323.42,443.52a39.75,39.75,0,0,1,3.93-17.86,28.75,28.75,0,0,1,11-12.22,31.09,31.09,0,0,1,16.34-4.27q13.65,0,22.16,8.79t9.19,23.31l.06,3.56a40,40,0,0,1-3.83,17.82,28.29,28.29,0,0,1-11,12.16,31.31,31.31,0,0,1-16.49,4.3q-14.28,0-22.85-9.51t-8.57-25.34Zm15.15,1.31q0,10.41,4.3,16.3a14,14,0,0,0,12,5.89,13.84,13.84,0,0,0,11.94-6q4.28-6,4.27-17.51,0-10.23-4.4-16.21a14.81,14.81,0,0,0-23.72-.1Q1338.58,433.11,1338.57,444.83Z"/><path class="cls-2" d="M1434.26,424.25a37.79,37.79,0,0,0-6.17-.49q-10.41,0-14,8v46.13h-15.15V410.41h14.47l.37,7.55q5.49-8.79,15.21-8.79a14.21,14.21,0,0,1,5.36.87Z"/></g></g></svg>