<?xml version="1.0" encoding="UTF-8" standalone="no"?>
<svg
   xmlns:dc="http://purl.org/dc/elements/1.1/"
   xmlns:cc="http://creativecommons.org/ns#"
   xmlns:rdf="http://www.w3.org/1999/02/22-rdf-syntax-ns#"
   xmlns:svg="http://www.w3.org/2000/svg"
   xmlns="http://www.w3.org/2000/svg"
   xmlns:sodipodi="http://sodipodi.sourceforge.net/DTD/sodipodi-0.dtd"
   xmlns:inkscape="http://www.inkscape.org/namespaces/inkscape"
   id="Camada_1"
   data-name="Camada 1"
   viewBox="0 0 452.71334 84.189529"
   version="1.1"
   sodipodi:docname="logo.svg"
   width="452.71332"
   height="84.189529"
   inkscape:version="0.92.4 (5da689c313, 2019-01-14)">
  <metadata
     id="metadata3970">
    <rdf:RDF>
      <cc:Work
         rdf:about="">
        <dc:format>image/svg+xml</dc:format>
        <dc:type
           rdf:resource="http://purl.org/dc/dcmitype/StillImage" />
      </cc:Work>
    </rdf:RDF>
  </metadata>
  <sodipodi:namedview
     pagecolor="#ffffff"
     bordercolor="#666666"
     borderopacity="1"
     objecttolerance="10"
     gridtolerance="10"
     guidetolerance="10"
     inkscape:pageopacity="0"
     inkscape:pageshadow="2"
     inkscape:window-width="1920"
     inkscape:window-height="1016"
     id="namedview3968"
     showgrid="false"
     inkscape:snap-bbox="true"
     inkscape:bbox-paths="true"
     inkscape:bbox-nodes="true"
     inkscape:snap-bbox-edge-midpoints="false"
     showguides="true"
     inkscape:guide-bbox="true"
     inkscape:zoom="2"
     inkscape:cx="264.48381"
     inkscape:cy="61.418767"
     inkscape:window-x="0"
     inkscape:window-y="27"
     inkscape:window-maximized="1"
     inkscape:current-layer="Camada_1" />
  <defs
     id="defs3885">
    <style
       id="style3883">.cls-1{fill:#1577b7;}.cls-2{fill:#48555e;}</style>
  </defs>
  <title
     id="title3887">logo</title>
  <rect
     id="rect4013"
     width="452.71332"
     height="84.189529"
     x="0"
     y="0"
     style="fill:none;stroke-width:1.00849891" />
  <g
     id="g4011"
     transform="matrix(0.66666661,0,0,0.66666661,12.016975,12.18316)">
    <path
       id="path3889"
       transform="translate(-397.39,-294.64)"
       d="M 592.54,381.57 V 365.2 h 5.15 a 6.76,6.76 0 0 1 7.11,7.08 v 2.23 a 6.73,6.73 0 0 1 -7.11,7.06 z M 594.76,367 v 12.89 h 2.93 a 4.49,4.49 0 0 0 3.58,-1.5 5.55,5.55 0 0 0 1.31,-3.83 v -2.26 a 5.55,5.55 0 0 0 -1.31,-3.81 4.52,4.52 0 0 0 -3.58,-1.49 z"
       class="cls-1"
       inkscape:connector-curvature="0"
       style="fill:#1577b7" />
    <path
       id="path3891"
       transform="translate(-397.39,-294.64)"
       d="m 618.22,374 h -6.72 v 5.86 h 7.87 v 1.73 H 609.28 V 365.2 h 10 v 1.8 h -7.78 v 5.29 h 6.72 z"
       class="cls-1"
       inkscape:connector-curvature="0"
       style="fill:#1577b7" />
    <path
       id="path3893"
       transform="translate(-397.39,-294.64)"
       d="m 631.85,377.44 a 2.45,2.45 0 0 0 -0.79,-1.86 6.58,6.58 0 0 0 -2.81,-1.28 9.51,9.51 0 0 1 -3.9,-1.82 3.85,3.85 0 0 1 -1.39,-3 4,4 0 0 1 1.5,-3.2 5.84,5.84 0 0 1 3.91,-1.28 5.75,5.75 0 0 1 4.12,1.46 4.46,4.46 0 0 1 1.49,3.42 v 0.08 h -2.12 a 3,3 0 0 0 -1,-2.31 3.49,3.49 0 0 0 -2.49,-0.91 3.43,3.43 0 0 0 -2.38,0.75 2.52,2.52 0 0 0 -0.82,2 2.18,2.18 0 0 0 0.9,1.78 8.31,8.31 0 0 0 2.94,1.25 8.45,8.45 0 0 1 3.77,1.89 4.11,4.11 0 0 1 1.29,3.08 3.81,3.81 0 0 1 -1.56,3.18 6.47,6.47 0 0 1 -4.06,1.2 6.94,6.94 0 0 1 -4.19,-1.32 4.07,4.07 0 0 1 -1.76,-3.55 v -0.07 h 2.12 a 2.75,2.75 0 0 0 1.17,2.38 4.48,4.48 0 0 0 2.64,0.83 4,4 0 0 0 2.49,-0.71 2.29,2.29 0 0 0 0.93,-1.99 z"
       class="cls-1"
       inkscape:connector-curvature="0"
       style="fill:#1577b7" />
    <path
       id="path3895"
       transform="translate(-397.39,-294.64)"
       d="m 647.29,374 h -6.72 v 5.86 h 7.87 v 1.73 H 638.35 V 365.2 h 10 v 1.8 h -7.74 v 5.29 h 6.72 z"
       class="cls-1"
       inkscape:connector-curvature="0"
       style="fill:#1577b7" />
    <path
       id="path3897"
       transform="translate(-397.39,-294.64)"
       d="m 664.58,381.57 h -2.22 l -7.87,-12.5 h -0.07 v 12.47 h -2.21 V 365.2 h 2.21 l 7.88,12.49 h 0.06 V 365.2 h 2.22 z"
       class="cls-1"
       inkscape:connector-curvature="0"
       style="fill:#1577b7" />
    <path
       id="path3899"
       transform="translate(-397.39,-294.64)"
       d="m 674.53,377.28 0.37,1.35 h 0.1 l 0.37,-1.35 4.22,-12.08 H 682 l -6.09,16.37 H 674 l -6.1,-16.37 h 2.4 z"
       class="cls-1"
       inkscape:connector-curvature="0"
       style="fill:#1577b7" />
    <path
       id="path3901"
       transform="translate(-397.39,-294.64)"
       d="m 697.62,374.85 a 7,7 0 0 1 -1.86,5 6.32,6.32 0 0 1 -4.83,2 6,6 0 0 1 -4.66,-2 7.12,7.12 0 0 1 -1.79,-5 v -2.92 a 7.15,7.15 0 0 1 1.79,-5 6,6 0 0 1 4.66,-2 6.32,6.32 0 0 1 4.83,2 7,7 0 0 1 1.86,5 z m -2.22,-2.94 a 5.5,5.5 0 0 0 -1.21,-3.68 4,4 0 0 0 -3.26,-1.44 3.76,3.76 0 0 0 -3.09,1.44 5.74,5.74 0 0 0 -1.15,3.68 v 2.94 a 5.78,5.78 0 0 0 1.15,3.7 3.76,3.76 0 0 0 3.09,1.44 4.05,4.05 0 0 0 3.27,-1.43 5.59,5.59 0 0 0 1.2,-3.71 z"
       class="cls-1"
       inkscape:connector-curvature="0"
       style="fill:#1577b7" />
    <path
       id="path3903"
       transform="translate(-397.39,-294.64)"
       d="m 704.17,379.84 h 8 v 1.73 H 702 V 365.2 h 2.22 z"
       class="cls-1"
       inkscape:connector-curvature="0"
       style="fill:#1577b7" />
    <path
       id="path3905"
       transform="translate(-397.39,-294.64)"
       d="m 718.76,377.28 0.37,1.35 h 0.07 l 0.37,-1.35 4.23,-12.08 h 2.39 l -6.08,16.37 h -1.9 l -6.08,-16.37 h 2.41 z"
       class="cls-1"
       inkscape:connector-curvature="0"
       style="fill:#1577b7" />
    <path
       id="path3907"
       transform="translate(-397.39,-294.64)"
       d="m 738.43,374 h -6.72 v 5.86 h 7.87 v 1.73 H 729.5 V 365.2 h 10 v 1.8 h -7.74 v 5.29 h 6.72 z"
       class="cls-1"
       inkscape:connector-curvature="0"
       style="fill:#1577b7" />
    <path
       id="path3909"
       transform="translate(-397.39,-294.64)"
       d="M 743.35,381.57 V 365.2 h 5.14 a 6.76,6.76 0 0 1 7.11,7.08 v 2.23 a 6.73,6.73 0 0 1 -7.11,7.06 z M 745.56,367 v 12.89 h 2.93 a 4.49,4.49 0 0 0 3.58,-1.5 5.55,5.55 0 0 0 1.31,-3.83 v -2.26 a 5.55,5.55 0 0 0 -1.31,-3.81 4.52,4.52 0 0 0 -3.58,-1.49 z"
       class="cls-1"
       inkscape:connector-curvature="0"
       style="fill:#1577b7" />
    <path
       id="path3911"
       transform="translate(-397.39,-294.64)"
       d="m 772.58,374.85 a 7,7 0 0 1 -1.86,5 6.32,6.32 0 0 1 -4.83,2 6,6 0 0 1 -4.65,-2 7.07,7.07 0 0 1 -1.79,-5 v -2.92 a 7.11,7.11 0 0 1 1.79,-5 5.94,5.94 0 0 1 4.65,-2 6.32,6.32 0 0 1 4.83,2 7,7 0 0 1 1.86,5 z m -2.21,-2.94 a 5.55,5.55 0 0 0 -1.21,-3.68 4.06,4.06 0 0 0 -3.27,-1.44 3.74,3.74 0 0 0 -3.08,1.44 5.68,5.68 0 0 0 -1.15,3.68 v 2.94 a 5.72,5.72 0 0 0 1.15,3.7 3.74,3.74 0 0 0 3.08,1.44 4,4 0 0 0 3.27,-1.43 5.59,5.59 0 0 0 1.21,-3.71 z"
       class="cls-1"
       inkscape:connector-curvature="0"
       style="fill:#1577b7" />
    <path
       id="path3913"
       transform="translate(-397.39,-294.64)"
       d="m 779.14,374.47 v 7.09 h -2.22 v -16.35 h 5.6 a 6.23,6.23 0 0 1 4.1,1.19 4.28,4.28 0 0 1 1.42,3.46 3.69,3.69 0 0 1 -0.66,2.19 4.44,4.44 0 0 1 -1.92,1.49 3.36,3.36 0 0 1 1.94,1.46 4.61,4.61 0 0 1 0.59,2.43 v 1.54 a 5.19,5.19 0 0 0 0.17,1.37 2,2 0 0 0 0.59,1 v 0.27 h -2.28 a 1.83,1.83 0 0 1 -0.57,-1.12 9.67,9.67 0 0 1 -0.12,-1.53 v -1.5 a 3,3 0 0 0 -0.77,-2.13 2.75,2.75 0 0 0 -2.08,-0.81 z m 0,-1.74 h 3.16 a 4.08,4.08 0 0 0 2.7,-0.73 2.71,2.71 0 0 0 0.82,-2.17 2.79,2.79 0 0 0 -0.8,-2.14 3.51,3.51 0 0 0 -2.5,-0.76 h -3.38 z"
       class="cls-1"
       inkscape:connector-curvature="0"
       style="fill:#1577b7" />
    <path
       id="path3915"
       transform="translate(-397.39,-294.64)"
       d="M 809.74,375.9 810,378 h 0.07 l 0.38,-2.15 2.9,-10.7 h 2.17 l 2.92,10.7 0.38,2.19 h 0.07 l 0.31,-2.19 2.33,-10.7 H 824 l -4,16.37 h -2 l -3.27,-11.35 -0.24,-1.48 h -0.07 l -0.24,1.48 -3.31,11.35 h -2 L 805,365.2 h 2.39 z"
       class="cls-1"
       inkscape:connector-curvature="0"
       style="fill:#1577b7" />
    <path
       id="path3917"
       transform="translate(-397.39,-294.64)"
       d="m 836.35,374 h -6.72 v 5.86 h 7.87 v 1.73 H 827.42 V 365.2 h 10 v 1.8 h -7.74 v 5.29 h 6.72 z"
       class="cls-1"
       inkscape:connector-curvature="0"
       style="fill:#1577b7" />
    <path
       id="path3919"
       transform="translate(-397.39,-294.64)"
       d="M 841.27,381.57 V 365.2 h 5.34 a 6.46,6.46 0 0 1 4,1.11 3.94,3.94 0 0 1 1.45,3.32 3,3 0 0 1 -0.65,1.9 4.11,4.11 0 0 1 -1.74,1.27 3.79,3.79 0 0 1 2.55,1.4 4.3,4.3 0 0 1 0.94,2.75 4.17,4.17 0 0 1 -1.46,3.43 6.11,6.11 0 0 1 -4,1.19 z m 2.21,-9.41 h 3.59 a 2.92,2.92 0 0 0 2,-0.68 2.72,2.72 0 0 0 -0.06,-3.87 3.82,3.82 0 0 0 -2.41,-0.66 h -3.13 z m 0,1.73 v 5.95 h 4.27 a 3.43,3.43 0 0 0 2.36,-0.75 2.72,2.72 0 0 0 0.89,-2.09 2.94,2.94 0 0 0 -0.86,-2.19 3.4,3.4 0 0 0 -2.31,-0.89 h -4.3 z"
       class="cls-1"
       inkscape:connector-curvature="0"
       style="fill:#1577b7" />
    <path
       id="path3921"
       transform="translate(-397.39,-294.64)"
       d="m 868.49,362.14 v 22.5 H 862 a 1.78,1.78 0 0 1 -1.78,-1.78 v -1.78 h 4.74 v -15.39 h -4.76 v -1.78 a 1.78,1.78 0 0 1 1.78,-1.77 z"
       class="cls-2"
       inkscape:connector-curvature="0"
       style="fill:#48555e" />
    <path
       id="path3923"
       transform="translate(-397.39,-294.64)"
       d="m 576.05,384.64 v -22.5 h 6.51 a 1.78,1.78 0 0 1 1.78,1.77 v 1.78 h -4.74 v 15.39 h 4.74 v 1.78 a 1.78,1.78 0 0 1 -1.78,1.78 z"
       class="cls-2"
       inkscape:connector-curvature="0"
       style="fill:#48555e" />
    <path
       id="path3925"
       transform="translate(-397.39,-294.64)"
       d="m 487.39,294.64 v 90 h -26.05 a 7.11,7.11 0 0 1 -7.11,-7.11 v -7.11 h 18.95 v -61.57 h -18.95 v -7.11 a 7.1,7.1 0 0 1 7.11,-7.1 z"
       class="cls-2"
       inkscape:connector-curvature="0"
       style="fill:#48555e" />
    <path
       id="path3927"
       transform="translate(-397.39,-294.64)"
       d="m 397.39,384.64 v -90 h 26.05 a 7.1,7.1 0 0 1 7.11,7.1 v 7.11 H 411.6 v 61.57 h 18.95 v 7.11 a 7.11,7.11 0 0 1 -7.11,7.11 z"
       class="cls-2"
       inkscape:connector-curvature="0"
       style="fill:#48555e" />
    <path
       id="path3929"
       transform="translate(-397.39,-294.64)"
       d="m 430.55,332.53 v 33.16 h -7.11 a 7.1,7.1 0 0 1 -7.1,-7.11 v -26.05 z"
       class="cls-1"
       inkscape:connector-curvature="0"
       style="fill:#1577b7" />
    <rect
       id="rect3931"
       height="33.16"
       width="14.21"
       y="37.889999"
       x="37.889999"
       class="cls-1"
       style="fill:#1577b7" />
    <path
       id="path3933"
       transform="translate(-397.39,-294.64)"
       d="m 461.34,313.58 h -45 v 14.21 h 37.89 v 18.95 h 7.11 a 7.1,7.1 0 0 0 7.1,-7.11 v -18.94 a 7.1,7.1 0 0 0 -7.1,-7.11 z"
       class="cls-1"
       inkscape:connector-curvature="0"
       style="fill:#1577b7" />
    <path
       id="path3935"
       transform="translate(-397.39,-294.64)"
       d="m 468.44,358.58 v 7.11 h -7.1 a 7.11,7.11 0 0 1 -7.11,-7.11 v -7.1 h 7.11 a 7.1,7.1 0 0 1 7.1,7.1 z"
       class="cls-1"
       inkscape:connector-curvature="0"
       style="fill:#1577b7" />
    <path
       id="path3937"
       transform="translate(-397.39,-294.64)"
       d="m 537.32,345.46 h 0.12 l 6.59,-20.4 h 9 v 29.15 h -6.77 v -18.78 h -0.12 l -6.42,18.8 h -4.55 l -6.31,-18.52 h -0.12 v 18.5 h -6.77 v -29.15 h 8.87 z"
       class="cls-2"
       inkscape:connector-curvature="0"
       style="fill:#48555e" />
    <path
       id="path3939"
       transform="translate(-397.39,-294.64)"
       d="m 574.28,348.55 h -8.68 l -1.68,5.66 h -7.13 l 9.51,-29.15 h 3.63 v 0 0 h 3.62 l 9.54,29.15 H 576 Z m -7.11,-5.21 h 5.54 l -2.72,-9 h -0.12 z"
       class="cls-2"
       inkscape:connector-curvature="0"
       style="fill:#48555e" />
    <path
       id="path3941"
       transform="translate(-397.39,-294.64)"
       d="M 609.77,325.06 V 344 a 9.74,9.74 0 0 1 -3.33,7.84 14.75,14.75 0 0 1 -17.4,0 9.72,9.72 0 0 1 -3.35,-7.84 v -18.9 h 6.79 V 344 a 5.52,5.52 0 0 0 1.4,4.09 5.31,5.31 0 0 0 3.89,1.38 5.19,5.19 0 0 0 3.83,-1.37 5.55,5.55 0 0 0 1.4,-4.1 v -18.9 z"
       class="cls-2"
       inkscape:connector-curvature="0"
       style="fill:#48555e" />
    <path
       id="path3943"
       transform="translate(-397.39,-294.64)"
       d="m 622.05,343 v 11.17 h -6.77 v -29.11 h 10.15 a 12.6,12.6 0 0 1 8,2.34 7.72,7.72 0 0 1 3,6.41 6.39,6.39 0 0 1 -1.19,3.88 8.51,8.51 0 0 1 -3.52,2.65 6.5,6.5 0 0 1 3.86,2.53 7.84,7.84 0 0 1 1.17,4.42 v 1.84 a 11.4,11.4 0 0 0 0.34,2.6 3.43,3.43 0 0 0 1.18,2.08 v 0.4 h -7 a 3.28,3.28 0 0 1 -1,-2.18 19.38,19.38 0 0 1 -0.24,-2.94 v -1.76 a 4.35,4.35 0 0 0 -1.1,-3.19 4.4,4.4 0 0 0 -3.23,-1.1 z m 0,-5.21 h 3.42 a 4.68,4.68 0 0 0 3.13,-0.93 3.33,3.33 0 0 0 1.08,-2.67 3.87,3.87 0 0 0 -1.11,-2.88 4.33,4.33 0 0 0 -3.14,-1.09 h -3.38 z"
       class="cls-2"
       inkscape:connector-curvature="0"
       style="fill:#48555e" />
    <path
       id="path3945"
       transform="translate(-397.39,-294.64)"
       d="m 649.63,354.21 h -6.75 v -29.15 h 6.75 z"
       class="cls-2"
       inkscape:connector-curvature="0"
       style="fill:#48555e" />
    <path
       id="path3947"
       transform="translate(-397.39,-294.64)"
       d="m 678.11,344.38 v 0.12 q 0.08,5 -2.81,7.56 -2.89,2.56 -8.21,2.58 a 11.3,11.3 0 0 1 -12,-12 v -6.09 a 12,12 0 0 1 3.15,-8.64 11,11 0 0 1 8.34,-3.31 q 5.55,0 8.59,2.58 3.04,2.58 3,7.51 l -0.06,0.12 h -6.59 a 5.39,5.39 0 0 0 -1.14,-3.85 5.12,5.12 0 0 0 -3.75,-1.16 3.94,3.94 0 0 0 -3.5,1.84 8.67,8.67 0 0 0 -1.22,4.87 v 6.13 a 8.21,8.21 0 0 0 1.34,4.91 4.48,4.48 0 0 0 3.84,1.84 4.31,4.31 0 0 0 3.36,-1.16 5.83,5.83 0 0 0 1,-3.89 z"
       class="cls-2"
       inkscape:connector-curvature="0"
       style="fill:#48555e" />
    <path
       id="path3949"
       transform="translate(-397.39,-294.64)"
       d="m 690.09,354.21 h -6.75 v -29.15 h 6.75 z"
       class="cls-2"
       inkscape:connector-curvature="0"
       style="fill:#48555e" />
    <path
       id="path3951"
       transform="translate(-397.39,-294.64)"
       d="m 720.41,342.26 a 12.21,12.21 0 0 1 -3.41,8.88 11.92,11.92 0 0 1 -8.92,3.5 11.89,11.89 0 0 1 -12.44,-12.38 V 337 a 12.15,12.15 0 0 1 3.43,-8.87 13.19,13.19 0 0 1 17.9,0 12.16,12.16 0 0 1 3.44,8.87 z M 713.66,337 a 8.42,8.42 0 0 0 -1.47,-5.12 5.35,5.35 0 0 0 -8.35,0 8.47,8.47 0 0 0 -1.45,5.13 v 5.29 a 8.53,8.53 0 0 0 1.47,5.17 4.93,4.93 0 0 0 4.22,2 4.81,4.81 0 0 0 4.12,-2 8.53,8.53 0 0 0 1.46,-5.17 z"
       class="cls-2"
       inkscape:connector-curvature="0"
       style="fill:#48555e" />
    <path
       id="path3953"
       transform="translate(-397.39,-294.64)"
       d="m 743.57,343 v 11.17 H 736.8 V 325.06 H 747 a 12.64,12.64 0 0 1 8,2.34 7.74,7.74 0 0 1 3,6.41 6.39,6.39 0 0 1 -1.19,3.88 8.48,8.48 0 0 1 -3.51,2.65 6.51,6.51 0 0 1 3.85,2.53 7.84,7.84 0 0 1 1.17,4.42 v 1.84 a 12,12 0 0 0 0.34,2.6 3.43,3.43 0 0 0 1.18,2.08 v 0.4 h -7 a 3.28,3.28 0 0 1 -1,-2.18 19.38,19.38 0 0 1 -0.24,-2.94 v -1.76 a 4.31,4.31 0 0 0 -1.1,-3.19 4.38,4.38 0 0 0 -3.22,-1.1 z m 0,-5.21 H 747 a 4.65,4.65 0 0 0 3.12,-0.93 3.33,3.33 0 0 0 1.08,-2.67 3.87,3.87 0 0 0 -1.11,-2.88 4.3,4.3 0 0 0 -3.13,-1.09 h -3.39 z"
       class="cls-2"
       inkscape:connector-curvature="0"
       style="fill:#48555e" />
    <path
       id="path3955"
       transform="translate(-397.39,-294.64)"
       d="m 771.13,354.21 h -6.75 v -5.68 h 6.75 z"
       class="cls-2"
       inkscape:connector-curvature="0"
       style="fill:#48555e" />
    <path
       id="path3957"
       transform="translate(-397.39,-294.64)"
       d="m 811.84,354.21 h -6.75 l -10.68,-18.34 h -0.12 v 18.3 h -6.77 v -29.11 h 6.77 L 805,343.38 h 0.12 v -18.32 h 6.75 z"
       class="cls-2"
       inkscape:connector-curvature="0"
       style="fill:#48555e" />
    <path
       id="path3959"
       transform="translate(-397.39,-294.64)"
       d="M 841.4,325.06 V 344 a 9.76,9.76 0 0 1 -3.32,7.84 12.91,12.91 0 0 1 -8.67,2.84 13.05,13.05 0 0 1 -8.74,-2.84 9.75,9.75 0 0 1 -3.34,-7.84 v -18.9 h 6.79 V 344 a 5.52,5.52 0 0 0 1.4,4.09 5.31,5.31 0 0 0 3.89,1.38 5.19,5.19 0 0 0 3.83,-1.37 5.55,5.55 0 0 0 1.37,-4.1 v -18.9 z"
       class="cls-2"
       inkscape:connector-curvature="0"
       style="fill:#48555e" />
    <path
       id="path3961"
       transform="translate(-397.39,-294.64)"
       d="m 871.22,354.21 h -6.74 L 853.8,335.87 h -0.12 v 18.3 h -6.77 v -29.11 h 6.77 l 10.68,18.32 h 0.12 v -18.32 h 6.74 z"
       class="cls-2"
       inkscape:connector-curvature="0"
       style="fill:#48555e" />
    <path
       id="path3963"
       transform="translate(-397.39,-294.64)"
       d="M 893.94,341.74 H 883.66 V 349 H 896 v 5.2 H 876.9 V 325.06 H 896 v 5.2 h -12.34 v 6.27 h 10.28 z"
       class="cls-2"
       inkscape:connector-curvature="0"
       style="fill:#48555e" />
    <path
       id="path3965"
       transform="translate(-397.39,-294.64)"
       d="m 915.85,346.48 a 2.91,2.91 0 0 0 -1,-2.39 13.47,13.47 0 0 0 -3.71,-1.77 28.37,28.37 0 0 1 -8.06,-3.76 6.76,6.76 0 0 1 -2.63,-5.73 7,7 0 0 1 3.06,-5.93 14.8,14.8 0 0 1 15.83,0.07 7.57,7.57 0 0 1 2.94,6.58 v 0.12 h -6.57 a 3.68,3.68 0 0 0 -1.12,-3 5.23,5.23 0 0 0 -3.39,-0.93 4.36,4.36 0 0 0 -2.9,0.9 2.81,2.81 0 0 0 -1.06,2.23 2.38,2.38 0 0 0 1.09,2.05 21.45,21.45 0 0 0 4.08,1.93 21.66,21.66 0 0 1 7.67,3.67 7.29,7.29 0 0 1 2.6,5.92 7,7 0 0 1 -3,6 13.32,13.32 0 0 1 -8,2.18 14.56,14.56 0 0 1 -8.39,-2.34 q -3.43,-2.32 -3.33,-7.34 v -0.12 h 6.59 a 4.57,4.57 0 0 0 1.25,3.62 5.81,5.81 0 0 0 3.84,1.07 5,5 0 0 0 3.16,-0.84 2.72,2.72 0 0 0 1.05,-2.19 z"
       class="cls-2"
       inkscape:connector-curvature="0"
       style="fill:#48555e" />
  </g>
</svg>
