<svg id="Camada_1" data-name="Camada 1" xmlns="http://www.w3.org/2000/svg" xmlns:xlink="http://www.w3.org/1999/xlink" viewBox="0 0 241 90"><defs><style>.cls-1{fill:none;}.cls-2{fill:url(#Gradiente_sem_nome_28);}.cls-3{fill:url(#Gradiente_sem_nome_28-2);}.cls-4{fill:url(#Gradiente_sem_nome_28-3);}.cls-5{fill:#198cff;}.cls-6{fill:#3d4b66;}</style><linearGradient id="Gradiente_sem_nome_28" x1="30.57" y1="40.54" x2="30.57" y2="61.14" gradientUnits="userSpaceOnUse"><stop offset="0.5" stop-color="#26b7ff"/><stop offset="1" stop-color="#3df"/></linearGradient><linearGradient id="Gradiente_sem_nome_28-2" x1="42.24" y1="40.54" x2="42.24" y2="61.14" xlink:href="#Gradiente_sem_nome_28"/><linearGradient id="Gradiente_sem_nome_28-3" x1="18.89" y1="40.54" x2="18.89" y2="61.14" xlink:href="#Gradiente_sem_nome_28"/></defs><rect class="cls-1" width="241" height="90"/><rect class="cls-2" x="26.11" y="40.54" width="8.92" height="20.59"/><rect class="cls-3" x="37.78" y="40.54" width="8.92" height="20.59"/><rect class="cls-4" x="14.43" y="40.54" width="8.92" height="20.59"/><rect class="cls-5" x="14.43" y="28.86" width="32.27" height="8.92"/><path class="cls-6" d="M8.92,23.35v43.3H23.35v3.4a5.52,5.52,0,0,1-5.51,5.52H0V14.43H17.84A5.52,5.52,0,0,1,23.35,20v3.4Z"/><path class="cls-6" d="M52.22,66.65V23.35H37.78V20a5.52,5.52,0,0,1,5.52-5.52H61.14V75.57H43.3a5.52,5.52,0,0,1-5.52-5.52v-3.4Z"/><path class="cls-5" d="M75.57,66.65V53.14h4a6.25,6.25,0,0,1,3.17.8,5.45,5.45,0,0,1,2.15,2.26,7.17,7.17,0,0,1,.76,3.36v.68a7.13,7.13,0,0,1-.76,3.37,5.38,5.38,0,0,1-2.18,2.25,6.55,6.55,0,0,1-3.25.79ZM77.91,55v9.74h1.53a3.52,3.52,0,0,0,2.84-1.15,5.08,5.08,0,0,0,1-3.32v-.75a5.17,5.17,0,0,0-1-3.36A3.4,3.4,0,0,0,79.56,55Z"/><path class="cls-5" d="M92.18,66.83a4.64,4.64,0,0,1-3.47-1.35,4.87,4.87,0,0,1-1.33-3.59v-.28A5.93,5.93,0,0,1,88,58.93a4.27,4.27,0,0,1,4-2.5,4,4,0,0,1,3.17,1.3,5.59,5.59,0,0,1,1.12,3.71v.9H89.65a3,3,0,0,0,.83,2,2.48,2.48,0,0,0,1.83.72,3,3,0,0,0,2.52-1.25l1.22,1.16a4.05,4.05,0,0,1-1.61,1.4A5,5,0,0,1,92.18,66.83Zm-.27-8.6a1.91,1.91,0,0,0-1.5.65,3.36,3.36,0,0,0-.72,1.81H94v-.16a2.78,2.78,0,0,0-.6-1.72A1.92,1.92,0,0,0,91.91,58.23Z"/><path class="cls-5" d="M103.58,63.92a1,1,0,0,0-.5-.92,5.3,5.3,0,0,0-1.64-.55,8.17,8.17,0,0,1-1.92-.62,2.55,2.55,0,0,1-1.69-2.36,2.66,2.66,0,0,1,1.09-2.17,4.35,4.35,0,0,1,2.79-.87,4.43,4.43,0,0,1,2.9.89,2.81,2.81,0,0,1,1.11,2.31h-2.25a1.37,1.37,0,0,0-.48-1.08,1.84,1.84,0,0,0-1.28-.44,2,2,0,0,0-1.21.35,1.06,1.06,0,0,0-.47.92.9.9,0,0,0,.43.8,5.9,5.9,0,0,0,1.77.58,8.63,8.63,0,0,1,2.08.7,2.92,2.92,0,0,1,1.12,1,2.4,2.4,0,0,1,.37,1.37A2.62,2.62,0,0,1,104.67,66a4.75,4.75,0,0,1-2.94.84,5.1,5.1,0,0,1-2.19-.44A3.64,3.64,0,0,1,98,65.16a2.88,2.88,0,0,1-.53-1.68h2.18a1.6,1.6,0,0,0,.61,1.23,2.77,2.77,0,0,0,2.83.1A1,1,0,0,0,103.58,63.92Z"/><path class="cls-5" d="M112.18,66.83a4.64,4.64,0,0,1-3.47-1.35,4.88,4.88,0,0,1-1.34-3.59v-.28a6.07,6.07,0,0,1,.58-2.68,4.45,4.45,0,0,1,1.63-1.85,4.39,4.39,0,0,1,2.34-.65,4,4,0,0,1,3.17,1.3,5.59,5.59,0,0,1,1.11,3.71v.9h-6.55a3,3,0,0,0,.83,2,2.48,2.48,0,0,0,1.83.72,3,3,0,0,0,2.52-1.25l1.22,1.16a4.12,4.12,0,0,1-1.61,1.4A5.06,5.06,0,0,1,112.18,66.83Zm-.27-8.6a1.91,1.91,0,0,0-1.5.65,3.45,3.45,0,0,0-.73,1.81H114v-.16a2.78,2.78,0,0,0-.6-1.72A1.93,1.93,0,0,0,111.91,58.23Z"/><path class="cls-5" d="M120,56.61l.07,1.16A3.6,3.6,0,0,1,123,56.43c2.09,0,3.16,1.19,3.19,3.59v6.63H124v-6.5a2.11,2.11,0,0,0-.41-1.42,1.74,1.74,0,0,0-1.35-.46,2.18,2.18,0,0,0-2,1.24v7.14h-2.25v-10Z"/><path class="cls-5" d="M132.06,63.79l2.12-7.18h2.33l-3.48,10h-2l-3.5-10h2.33Z"/><path class="cls-5" d="M137.35,61.54a5.91,5.91,0,0,1,.59-2.66,4.27,4.27,0,0,1,1.64-1.82,4.63,4.63,0,0,1,2.43-.63,4.41,4.41,0,0,1,3.3,1.3,5.19,5.19,0,0,1,1.37,3.47v.53a5.93,5.93,0,0,1-.57,2.65,4.16,4.16,0,0,1-1.63,1.81,4.62,4.62,0,0,1-2.45.64,4.36,4.36,0,0,1-3.4-1.41,5.42,5.42,0,0,1-1.28-3.77Zm2.26.19a4.05,4.05,0,0,0,.64,2.43A2.08,2.08,0,0,0,142,65a2,2,0,0,0,1.77-.89,4.4,4.4,0,0,0,.64-2.6,4,4,0,0,0-.65-2.41,2.09,2.09,0,0,0-1.78-.9,2.07,2.07,0,0,0-1.75.88A4.35,4.35,0,0,0,139.61,61.73Z"/><path class="cls-5" d="M151,66.65h-2.26V52.4H151Z"/><path class="cls-5" d="M157,63.79l2.12-7.18h2.33l-3.48,10H156l-3.51-10h2.34Z"/><path class="cls-5" d="M167.14,66.83a4.68,4.68,0,0,1-3.48-1.35,4.91,4.91,0,0,1-1.33-3.59v-.28a6.07,6.07,0,0,1,.58-2.68,4.45,4.45,0,0,1,1.63-1.85,4.39,4.39,0,0,1,2.34-.65,4,4,0,0,1,3.17,1.3,5.59,5.59,0,0,1,1.11,3.71v.9h-6.55a3,3,0,0,0,.83,2,2.48,2.48,0,0,0,1.83.72,3,3,0,0,0,2.52-1.25L171,64.94a4.12,4.12,0,0,1-1.61,1.4A5.06,5.06,0,0,1,167.14,66.83Zm-.27-8.6a1.91,1.91,0,0,0-1.5.65,3.45,3.45,0,0,0-.73,1.81h4.3v-.16a2.72,2.72,0,0,0-.61-1.72A1.9,1.9,0,0,0,166.87,58.23Z"/><path class="cls-5" d="M172.49,61.56a6,6,0,0,1,1.08-3.73,3.41,3.41,0,0,1,2.88-1.4A3.29,3.29,0,0,1,179,57.54V52.4h2.25V66.65h-2l-.11-1a3.3,3.3,0,0,1-2.7,1.22,3.43,3.43,0,0,1-2.85-1.42A6.14,6.14,0,0,1,172.49,61.56Zm2.25.19a4.2,4.2,0,0,0,.59,2.39A1.93,1.93,0,0,0,177,65a2.12,2.12,0,0,0,2-1.24V59.48a2.09,2.09,0,0,0-2-1.21,1.92,1.92,0,0,0-1.69.87A4.62,4.62,0,0,0,174.74,61.75Z"/><path class="cls-5" d="M183.21,61.54a5.91,5.91,0,0,1,.59-2.66,4.27,4.27,0,0,1,1.64-1.82,4.63,4.63,0,0,1,2.43-.63,4.41,4.41,0,0,1,3.3,1.3,5.14,5.14,0,0,1,1.36,3.47v.53a5.93,5.93,0,0,1-.57,2.65,4.16,4.16,0,0,1-1.63,1.81,4.62,4.62,0,0,1-2.45.64,4.36,4.36,0,0,1-3.4-1.41,5.42,5.42,0,0,1-1.28-3.77Zm2.26.19a4.05,4.05,0,0,0,.64,2.43,2.08,2.08,0,0,0,1.78.87,2,2,0,0,0,1.77-.89,4.4,4.4,0,0,0,.64-2.6,4,4,0,0,0-.65-2.41,2.09,2.09,0,0,0-1.78-.9,2.07,2.07,0,0,0-1.75.88A4.35,4.35,0,0,0,185.47,61.73Z"/><path class="cls-5" d="M199.7,58.67a5.41,5.41,0,0,0-.91-.07,2.06,2.06,0,0,0-2.09,1.18v6.87h-2.25v-10h2.15l.05,1.12a2.55,2.55,0,0,1,2.27-1.3,2,2,0,0,1,.79.13Z"/><polygon class="cls-6" points="92.88 23.35 87.83 39.15 82.76 23.35 75.57 23.35 75.57 46.06 81.04 46.06 81.04 31.45 86.02 46.06 89.64 46.06 94.6 31.46 94.6 46.06 100.09 46.06 100.09 23.35 92.88 23.35"/><path class="cls-6" d="M116.75,41.82h-7.5l-1.31,4.25h-5.85l8.33-22.72h5.15L124,46.07h-5.88Zm-6.19-4.23h4.88L113,29.72Z"/><path class="cls-6" d="M143.16,23.35V38.22a8.51,8.51,0,0,1-1.08,4.37A6.86,6.86,0,0,1,139,45.41a11,11,0,0,1-4.76,1,9.38,9.38,0,0,1-6.54-2.16,7.66,7.66,0,0,1-2.43-5.89v-15h5.5V38.44c.07,2.48,1.22,3.73,3.47,3.73a3.36,3.36,0,0,0,2.57-.94,4.38,4.38,0,0,0,.88-3V23.35Z"/><path class="cls-6" d="M155,38h-3v8h-5.47V23.35h8.94a10,10,0,0,1,6.31,1.79,6.09,6.09,0,0,1,2.28,5.07,7.38,7.38,0,0,1-1,3.93,6.84,6.84,0,0,1-3,2.52l4.74,9.17v.24H159Zm-3-4.21h3.47a3.07,3.07,0,0,0,2.34-.82,3.16,3.16,0,0,0,.79-2.29,3.22,3.22,0,0,0-.79-2.31,3.07,3.07,0,0,0-2.34-.84h-3.47Z"/><path class="cls-6" d="M173.25,46.07h-5.46V23.35h5.46Z"/><path class="cls-6" d="M195.44,38.37a8.34,8.34,0,0,1-1.28,4.19,7.78,7.78,0,0,1-3.29,2.82,11.27,11.27,0,0,1-4.83,1,9,9,0,0,1-7-2.92q-2.56-2.91-2.57-8.24V34.1a13.8,13.8,0,0,1,1.16-5.84,8.82,8.82,0,0,1,3.35-3.87A9.32,9.32,0,0,1,186,23a9.81,9.81,0,0,1,6.65,2.18,8.62,8.62,0,0,1,2.85,6H190a4.08,4.08,0,0,0-1-3,4.34,4.34,0,0,0-3-.91,3.26,3.26,0,0,0-3,1.53,9.77,9.77,0,0,0-1,4.89v1.6a10.86,10.86,0,0,0,.91,5.2A3.34,3.34,0,0,0,186,42.09a4.23,4.23,0,0,0,2.89-.89A3.76,3.76,0,0,0,190,38.37Z"/><path class="cls-6" d="M203.86,46.07H198.4V23.35h5.46Z"/><path class="cls-6" d="M226.9,35.18a13.44,13.44,0,0,1-1.23,5.88,9.15,9.15,0,0,1-3.5,3.94,10.47,10.47,0,0,1-10.32,0,9.13,9.13,0,0,1-3.51-3.81A13.06,13.06,0,0,1,207,35.54V34.26a13.39,13.39,0,0,1,1.22-5.89,9.1,9.1,0,0,1,3.51-3.94,10.39,10.39,0,0,1,10.35,0,9.29,9.29,0,0,1,3.52,3.91,13,13,0,0,1,1.27,5.81Zm-5.57-1a9.6,9.6,0,0,0-1.13-5.14A3.62,3.62,0,0,0,217,27.33q-4.11,0-4.35,6.18l0,1.67a9.82,9.82,0,0,0,1.11,5.13A3.64,3.64,0,0,0,217,42.1a3.56,3.56,0,0,0,3.2-1.76,9.54,9.54,0,0,0,1.14-5.07Z"/></svg>