<svg xmlns="http://www.w3.org/2000/svg" viewBox="0 0 1631.88 552.78"><defs><style>.cls-1{fill:none;}.cls-2{fill:#2f4858;}.cls-3{fill:#4ea5d9;}.cls-4{fill:#fff;}.cls-5{fill:#23f0c7;}</style></defs><g id="Camada_2" data-name="Camada 2"><g id="Logo"><rect class="cls-1" width="1631.88" height="552.78"/><path class="cls-2" d="M593.91,124l39.23,110.78,39-110.78H713.5V276.74H685.07V162.92L643.84,276.74H622.23L581.11,163V276.74H552.78V124Z"/><path class="cls-2" d="M829.11,245.27H773.93l-10.49,31.47H730L786.83,124H816l57.17,152.74H839.7Zm-46.68-25.49h38.18l-19.2-57.18Z"/><path class="cls-2" d="M1001.26,124V224.6q0,25.08-15.68,39.66t-42.86,14.58q-26.75,0-42.48-14.16t-16-38.92V124h31.47V224.81q0,15,7.18,21.88t19.88,6.87q26.55,0,27-27.91V124Z"/><path class="cls-2" d="M1083.62,220.83h-25.08v55.91h-31.47V124h56.76q27.06,0,41.75,12.06t14.69,34.1q0,15.63-6.77,26.07T1113,212.85l33,62.42v1.47h-33.78Zm-25.08-25.5h25.39q11.85,0,18.36-6t6.5-16.63q0-10.8-6.13-17t-18.83-6.19h-25.29Z"/><path class="cls-2" d="M1197.65,276.74h-31.47V124h31.47Z"/><path class="cls-2" d="M1346.73,225.86q-1.79,24.66-18.21,38.82t-43.27,14.16q-29.37,0-46.21-19.77t-16.84-54.29v-9.34q0-22,7.76-38.82t22.19-25.75q14.43-9,33.52-9,26.43,0,42.59,14.16t18.68,39.76h-31.48q-1.15-14.79-8.23-21.45t-21.56-6.66q-15.74,0-23.55,11.27t-8,35v11.54q0,24.77,7.5,36.19t23.66,11.44q14.58,0,21.77-6.66t8.23-20.62Z"/><path class="cls-2" d="M1400.86,276.74h-31.47V124h31.47Z"/><path class="cls-2" d="M1555.49,203.83q0,22.56-8,39.55t-22.82,26.23q-14.85,9.22-34,9.23-19,0-33.89-9.13t-23.08-26.06q-8.18-17-8.28-39v-7.55q0-22.56,8.13-39.71t23-26.33q14.85-9.18,33.94-9.18t33.94,9.18q14.83,9.18,23,26.33t8.13,39.6Zm-31.89-6.92q0-24-8.6-36.51t-24.55-12.48q-15.84,0-24.44,12.32t-8.71,36.14v7.45q0,23.4,8.6,36.3t24.76,12.9q15.84,0,24.34-12.43t8.6-36.24Z"/><path class="cls-3" d="M580.13,399.84l1.81,12.44,2.66-11.21,18.66-65.83h10.5L632,401.07l2.6,11.41,2-12.7,14.65-64.54h12.5l-22.87,94.35H629.5l-19.44-68.75-1.49-7.2-1.49,7.2-20.15,68.75H575.59l-22.81-94.35h12.44Z"/><path class="cls-3" d="M702.72,430.88q-14.25,0-23.19-9.36t-8.95-25v-2.2a42.06,42.06,0,0,1,4-18.63,31.16,31.16,0,0,1,11.14-12.83,28,28,0,0,1,15.52-4.63q13.68,0,21.26,9T730.07,393v5h-47.5q.25,10.38,6.06,16.75a19,19,0,0,0,14.74,6.39,21,21,0,0,0,10.76-2.59,27.13,27.13,0,0,0,7.71-6.87l7.32,5.7Q720.36,430.89,702.72,430.88ZM701.23,368a16,16,0,0,0-12.18,5.28q-4.92,5.28-6.09,14.81h35.12v-.91q-.52-9.13-4.92-14.16T701.23,368Z"/><path class="cls-3" d="M803.29,395.31q0,16.06-7.39,25.82a23.59,23.59,0,0,1-19.83,9.75q-13.27,0-20.54-9.39l-.58,8.1h-11V330.06h12v37.13q7.26-9,20-9T796,367.83q7.29,9.66,7.29,26.44Zm-12-1.36q0-12.26-4.73-18.92T773,368.35q-11.85,0-17,11v30.32q5.51,11,17.17,11A15.59,15.59,0,0,0,786.51,414Q791.3,407.37,791.3,394Z"/><path class="cls-3" d="M853.12,429.59V335.24h26.63a42.85,42.85,0,0,1,21.77,5.44,36.76,36.76,0,0,1,14.61,15.49,50.33,50.33,0,0,1,5.22,23.07v6q0,13.35-5.15,23.4a36.33,36.33,0,0,1-14.71,15.42,45.7,45.7,0,0,1-22.26,5.51Zm12.44-84.18v74h13.09q14.39,0,22.39-9T909,385v-5.51q0-16.08-7.55-25t-21.42-9Z"/><path class="cls-3" d="M967.36,430.88q-14.26,0-23.2-9.36t-8.94-25v-2.2a42.2,42.2,0,0,1,4-18.63,31.11,31.11,0,0,1,11.15-12.83,28,28,0,0,1,15.52-4.63q13.67,0,21.25,9T994.7,393v5H947.2q.27,10.38,6.06,16.75A19,19,0,0,0,968,421.1a21,21,0,0,0,10.76-2.59,27,27,0,0,0,7.71-6.87l7.32,5.7Q985,430.89,967.36,430.88ZM965.87,368a16,16,0,0,0-12.19,5.28q-4.92,5.28-6.09,14.81h35.12v-.91q-.51-9.13-4.92-14.16T965.87,368Z"/><path class="cls-3" d="M1030.86,413.32l17.36-53.85h12.25l-25.14,70.12h-9.14l-25.4-70.12H1013Z"/><path class="cls-3" d="M1100.26,430.88q-14.27,0-23.2-9.36t-8.94-25v-2.2a42.2,42.2,0,0,1,4-18.63,31.11,31.11,0,0,1,11.15-12.83,28,28,0,0,1,15.52-4.63q13.67,0,21.25,9T1127.6,393v5h-47.5q.27,10.38,6.06,16.75a19,19,0,0,0,14.74,6.39,21,21,0,0,0,10.76-2.59,27,27,0,0,0,7.71-6.87l7.32,5.7Q1117.88,430.89,1100.26,430.88ZM1098.77,368a16,16,0,0,0-12.19,5.28q-4.92,5.28-6.09,14.81h35.12v-.91q-.51-9.13-4.92-14.16T1098.77,368Z"/><path class="cls-3" d="M1154.49,429.59h-12V330.06h12Z"/><path class="cls-3" d="M1170.5,393.88a41.41,41.41,0,0,1,4-18.53,30.15,30.15,0,0,1,11.27-12.7,30.7,30.7,0,0,1,16.49-4.47q14.32,0,23.17,9.91t8.84,26.38v.84a41.69,41.69,0,0,1-3.92,18.37,29.79,29.79,0,0,1-11.21,12.67,31.07,31.07,0,0,1-16.75,4.53q-14.25,0-23.1-9.91t-8.84-26.25Zm12,1.43q0,11.65,5.41,18.72a18.33,18.33,0,0,0,29-.09q5.37-7.17,5.38-20.06,0-11.53-5.48-18.69a17.39,17.39,0,0,0-14.55-7.16,17.21,17.21,0,0,0-14.32,7.06Q1182.54,382.16,1182.55,395.31Z"/><path class="cls-3" d="M1308.58,395.31q0,16-7.32,25.79t-19.83,9.78q-12.77,0-20.09-8.1v33.76h-12V359.47h11l.58,7.78q7.32-9.08,20.35-9.07,12.63,0,20,9.52t7.35,26.51Zm-12-1.36q0-11.86-5-18.73a16.28,16.28,0,0,0-13.87-6.87q-10.87,0-16.33,9.66v33.5q5.39,9.58,16.46,9.59a16.2,16.2,0,0,0,13.71-6.84Q1296.6,407.42,1296.59,394Z"/><path class="cls-3" d="M1352.9,430.88q-14.25,0-23.19-9.36t-9-25v-2.2a42.06,42.06,0,0,1,4-18.63,31.16,31.16,0,0,1,11.14-12.83,28,28,0,0,1,15.52-4.63q13.68,0,21.26,9t7.58,25.79v5h-47.5q.26,10.38,6.06,16.75a19,19,0,0,0,14.74,6.39,21,21,0,0,0,10.76-2.59,27.13,27.13,0,0,0,7.71-6.87l7.32,5.7Q1370.54,430.89,1352.9,430.88ZM1351.41,368a16,16,0,0,0-12.18,5.28q-4.92,5.28-6.09,14.81h35.12v-.91q-.52-9.13-4.92-14.16T1351.41,368Z"/><path class="cls-3" d="M1428,370.23a36.14,36.14,0,0,0-5.89-.45q-11.8,0-16,10v49.77h-12V359.47h11.67l.19,8.1q5.9-9.39,16.72-9.39a12.16,12.16,0,0,1,5.31.91Z"/><rect class="cls-3" x="152.78" y="152.78" width="247.22" height="247.22"/><path class="cls-4" d="M182,250.93h50.93v94.42a25.46,25.46,0,0,1-25.46,25.47h0A25.47,25.47,0,0,1,182,345.35Z"/><path class="cls-5" d="M370.82,207.43v25.46H182V207.43A25.47,25.47,0,0,1,207.43,182H345.36A25.46,25.46,0,0,1,370.82,207.43Z"/><path class="cls-4" d="M250.93,250.93h50.93v56.94a25.47,25.47,0,0,1-25.47,25.46h0a25.46,25.46,0,0,1-25.46-25.46Z"/><path class="cls-4" d="M319.89,250.93h50.93v94.42a25.47,25.47,0,0,1-25.47,25.47h0a25.46,25.46,0,0,1-25.46-25.47Z"/><path class="cls-2" d="M319.89,105.59v18h94.79a14.5,14.5,0,0,1,14.5,14.5V414.68a14.5,14.5,0,0,1-14.5,14.5H319.89v18a29.2,29.2,0,0,0,29.2,29.2h103.7a23.61,23.61,0,0,0,23.6-23.6V100a23.61,23.61,0,0,0-23.6-23.6H349.09A29.2,29.2,0,0,0,319.89,105.59Z"/><path class="cls-2" d="M232.89,447.19v-18H138.1a14.5,14.5,0,0,1-14.5-14.5V138.1a14.51,14.51,0,0,1,14.5-14.5h94.79v-18a29.2,29.2,0,0,0-29.2-29.2H100A23.61,23.61,0,0,0,76.39,100v352.8a23.61,23.61,0,0,0,23.6,23.6h103.7A29.2,29.2,0,0,0,232.89,447.19Z"/></g></g></svg>