<?xml version="1.0" encoding="utf-8"?>
<!-- Generator: Adobe Illustrator 25.2.3, SVG Export Plug-In . SVG Version: 6.00 Build 0)  -->
<svg version="1.1" id="Camada_1" xmlns="http://www.w3.org/2000/svg" xmlns:xlink="http://www.w3.org/1999/xlink" x="0px" y="0px"
	 viewBox="0 0 1617 647.2" style="enable-background:new 0 0 1617 647.2;" xml:space="preserve">
<style type="text/css">
	.st0{fill:none;}
	.st1{fill:#4EA5D9;}
	.st2{fill:#FFFFFF;}
	.st3{fill:#23F0C7;}
	.st4{fill:#2F4858;}
</style>
<g id="Camada_2_1_">
	<g id="Logo">
		<rect class="st0" width="1617" height="647.2"/>
		<rect x="76.4" y="200" class="st1" width="247.2" height="247.2"/>
		<path class="st2" d="M105.6,298.1h50.9v94.4c0,14.1-11.4,25.4-25.5,25.4l0,0c-14.1,0-25.5-11.4-25.5-25.5l0,0L105.6,298.1
			L105.6,298.1z"/>
		<path class="st3" d="M294.4,254.6v25.5H105.6v-25.5c0-14.1,11.4-25.5,25.5-25.5l0,0H269C283,229.2,294.4,240.6,294.4,254.6z"/>
		<path class="st2" d="M174.5,298.1h50.9V355c0,14.1-11.4,25.5-25.4,25.5l0,0l0,0c-14.1,0-25.5-11.4-25.5-25.5l0,0V298.1z"/>
		<path class="st2" d="M243.5,298.1h50.9v94.4c0,14-11.4,25.4-25.4,25.4l0,0c-14.1,0-25.5-11.4-25.5-25.5l0,0V298.1z"/>
		<path class="st4" d="M243.5,152.8v18h94.8c8,0,14.5,6.5,14.5,14.5v276.6c0,8-6.5,14.5-14.5,14.5h-94.8v18
			c0,16.1,13.1,29.2,29.2,29.2l0,0h103.7c13,0,23.6-10.6,23.6-23.6V147.2c0-13-10.6-23.6-23.6-23.6H272.7
			C256.6,123.6,243.5,136.7,243.5,152.8z"/>
		<path class="st4" d="M156.5,494.4v-18H61.7c-8,0-14.5-6.5-14.5-14.5l0,0V185.3c0-8,6.5-14.5,14.5-14.5l0,0h94.8v-18
			c0-16.1-13.1-29.2-29.2-29.2H23.6c-13,0-23.6,10.6-23.6,23.6V500c0,13,10.6,23.6,23.6,23.6h103.7
			C143.4,523.6,156.5,510.5,156.5,494.4z"/>
		<path class="st4" d="M524.7,170.3l34.1,106.2l34-106.2h48.4v152.6h-36.9v-98.1L571,322.9h-24.3l-33.4-98.2v98.2h-36.9V170.3H524.7
			z"/>
		<path class="st4" d="M753.2,294.4h-50.4l-8.8,28.5h-39.3l56-152.6h34.6l56.4,152.6h-39.5L753.2,294.4z M711.5,266h32.9l-16.5-52.9
			L711.5,266z"/>
		<path class="st4" d="M930.6,170.3v99.9c0,11.3-2.4,21.1-7.2,29.4c-4.8,8.3-12.1,14.9-20.8,18.9c-9,4.3-19.7,6.5-32,6.5
			c-18.6,0-33.2-4.8-43.9-14.5s-16.1-22.9-16.3-39.6V170.3h37v101.4c0.4,16.7,8.2,25.1,23.3,25.1c7.6,0,13.4-2.1,17.3-6.3
			c3.9-4.2,5.9-11,5.9-20.4v-99.7L930.6,170.3z"/>
		<path class="st4" d="M1010.3,268.9h-19.9v54h-36.8V170.3h60.1c18.1,0,32.3,4,42.5,12s15.3,19.3,15.3,34c0,10.6-2.1,19.4-6.4,26.4
			s-11,12.7-20.2,17l31.9,61.6v1.6h-39.4L1010.3,268.9z M990.4,240.6h23.3c7,0,12.2-1.8,15.8-5.5s5.3-8.8,5.3-15.4
			c0-6.6-1.8-11.7-5.3-15.5c-3.6-3.8-8.8-5.6-15.7-5.6h-23.4V240.6z"/>
		<path class="st4" d="M1132.9,322.9h-36.7V170.3h36.7V322.9z"/>
		<path class="st4" d="M1282,271.2c-0.3,10-3.3,19.7-8.6,28.1c-5.4,8.3-13.1,14.8-22.1,18.9c-9.5,4.5-20.3,6.7-32.4,6.7
			c-20.1,0-35.9-6.5-47.4-19.6s-17.3-31.5-17.3-55.4v-7.6c0-15,2.6-28,7.8-39.3c4.8-10.7,12.6-19.7,22.5-26c9.8-6.1,21.1-9.2,34-9.2
			c18.5,0,33.4,4.9,44.7,14.6c11.3,9.7,17.6,23.2,19.1,40.3h-36.7c-0.3-9.3-2.6-16-7-20s-11.1-6.1-20.2-6.1s-15.9,3.4-20.1,10.3
			c-4.3,6.8-6.5,17.8-6.7,32.8v10.8c0,16.3,2,27.9,6.1,34.9s11.1,10.5,21.1,10.5c8.5,0,14.9-2,19.4-6s6.9-10.3,7.1-19L1282,271.2z"
			/>
		<path class="st4" d="M1338.6,322.9h-36.7V170.3h36.7V322.9z"/>
		<path class="st4" d="M1493.4,249.8c0,14.9-2.8,28.1-8.3,39.5c-5.1,11-13.2,20.2-23.5,26.5c-10.1,6.2-21.7,9.2-34.7,9.2
			s-24.6-3-34.6-9c-10.2-6.1-18.3-15-23.5-25.6c-5.6-11.1-8.6-23.9-8.9-38.3v-8.6c0-14.9,2.7-28.1,8.2-39.6
			c5.1-11,13.3-20.2,23.6-26.5c10.2-6.2,21.9-9.3,35-9.3c12.9,0,24.5,3.1,34.6,9.2c10.3,6.3,18.5,15.4,23.6,26.3
			c5.6,11.3,8.5,24.3,8.5,39L1493.4,249.8z M1456,243.4c0-15.2-2.5-26.7-7.6-34.5s-12.3-11.8-21.7-11.8c-18.4,0-28.2,13.8-29.2,41.5
			l-0.1,11.2c0,14.9,2.5,26.4,7.4,34.5c5,8,12.3,12.1,22.1,12.1c9.3,0,16.5-4,21.5-11.9s7.5-19.3,7.7-34.1L1456,243.4z"/>
		<path class="st1" d="M476.4,477.9v-90.8h26.8c7.5-0.1,14.8,1.7,21.3,5.4c6.2,3.6,11.2,8.8,14.4,15.2c3.5,7,5.3,14.7,5.1,22.6v4.5
			c0,8.6-1.7,16.2-5.1,22.7c-3.3,6.4-8.4,11.6-14.7,15.1c-6.7,3.6-14.2,5.4-21.8,5.3H476.4z M492.2,399.9v65.5h10.3
			c8.3,0,14.6-2.6,19-7.8c4.4-5.2,6.7-12.6,6.8-22.3v-5c0-9.9-2.1-17.4-6.4-22.6c-4.3-5.2-10.5-7.8-18.6-7.8L492.2,399.9
			L492.2,399.9z"/>
		<path class="st1" d="M588,479.1c-9.6,0-17.4-3-23.3-9.1c-6-6-8.9-14.1-8.9-24.1V444c-0.1-6.2,1.2-12.4,3.9-18
			c2.4-5.1,6.2-9.4,10.9-12.4c4.7-2.9,10.2-4.5,15.7-4.4c9.2,0,16.3,2.9,21.3,8.8s7.5,14.1,7.5,24.9v6.1H571
			c0.5,5.6,2.3,10,5.6,13.2s7.7,5,12.3,4.8c6.7,0.1,13-3,17-8.4l8.2,7.8c-2.7,4-6.4,7.3-10.8,9.4C598.5,478,593.3,479.2,588,479.1z
			 M586.2,421.3c-3.8-0.1-7.5,1.5-10.1,4.4c-2.5,2.9-4.2,7-4.9,12.1h28.9v-1.1c-0.3-5.1-1.7-8.9-4-11.5
			C593.7,422.6,590.4,421.3,586.2,421.3L586.2,421.3z"/>
		<path class="st1" d="M664.6,459.5c0.1-2.5-1.2-4.9-3.3-6.2c-2.2-1.4-5.9-2.7-11.1-3.7c-4.4-0.9-8.8-2.2-12.9-4.1
			c-7.6-3.7-11.4-9-11.3-15.9c0-5.8,2.5-10.7,7.4-14.6s11.1-5.9,18.7-5.9c8.1,0,14.6,2,19.5,6c4.8,3.7,7.6,9.5,7.5,15.5H664
			c0.1-2.8-1.1-5.4-3.2-7.3c-2.4-2-5.5-3.1-8.6-2.9c-2.9-0.1-5.7,0.7-8.1,2.3c-2,1.4-3.2,3.7-3.1,6.2c-0.1,2.2,1,4.3,2.9,5.4
			c2,1.3,5.9,2.6,11.8,3.9c4.9,0.9,9.6,2.5,14,4.7c3,1.5,5.6,3.7,7.5,6.5c1.7,2.8,2.6,6,2.5,9.2c0.1,5.9-2.7,11.4-7.5,14.7
			c-5,3.8-11.6,5.6-19.8,5.6c-5.1,0.1-10.1-0.9-14.8-3c-4.1-1.8-7.5-4.6-10.1-8.2c-2.3-3.3-3.6-7.2-3.6-11.3h14.7
			c0,3.2,1.5,6.2,4,8.3c2.5,1.9,5.8,2.9,9.9,2.9c4,0,7-0.8,9.1-2.3C663.5,464.2,664.7,461.9,664.6,459.5z"/>
		<path class="st1" d="M722.4,479.1c-9.6,0-17.4-3-23.3-9.1c-6-6-8.9-14.1-8.9-24.1V444c-0.1-6.2,1.2-12.4,3.9-18
			c2.4-5.1,6.2-9.4,10.9-12.4c4.7-2.9,10.2-4.5,15.7-4.4c9.2,0,16.3,2.9,21.3,8.8s7.5,14.1,7.5,24.9v6.1h-44.1
			c0.5,5.6,2.3,10,5.6,13.2s7.7,5,12.3,4.8c6.7,0.1,13-3,17-8.4l8.2,7.8c-2.7,4-6.4,7.3-10.8,9.4C732.9,478,727.7,479.2,722.4,479.1
			z M720.6,421.3c-3.8-0.1-7.5,1.5-10.1,4.4c-2.5,2.9-4.2,7-4.9,12.1h28.9v-1.1c-0.3-5.1-1.7-8.9-4-11.5
			C728.2,422.6,724.9,421.3,720.6,421.3L720.6,421.3z"/>
		<path class="st1" d="M775.3,410.4l0.4,7.8c5-6,11.5-9,19.6-9c14,0,21.2,8,21.5,24.1v44.6h-15.2v-43.7c0-4.3-0.9-7.5-2.8-9.5
			s-4.9-3.1-9.1-3.1c-6.1,0-10.7,2.8-13.7,8.3v48h-15.1v-67.5L775.3,410.4L775.3,410.4z"/>
		<path class="st1" d="M856,458.7l14.3-48.2H886l-23.4,67.4h-13.2l-23.6-67.5h15.7L856,458.7z"/>
		<path class="st1" d="M891.6,443.5c-0.1-6.2,1.2-12.3,3.9-17.9c2.4-5.1,6.2-9.3,11-12.2c4.9-2.9,10.6-4.4,16.3-4.3
			c9.1,0,16.5,2.9,22.2,8.8s8.7,13.6,9.2,23.3l0.1,3.6c0.1,6.2-1.2,12.3-3.8,17.8c-2.4,5.1-6.2,9.3-11,12.2
			c-5,2.9-10.7,4.4-16.5,4.3c-9.5,0-17.1-3.2-22.8-9.5s-8.6-14.8-8.6-25.3V443.5z M906.8,444.8c0,6.9,1.4,12.4,4.3,16.3
			c2.7,3.9,7.3,6.1,12,5.9c4.7,0.2,9.3-2.1,11.9-6c2.9-4,4.3-9.8,4.3-17.5c0-6.8-1.5-12.2-4.4-16.2c-4.9-6.6-14.1-7.9-20.7-3.1
			c-1.1,0.8-2.1,1.8-3,3C908.2,431.1,906.8,437,906.8,444.8z"/>
		<path class="st1" d="M983.3,477.9h-15.2v-95.8h15.2V477.9z"/>
		<path class="st1" d="M1023.5,458.7l14.3-48.2h15.6l-23.4,67.4h-13.2l-23.5-67.4h15.7L1023.5,458.7z"/>
		<path class="st1" d="M1091.8,479.1c-9.6,0-17.4-3-23.3-9.1c-6-6-9-14.1-9-24.1V444c-0.1-6.2,1.2-12.4,3.9-18
			c2.4-5.1,6.2-9.4,10.9-12.4c4.7-3,10.2-4.5,15.7-4.4c9.2,0,16.3,2.9,21.3,8.8s7.5,14.1,7.5,24.9v6.1h-44.1
			c0.5,5.6,2.3,10,5.6,13.2c3.3,3.2,7.7,5,12.3,4.9c6.7,0.1,13-3,17-8.4l8.2,7.8c-2.7,4-6.4,7.3-10.8,9.4
			C1102.2,478.1,1097,479.2,1091.8,479.1z M1090,421.3c-3.8-0.1-7.5,1.5-10.1,4.4s-4.2,7-4.9,12.1h28.9v-1.1
			c-0.3-5.1-1.7-8.9-4-11.5C1097.5,422.6,1094.2,421.3,1090,421.3L1090,421.3z"/>
		<path class="st1" d="M1127.8,443.6c0-10.4,2.4-18.7,7.2-25c4.5-6.1,11.8-9.7,19.4-9.4c7.2,0,12.9,2.5,17.3,7.5v-34.6h15.2v95.8
			h-13.7l-0.8-7c-4.5,5.5-10.6,8.2-18.1,8.2c-7.6,0.2-14.7-3.4-19.2-9.5C1130.2,463.2,1127.8,454.5,1127.8,443.6z M1142.9,445
			c0,6.9,1.3,12.2,4,16c2.5,3.8,6.7,6,11.2,5.8c6.2,0,10.7-2.8,13.6-8.3v-28.8c-2.8-5.4-7.3-8.1-13.5-8.1c-4.5-0.2-8.8,2-11.3,5.8
			C1144.3,431.3,1142.9,437.2,1142.9,445L1142.9,445z"/>
		<path class="st1" d="M1199.8,443.5c-0.1-6.2,1.2-12.3,3.9-17.9c2.4-5.1,6.2-9.3,11-12.2c4.9-2.9,10.6-4.4,16.3-4.3
			c9.1,0,16.5,2.9,22.2,8.8s8.7,13.6,9.2,23.3l0.1,3.6c0.1,6.2-1.2,12.3-3.8,17.8c-2.4,5.1-6.2,9.3-11,12.2
			c-5,2.9-10.7,4.4-16.5,4.3c-9.5,0-17.1-3.2-22.8-9.5s-8.6-14.8-8.6-25.3L1199.8,443.5z M1215,444.8c0,6.9,1.4,12.4,4.3,16.3
			c2.7,3.9,7.3,6.1,12,5.9c4.7,0.2,9.3-2.1,11.9-6c2.9-4,4.3-9.8,4.3-17.5c0-6.8-1.5-12.2-4.4-16.2c-4.9-6.6-14.1-7.9-20.7-3.1
			c-1.1,0.8-2.1,1.8-3,3C1216.4,431.1,1215,437,1215,444.8L1215,444.8z"/>
		<path class="st1" d="M1310.7,424.2c-2-0.3-4.1-0.5-6.2-0.5c-6.9,0-11.6,2.7-14,8v46.1h-15.2v-67.5h14.5l0.4,7.5
			c3.7-5.9,8.7-8.8,15.2-8.8c1.8-0.1,3.6,0.2,5.4,0.9L1310.7,424.2z"/>
	</g>
</g>
</svg>
