<?xml version="1.0" encoding="UTF-8" standalone="no"?>
<svg
   xmlns:dc="http://purl.org/dc/elements/1.1/"
   xmlns:cc="http://creativecommons.org/ns#"
   xmlns:rdf="http://www.w3.org/1999/02/22-rdf-syntax-ns#"
   xmlns:svg="http://www.w3.org/2000/svg"
   xmlns="http://www.w3.org/2000/svg"
   xmlns:sodipodi="http://sodipodi.sourceforge.net/DTD/sodipodi-0.dtd"
   xmlns:inkscape="http://www.inkscape.org/namespaces/inkscape"
   id="Camada_1"
   data-name="Camada 1"
   viewBox="0 0 266.32103 90"
   version="1.1"
   sodipodi:docname="logo.svg"
   width="266.32101"
   height="90"
   inkscape:version="0.92.4 (f8dce91, 2019-08-02)">
  <metadata
     id="metadata4010">
    <rdf:RDF>
      <cc:Work
         rdf:about="">
        <dc:format>image/svg+xml</dc:format>
        <dc:type
           rdf:resource="http://purl.org/dc/dcmitype/StillImage" />
      </cc:Work>
    </rdf:RDF>
  </metadata>
  <sodipodi:namedview
     pagecolor="#ffffff"
     bordercolor="#666666"
     borderopacity="1"
     objecttolerance="10"
     gridtolerance="10"
     guidetolerance="10"
     inkscape:pageopacity="0"
     inkscape:pageshadow="2"
     inkscape:window-width="1866"
     inkscape:window-height="1016"
     id="namedview4008"
     showgrid="false"
     inkscape:snap-bbox="true"
     showguides="false"
     inkscape:zoom="2.9667271"
     inkscape:cx="156.51436"
     inkscape:cy="44.217646"
     inkscape:window-x="54"
     inkscape:window-y="27"
     inkscape:window-maximized="1"
     inkscape:current-layer="Camada_1" />
  <defs
     id="defs3931">
    <style
       id="style3929">.cls-1{fill:#0078bb;}.cls-2{fill:#40545e;}.cls-3{fill:none;}</style>
  </defs>
  <title
     id="title3933">logo</title>
  <g
     id="g4047"
     transform="matrix(0.83256432,0,0,0.83256432,1.6986135e-4,7.5115351)">
    <path
       id="path3935"
       d="M 21,41 V 62 H 15.47 A 2.48,2.48 0 0 1 13,59.52 V 41 Z"
       class="cls-1"
       inkscape:connector-curvature="0"
       style="fill:#0078bb" />
    <rect
       id="rect3937"
       height="21.02"
       width="8.0299997"
       y="40.98"
       x="25.969999"
       class="cls-1"
       style="fill:#0078bb" />
    <path
       id="path3939"
       d="m 47,58 v 4 H 41.45 A 2.48,2.48 0 0 1 39,59.52 V 54 h 4 a 4,4 0 0 1 4,4 z"
       class="cls-1"
       inkscape:connector-curvature="0"
       style="fill:#0078bb" />
    <path
       id="path3941"
       d="M 47,30.47 V 45 a 4,4 0 0 1 -4,4 H 39 V 36 H 13 V 28 H 44.52 A 2.48,2.48 0 0 1 47,30.47 Z"
       class="cls-1"
       inkscape:connector-curvature="0"
       style="fill:#0078bb" />
    <path
       id="path3943"
       d="M 60,15 V 75 H 43 A 4,4 0 0 1 39,71 V 67 H 52 V 23 H 39 v -4 a 4,4 0 0 1 4,-4 z"
       class="cls-2"
       inkscape:connector-curvature="0"
       style="fill:#40545e" />
    <path
       id="path3945"
       d="m 0,15 v 60 h 17 a 4,4 0 0 0 4,-4 V 67 H 8 V 23 h 13 v -4 a 4,4 0 0 0 -4,-4 z"
       class="cls-2"
       inkscape:connector-curvature="0"
       style="fill:#40545e" />
    <path
       id="path3947"
       d="m 82.91,31 h 6.34 l 5,12.82 L 99.2,31 h 6.33 V 52.08 H 101 V 39.26 L 96.18,52.08 H 92.26 L 87.44,39.26 v 12.82 h -4.53 z"
       class="cls-2"
       inkscape:connector-curvature="0"
       style="fill:#40545e" />
    <path
       id="path3949"
       d="m 127.41,52.08 h -4.52 l -1.41,-4.52 h -7.75 l -1.4,4.52 h -4.52 L 114.14,31 h 6.94 z m -12.3,-9 h 5 l -2.5,-7.53 z"
       class="cls-2"
       inkscape:connector-curvature="0"
       style="fill:#40545e" />
    <path
       id="path3951"
       d="m 134.21,31 v 15.05 a 1.34,1.34 0 0 0 1.51,1.51 h 3 a 1.33,1.33 0 0 0 1.5,-1.51 V 31 h 4.53 v 15.05 q 0,6 -6,6 h -3 q -6,0 -6,-6 V 31 Z"
       class="cls-2"
       inkscape:connector-curvature="0"
       style="fill:#40545e" />
    <path
       id="path3953"
       d="m 156.09,44.54 h -3 v 7.54 h -4.53 V 31 h 9 q 6,0 6,6 v 1.51 a 5.46,5.46 0 0 1 -2.77,5.22 l 2.77,8.35 h -4.52 z m -3,-9 V 40 h 4.52 a 1.33,1.33 0 0 0 1.51,-1.51 V 37 a 1.33,1.33 0 0 0 -1.51,-1.5 z"
       class="cls-2"
       inkscape:connector-curvature="0"
       style="fill:#40545e" />
    <path
       id="path3955"
       d="m 171.94,31 v 21.08 h -4.52 V 31 Z"
       class="cls-2"
       inkscape:connector-curvature="0"
       style="fill:#40545e" />
    <path
       id="path3957"
       d="m 180.25,46.05 a 1.34,1.34 0 0 0 1.51,1.51 h 7.54 v 4.52 h -7.54 q -6,0 -6,-6 V 37 q 0,-6 6,-6 h 7.54 v 4.5 h -7.54 a 1.33,1.33 0 0 0 -1.51,1.5 z"
       class="cls-2"
       inkscape:connector-curvature="0"
       style="fill:#40545e" />
    <path
       id="path3959"
       d="m 197.61,31 v 21.08 h -4.52 V 31 Z"
       class="cls-2"
       inkscape:connector-curvature="0"
       style="fill:#40545e" />
    <path
       id="path3961"
       d="m 217.23,46.05 q 0,6 -6,6 h -3.77 q -6,0 -6,-6 V 37 q 0,-6 6,-6 h 3.77 q 6,0 6,6 z m -11.31,0 a 1.34,1.34 0 0 0 1.51,1.51 h 3.77 a 1.33,1.33 0 0 0 1.5,-1.51 V 37 a 1.33,1.33 0 0 0 -1.5,-1.5 h -3.77 a 1.33,1.33 0 0 0 -1.51,1.5 z"
       class="cls-2"
       inkscape:connector-curvature="0"
       style="fill:#40545e" />
    <path
       id="path3963"
       d="m 232.34,31 7.54,12.82 V 31 h 4.52 v 21.08 h -4.52 l -7.54,-12.82 v 12.82 h -4.52 V 31 Z"
       class="cls-2"
       inkscape:connector-curvature="0"
       style="fill:#40545e" />
    <path
       id="path3965"
       d="m 252.71,31 v 15.05 a 1.34,1.34 0 0 0 1.51,1.51 h 3 a 1.33,1.33 0 0 0 1.5,-1.51 V 31 h 4.53 v 15.05 q 0,6 -6,6 h -3 q -6,0 -6,-6 V 31 Z"
       class="cls-2"
       inkscape:connector-curvature="0"
       style="fill:#40545e" />
    <path
       id="path3967"
       d="m 271.58,31 7.54,12.82 V 31 h 4.52 v 21.08 h -4.52 l -7.54,-12.82 v 12.82 h -4.53 V 31 Z"
       class="cls-2"
       inkscape:connector-curvature="0"
       style="fill:#40545e" />
    <path
       id="path3969"
       d="m 301,39.26 v 4.53 h -9 v 3.77 h 9 v 4.52 H 287.43 V 31 H 301 v 4.5 h -9 v 3.76 z"
       class="cls-2"
       inkscape:connector-curvature="0"
       style="fill:#40545e" />
    <path
       id="path3971"
       d="m 304.78,52.08 v -4.52 h 9.05 a 1.34,1.34 0 0 0 1.51,-1.51 V 45.3 a 1.33,1.33 0 0 0 -1.51,-1.51 h -3 q -6,0 -6,-6 V 37 q 0,-6 6,-6 h 9.05 v 4.5 h -9.05 a 1.33,1.33 0 0 0 -1.5,1.5 v 0.76 a 1.33,1.33 0 0 0 1.5,1.5 h 3 q 6,0 6,6 v 0.75 q 0,6 -6,6 z"
       class="cls-2"
       inkscape:connector-curvature="0"
       style="fill:#40545e" />
    <path
       id="path3973"
       d="m 171.65,61.92 q 3.27,0 3.27,3.27 v 6.54 q 0,3.27 -3.27,3.27 h -5.14 V 61.92 Z m 1.4,3.27 a 1.24,1.24 0 0 0 -1.4,-1.4 h -3.27 v 9.34 h 3.27 a 1.24,1.24 0 0 0 1.4,-1.4 z"
       class="cls-1"
       inkscape:connector-curvature="0"
       style="fill:#0078bb" />
    <path
       id="path3975"
       d="m 179.13,71.08 v 0.65 a 1.24,1.24 0 0 0 1.4,1.4 h 3.74 V 75 h -3.74 q -3.27,0 -3.27,-3.27 v -2.8 q 0,-3.27 3.27,-3.27 h 0.94 q 3.27,0 3.27,3.27 v 2.15 z m 0,-1.5 h 3.74 v -0.65 a 1.24,1.24 0 0 0 -1.4,-1.4 h -0.94 a 1.24,1.24 0 0 0 -1.4,1.4 z"
       class="cls-1"
       inkscape:connector-curvature="0"
       style="fill:#0078bb" />
    <path
       id="path3977"
       d="m 187.08,75 v -1.87 h 4.2 a 0.83,0.83 0 0 0 0.94,-0.93 c 0,-0.69 -0.31,-1 -0.94,-1 h -1.4 c -1.87,0 -2.8,-0.9 -2.8,-2.71 a 2.47,2.47 0 0 1 2.8,-2.8 h 4.21 v 1.87 h -4.21 a 0.82,0.82 0 0 0 -0.93,0.93 q 0,0.84 0.93,0.84 h 1.4 c 1.87,0 2.81,1 2.81,2.9 a 2.48,2.48 0 0 1 -2.81,2.8 z"
       class="cls-1"
       inkscape:connector-curvature="0"
       style="fill:#0078bb" />
    <path
       id="path3979"
       d="m 198.3,71.08 v 0.65 a 1.24,1.24 0 0 0 1.4,1.4 h 3.74 V 75 h -3.74 q -3.27,0 -3.27,-3.27 v -2.8 q 0,-3.27 3.27,-3.27 h 0.93 q 3.27,0 3.27,3.27 v 2.15 z m 0,-1.5 h 3.7 v -0.65 a 1.24,1.24 0 0 0 -1.41,-1.4 h -0.93 a 1.24,1.24 0 0 0 -1.4,1.4 z"
       class="cls-1"
       inkscape:connector-curvature="0"
       style="fill:#0078bb" />
    <path
       id="path3981"
       d="m 208.12,75 h -1.87 v -9.34 h 1.59 l 0.28,0.93 a 3.17,3.17 0 0 1 2.33,-0.93 q 3.27,0 3.27,3.27 V 75 h -1.87 v -6.07 a 1.24,1.24 0 0 0 -1.4,-1.4 5.06,5.06 0 0 0 -2.33,0.47 z"
       class="cls-1"
       inkscape:connector-curvature="0"
       style="fill:#0078bb" />
    <path
       id="path3983"
       d="m 220.46,75 h -2.24 l -2.62,-9.34 h 1.87 l 1.87,7 1.86,-7 h 1.87 z"
       class="cls-1"
       inkscape:connector-curvature="0"
       style="fill:#0078bb" />
    <path
       id="path3985"
       d="m 232.42,72.2 a 2.47,2.47 0 0 1 -2.8,2.8 h -1.87 a 2.48,2.48 0 0 1 -2.8,-2.8 v -3.74 a 2.48,2.48 0 0 1 2.8,-2.8 h 1.87 a 2.47,2.47 0 0 1 2.8,2.8 z m -5.6,0 a 0.82,0.82 0 0 0 0.93,0.93 h 1.87 a 0.83,0.83 0 0 0 0.94,-0.93 v -3.74 c 0,-0.56 -0.32,-0.84 -0.94,-0.84 h -1.87 q -0.93,0 -0.93,0.84 z"
       class="cls-1"
       inkscape:connector-curvature="0"
       style="fill:#0078bb" />
    <path
       id="path3987"
       d="M 236.64,61.92 V 75 h -1.87 V 61.92 Z"
       class="cls-1"
       inkscape:connector-curvature="0"
       style="fill:#0078bb" />
    <path
       id="path3989"
       d="m 243.37,75 h -2.24 l -2.61,-9.34 h 1.86 l 1.87,7 1.87,-7 H 246 Z"
       class="cls-1"
       inkscape:connector-curvature="0"
       style="fill:#0078bb" />
    <path
       id="path3991"
       d="m 249.74,71.08 v 0.65 a 1.23,1.23 0 0 0 1.4,1.4 h 3.73 V 75 h -3.73 q -3.27,0 -3.27,-3.27 v -2.8 q 0,-3.27 3.27,-3.27 h 0.93 q 3.27,0 3.27,3.27 v 2.15 z m 0,-1.5 h 3.73 v -0.65 a 1.24,1.24 0 0 0 -1.4,-1.4 h -0.93 a 1.24,1.24 0 0 0 -1.4,1.4 z"
       class="cls-1"
       inkscape:connector-curvature="0"
       style="fill:#0078bb" />
    <path
       id="path3993"
       d="m 263.29,61.92 h 1.87 V 75 h -1.59 l -0.28,-0.93 A 3.17,3.17 0 0 1 261,75 q -3.27,0 -3.27,-3.27 v -2.8 q 0,-3.27 3.27,-3.27 a 3.17,3.17 0 0 1 2.34,0.93 z m 0,10.75 V 68 a 5.08,5.08 0 0 0 -2.34,-0.47 1.24,1.24 0 0 0 -1.4,1.4 v 2.8 a 1.24,1.24 0 0 0 1.4,1.4 5.22,5.22 0 0 0 2.34,-0.46 z"
       class="cls-1"
       inkscape:connector-curvature="0"
       style="fill:#0078bb" />
    <path
       id="path3995"
       d="m 275,72.2 a 2.47,2.47 0 0 1 -2.8,2.8 h -1.9 a 2.48,2.48 0 0 1 -2.8,-2.8 v -3.74 a 2.48,2.48 0 0 1 2.8,-2.8 h 1.87 a 2.47,2.47 0 0 1 2.8,2.8 z m -5.6,0 a 0.82,0.82 0 0 0 0.93,0.93 h 1.87 a 0.83,0.83 0 0 0 0.94,-0.93 v -3.74 c 0,-0.56 -0.31,-0.84 -0.94,-0.84 h -1.9 q -0.93,0 -0.93,0.84 z"
       class="cls-1"
       inkscape:connector-curvature="0"
       style="fill:#0078bb" />
    <path
       id="path3997"
       d="m 279.19,75 h -1.87 v -9.34 h 1.59 l 0.28,0.93 a 3.17,3.17 0 0 1 2.33,-0.93 H 282 v 1.87 h -0.47 A 5.06,5.06 0 0 0 279.2,68 Z"
       class="cls-1"
       inkscape:connector-curvature="0"
       style="fill:#0078bb" />
    <path
       id="path3999"
       d="m 298.64,75 h -2.43 l -2.06,-10.1 -2,10.1 h -2.43 L 287.2,61.92 h 1.8 l 1.87,10.28 2.33,-10.28 h 1.87 l 2.33,10.28 1.87,-10.28 h 1.87 z"
       class="cls-1"
       inkscape:connector-curvature="0"
       style="fill:#0078bb" />
    <path
       id="path4001"
       d="m 304.44,71.08 v 0.65 a 1.24,1.24 0 0 0 1.4,1.4 h 3.74 V 75 h -3.74 q -3.27,0 -3.27,-3.27 v -2.8 q 0,-3.27 3.27,-3.27 h 0.93 q 3.27,0 3.27,3.27 v 2.15 z m 0,-1.5 h 3.73 v -0.65 a 1.24,1.24 0 0 0 -1.4,-1.4 h -0.93 a 1.24,1.24 0 0 0 -1.4,1.4 z"
       class="cls-1"
       inkscape:connector-curvature="0"
       style="fill:#0078bb" />
    <path
       id="path4003"
       d="m 314.26,66.59 a 3.17,3.17 0 0 1 2.33,-0.93 q 3.27,0 3.27,3.27 v 2.8 q 0,3.27 -3.27,3.27 a 3.17,3.17 0 0 1 -2.33,-0.93 L 314,75 h -1.59 V 61.92 h 1.87 z m 2.33,6.54 a 1.23,1.23 0 0 0 1.4,-1.4 v -2.8 a 1.24,1.24 0 0 0 -1.4,-1.4 5.06,5.06 0 0 0 -2.33,0.47 v 4.67 a 5.2,5.2 0 0 0 2.33,0.46 z"
       class="cls-1"
       inkscape:connector-curvature="0"
       style="fill:#0078bb" />
  </g>
  <rect
     class="cls-3"
     width="319.85999"
     height="90"
     id="rect4005"
     x="-26.769487"
     y="0"
     style="fill:none" />
  <rect
     id="rect4854"
     width="266.32101"
     height="90"
     x="0"
     y="0"
     style="stroke-width:1.05728638;fill:none" />
</svg>
