<svg id="Camada_1" data-name="Camada 1" xmlns="http://www.w3.org/2000/svg" viewBox="0 0 319.86 90"><defs><style>.cls-1{fill:#0078bb;}.cls-2{fill:#40545e;}.cls-3{fill:none;}</style></defs><title>logo</title><path class="cls-1" d="M21,41V62H15.47A2.48,2.48,0,0,1,13,59.52V41Z"/><rect class="cls-1" x="25.97" y="40.98" width="8.03" height="21.02"/><path class="cls-1" d="M47,58v4H41.45A2.48,2.48,0,0,1,39,59.52V54h4A4,4,0,0,1,47,58Z"/><path class="cls-1" d="M47,30.47V45a4,4,0,0,1-4,4H39V36H13V28H44.52A2.48,2.48,0,0,1,47,30.47Z"/><path class="cls-2" d="M60,15V75H43a4,4,0,0,1-4-4V67H52V23H39V19a4,4,0,0,1,4-4Z"/><path class="cls-2" d="M0,15V75H17a4,4,0,0,0,4-4V67H8V23H21V19a4,4,0,0,0-4-4Z"/><path class="cls-2" d="M82.91,31h6.34l5,12.82L99.2,31h6.33V52.08H101V39.26L96.18,52.08H92.26L87.44,39.26V52.08H82.91Z"/><path class="cls-2" d="M127.41,52.08h-4.52l-1.41-4.52h-7.75l-1.4,4.52h-4.52L114.14,31h6.94Zm-12.3-9h5l-2.5-7.53Z"/><path class="cls-2" d="M134.21,31V46.05a1.34,1.34,0,0,0,1.51,1.51h3a1.33,1.33,0,0,0,1.5-1.51V31h4.53V46.05q0,6-6,6h-3q-6,0-6-6V31Z"/><path class="cls-2" d="M156.09,44.54h-3v7.54h-4.53V31h9q6,0,6,6v1.51a5.46,5.46,0,0,1-2.77,5.22l2.77,8.35h-4.52Zm-3-9V40h4.52a1.33,1.33,0,0,0,1.51-1.51V37a1.33,1.33,0,0,0-1.51-1.5Z"/><path class="cls-2" d="M171.94,31V52.08h-4.52V31Z"/><path class="cls-2" d="M180.25,46.05a1.34,1.34,0,0,0,1.51,1.51h7.54v4.52h-7.54q-6,0-6-6V37q0-6,6-6h7.54V35.5h-7.54a1.33,1.33,0,0,0-1.51,1.5Z"/><path class="cls-2" d="M197.61,31V52.08h-4.52V31Z"/><path class="cls-2" d="M217.23,46.05q0,6-6,6h-3.77q-6,0-6-6V37q0-6,6-6h3.77q6,0,6,6Zm-11.31,0a1.34,1.34,0,0,0,1.51,1.51h3.77a1.33,1.33,0,0,0,1.5-1.51V37a1.33,1.33,0,0,0-1.5-1.5h-3.77a1.33,1.33,0,0,0-1.51,1.5Z"/><path class="cls-2" d="M232.34,31l7.54,12.82V31h4.52V52.08h-4.52l-7.54-12.82V52.08h-4.52V31Z"/><path class="cls-2" d="M252.71,31V46.05a1.34,1.34,0,0,0,1.51,1.51h3a1.33,1.33,0,0,0,1.5-1.51V31h4.53V46.05q0,6-6,6h-3q-6,0-6-6V31Z"/><path class="cls-2" d="M271.58,31l7.54,12.82V31h4.52V52.08h-4.52l-7.54-12.82V52.08h-4.53V31Z"/><path class="cls-2" d="M301,39.26v4.53H292v3.77H301v4.52H287.43V31H301V35.5H292v3.76Z"/><path class="cls-2" d="M304.78,52.08V47.56h9.05a1.34,1.34,0,0,0,1.51-1.51V45.3a1.33,1.33,0,0,0-1.51-1.51h-3q-6,0-6-6V37q0-6,6-6h9.05V35.5h-9.05a1.33,1.33,0,0,0-1.5,1.5v.76a1.33,1.33,0,0,0,1.5,1.5h3q6,0,6,6v.75q0,6-6,6Z"/><path class="cls-1" d="M171.65,61.92q3.27,0,3.27,3.27v6.54q0,3.27-3.27,3.27h-5.14V61.92Zm1.4,3.27a1.24,1.24,0,0,0-1.4-1.4h-3.27v9.34h3.27a1.24,1.24,0,0,0,1.4-1.4Z"/><path class="cls-1" d="M179.13,71.08v.65a1.24,1.24,0,0,0,1.4,1.4h3.74V75h-3.74q-3.27,0-3.27-3.27v-2.8q0-3.27,3.27-3.27h.94q3.27,0,3.27,3.27v2.15Zm0-1.5h3.74v-.65a1.24,1.24,0,0,0-1.4-1.4h-.94a1.24,1.24,0,0,0-1.4,1.4Z"/><path class="cls-1" d="M187.08,75V73.13h4.2a.83.83,0,0,0,.94-.93c0-.69-.31-1-.94-1h-1.4c-1.87,0-2.8-.9-2.8-2.71a2.47,2.47,0,0,1,2.8-2.8h4.21v1.87h-4.21a.82.82,0,0,0-.93.93q0,.84.93.84h1.4c1.87,0,2.81,1,2.81,2.9a2.48,2.48,0,0,1-2.81,2.8Z"/><path class="cls-1" d="M198.3,71.08v.65a1.24,1.24,0,0,0,1.4,1.4h3.74V75H199.7q-3.27,0-3.27-3.27v-2.8q0-3.27,3.27-3.27h.93q3.27,0,3.27,3.27v2.15Zm0-1.5H202v-.65a1.24,1.24,0,0,0-1.41-1.4h-.93a1.24,1.24,0,0,0-1.4,1.4Z"/><path class="cls-1" d="M208.12,75h-1.87V65.66h1.59l.28.93a3.17,3.17,0,0,1,2.33-.93q3.27,0,3.27,3.27V75h-1.87V68.93a1.24,1.24,0,0,0-1.4-1.4,5.06,5.06,0,0,0-2.33.47Z"/><path class="cls-1" d="M220.46,75h-2.24l-2.62-9.34h1.87l1.87,7,1.86-7h1.87Z"/><path class="cls-1" d="M232.42,72.2a2.47,2.47,0,0,1-2.8,2.8h-1.87a2.48,2.48,0,0,1-2.8-2.8V68.46a2.48,2.48,0,0,1,2.8-2.8h1.87a2.47,2.47,0,0,1,2.8,2.8Zm-5.6,0a.82.82,0,0,0,.93.93h1.87a.83.83,0,0,0,.94-.93V68.46c0-.56-.32-.84-.94-.84h-1.87q-.93,0-.93.84Z"/><path class="cls-1" d="M236.64,61.92V75h-1.87V61.92Z"/><path class="cls-1" d="M243.37,75h-2.24l-2.61-9.34h1.86l1.87,7,1.87-7H246Z"/><path class="cls-1" d="M249.74,71.08v.65a1.23,1.23,0,0,0,1.4,1.4h3.73V75h-3.73q-3.27,0-3.27-3.27v-2.8q0-3.27,3.27-3.27h.93q3.27,0,3.27,3.27v2.15Zm0-1.5h3.73v-.65a1.24,1.24,0,0,0-1.4-1.4h-.93a1.24,1.24,0,0,0-1.4,1.4Z"/><path class="cls-1" d="M263.29,61.92h1.87V75h-1.59l-.28-.93A3.17,3.17,0,0,1,261,75q-3.27,0-3.27-3.27v-2.8q0-3.27,3.27-3.27a3.17,3.17,0,0,1,2.34.93Zm0,10.75V68a5.08,5.08,0,0,0-2.34-.47,1.24,1.24,0,0,0-1.4,1.4v2.8a1.24,1.24,0,0,0,1.4,1.4A5.22,5.22,0,0,0,263.29,72.67Z"/><path class="cls-1" d="M275,72.2a2.47,2.47,0,0,1-2.8,2.8H270.3a2.48,2.48,0,0,1-2.8-2.8V68.46a2.48,2.48,0,0,1,2.8-2.8h1.87a2.47,2.47,0,0,1,2.8,2.8Zm-5.6,0a.82.82,0,0,0,.93.93h1.87a.83.83,0,0,0,.94-.93V68.46c0-.56-.31-.84-.94-.84H270.3q-.93,0-.93.84Z"/><path class="cls-1" d="M279.19,75h-1.87V65.66h1.59l.28.93a3.17,3.17,0,0,1,2.33-.93H282v1.87h-.47a5.06,5.06,0,0,0-2.33.47Z"/><path class="cls-1" d="M298.64,75h-2.43l-2.06-10.1-2,10.1h-2.43l-2.52-13.08H289l1.87,10.28,2.33-10.28h1.87l2.33,10.28,1.87-10.28h1.87Z"/><path class="cls-1" d="M304.44,71.08v.65a1.24,1.24,0,0,0,1.4,1.4h3.74V75h-3.74q-3.27,0-3.27-3.27v-2.8q0-3.27,3.27-3.27h.93q3.27,0,3.27,3.27v2.15Zm0-1.5h3.73v-.65a1.24,1.24,0,0,0-1.4-1.4h-.93a1.24,1.24,0,0,0-1.4,1.4Z"/><path class="cls-1" d="M314.26,66.59a3.17,3.17,0,0,1,2.33-.93q3.27,0,3.27,3.27v2.8q0,3.27-3.27,3.27a3.17,3.17,0,0,1-2.33-.93L314,75h-1.59V61.92h1.87Zm2.33,6.54a1.23,1.23,0,0,0,1.4-1.4v-2.8a1.24,1.24,0,0,0-1.4-1.4,5.06,5.06,0,0,0-2.33.47v4.67A5.2,5.2,0,0,0,316.59,73.13Z"/><rect class="cls-3" width="319.86" height="90"/></svg>