<svg id="Camada_1" data-name="Camada 1" xmlns="http://www.w3.org/2000/svg" viewBox="0 0 334.8 90"><defs><style>.cls-1{fill:none;}.cls-2{fill:#48555e;}.cls-3{fill:#1577b7;}</style></defs><title>logo</title><rect class="cls-1" width="334.8" height="90"/><path class="cls-2" d="M58,14.36a4.69,4.69,0,0,0-4.69,4.7v4.69h13v42.5h-13v4.69A4.69,4.69,0,0,0,58,75.64H75.68V14.36ZM36.76,23.75V19.06a4.69,4.69,0,0,0-4.69-4.7H14.4V75.64H32.07a4.69,4.69,0,0,0,4.69-4.7V66.25h-13V23.75Z"/><path class="cls-3" d="M62.71,58v4.7H56.22a2.9,2.9,0,0,1-2.9-2.91V53.28H58A4.69,4.69,0,0,1,62.71,58Z"/><path class="cls-3" d="M36.76,40.31V62.67H30.28a2.9,2.9,0,0,1-2.9-2.91V40.31Z"/><rect class="cls-3" x="40.35" y="40.31" width="9.39" height="22.36"/><path class="cls-3" d="M62.71,30.23V45A4.69,4.69,0,0,1,58,49.69H53.32v-13H27.38V27.33H59.81A2.9,2.9,0,0,1,62.71,30.23Z"/><path class="cls-2" d="M110.47,45.76h.09l4.87-15.08h6.62V52.23h-5V38.35l-.08,0-4.76,13.9h-3.36l-4.66-13.69h-.09V52.23h-5V30.68h6.55Z"/><path class="cls-2" d="M135.2,52.22a5.92,5.92,0,0,1-.48-1.14,8.3,8.3,0,0,1-.31-1.33,6.22,6.22,0,0,1-1.6,2,3.88,3.88,0,0,1-2.5.76,5.54,5.54,0,0,1-3.91-1.29,4.56,4.56,0,0,1-1.4-3.53A4.25,4.25,0,0,1,126.79,44a9.21,9.21,0,0,1,5.43-1.3h2.06V41.6a2.27,2.27,0,0,0-.49-1.57,1.9,1.9,0,0,0-1.49-.54,1.81,1.81,0,0,0-1.3.4,1.71,1.71,0,0,0-.42,1.27l-4.86,0,0-.09a4.16,4.16,0,0,1,1.83-3.66,8.21,8.21,0,0,1,5.1-1.47,7.44,7.44,0,0,1,4.82,1.48,5.11,5.11,0,0,1,1.84,4.23v6A12.56,12.56,0,0,0,139.5,50a12.94,12.94,0,0,0,.64,2.19ZM131.67,49a3.12,3.12,0,0,0,1.63-.43,2.53,2.53,0,0,0,1-1V45.41h-2a2.31,2.31,0,0,0-1.74.57,2.12,2.12,0,0,0-.53,1.47,1.42,1.42,0,0,0,.47,1.1A1.73,1.73,0,0,0,131.67,49Z"/><path class="cls-2" d="M152.43,49.83a5.2,5.2,0,0,1-1.84,2,4.83,4.83,0,0,1-2.61.7,4.74,4.74,0,0,1-3.9-1.74q-1.43-1.75-1.42-5.41V36.21h5v9.21a4.88,4.88,0,0,0,.48,2.58,1.69,1.69,0,0,0,1.49.69,4.09,4.09,0,0,0,1.41-.22,2.77,2.77,0,0,0,1-.66V36.21h5v16h-4Z"/><path class="cls-2" d="M169.43,40.48l-1.63,0a2.76,2.76,0,0,0-1.4.32,1.94,1.94,0,0,0-.82.9V52.23h-5v-16h4.71l.17,2.36a4.87,4.87,0,0,1,1.34-2,2.94,2.94,0,0,1,1.94-.69,3.62,3.62,0,0,1,.6,0,4.71,4.71,0,0,1,.57.14Z"/><path class="cls-2" d="M177.44,52.23h-5v-16h5Zm-1.91-22.56H181l0,.09-4.16,3.85h-4.42Z"/><path class="cls-2" d="M188.28,48.69a2,2,0,0,0,1.53-.55,2.35,2.35,0,0,0,.5-1.61h4.56l0,.09a5.24,5.24,0,0,1-1.81,4.27,7,7,0,0,1-4.81,1.65,7.11,7.11,0,0,1-5.63-2.25,8.62,8.62,0,0,1-2-5.89v-.34a8.65,8.65,0,0,1,2-5.88,7.05,7.05,0,0,1,5.61-2.26,6.88,6.88,0,0,1,4.88,1.69,5.84,5.84,0,0,1,1.77,4.64l0,.09h-4.56a3.08,3.08,0,0,0-.52-1.86,1.78,1.78,0,0,0-1.54-.71,2.05,2.05,0,0,0-2,1.16,7.17,7.17,0,0,0-.57,3.13v.34a7.15,7.15,0,0,0,.57,3.15A2.09,2.09,0,0,0,188.28,48.69Z"/><path class="cls-2" d="M202.94,32.5h-5V29.14h5Zm0,19.73h-5v-16h5Z"/><path class="cls-2" d="M206.1,44.07a8.49,8.49,0,0,1,2-5.88,8.32,8.32,0,0,1,11.42,0,8.49,8.49,0,0,1,2,5.88v.32a8.48,8.48,0,0,1-2,5.89,7.27,7.27,0,0,1-5.69,2.26,7.34,7.34,0,0,1-5.73-2.26,8.48,8.48,0,0,1-2-5.89Zm5,.32a6.63,6.63,0,0,0,.63,3.16,2.25,2.25,0,0,0,2.14,1.14A2.22,2.22,0,0,0,216,47.54a6.62,6.62,0,0,0,.63-3.15v-.32a6.67,6.67,0,0,0-.63-3.13,2.25,2.25,0,0,0-2.14-1.17A2.2,2.2,0,0,0,211.73,41a6.65,6.65,0,0,0-.63,3.12Z"/><path class="cls-2" d="M251.14,52.23h-5l-7.89-13.56-.09,0V52.23h-5V30.68h5l7.89,13.54.09,0V30.68h5Z"/><path class="cls-2" d="M264.69,49.83a5.28,5.28,0,0,1-1.84,2,4.87,4.87,0,0,1-2.62.7,4.77,4.77,0,0,1-3.9-1.74q-1.41-1.75-1.41-5.41V36.21h5v9.21a4.88,4.88,0,0,0,.48,2.58,1.69,1.69,0,0,0,1.49.69,4,4,0,0,0,1.4-.22,2.8,2.8,0,0,0,1-.66V36.21h5v16h-4Z"/><path class="cls-2" d="M277.44,36.21l.19,2.25a5.86,5.86,0,0,1,1.94-1.87,5,5,0,0,1,2.58-.67,4.52,4.52,0,0,1,3.68,1.6c.88,1.06,1.32,2.76,1.32,5.07v9.64h-5V42.58a3.64,3.64,0,0,0-.49-2.17,1.68,1.68,0,0,0-1.42-.64,3.52,3.52,0,0,0-1.44.28,2.81,2.81,0,0,0-1.06.8V52.23h-5v-16Z"/><path class="cls-2" d="M297.74,52.54a7.44,7.44,0,0,1-5.71-2.2A7.87,7.87,0,0,1,290,44.76v-.57a9,9,0,0,1,1.95-6,6.89,6.89,0,0,1,5.63-2.29,6.44,6.44,0,0,1,5,1.94,7.53,7.53,0,0,1,1.79,5.31v2.62h-9.18l0,.09a3.14,3.14,0,0,0,.93,2,3.32,3.32,0,0,0,2.34.77,10,10,0,0,0,2.39-.23A14.81,14.81,0,0,0,303,47.7l1.2,3A9.19,9.19,0,0,1,301.41,52,13,13,0,0,1,297.74,52.54Zm-.19-12.77a2.06,2.06,0,0,0-1.77.76,3.84,3.84,0,0,0-.66,2.06l0,.08h4.32v-.39A3.35,3.35,0,0,0,299,40.4,1.68,1.68,0,0,0,297.55,39.77Z"/><path class="cls-2" d="M315.58,47.73a1.31,1.31,0,0,0-.67-1.06,7.2,7.2,0,0,0-2.45-.83,9.66,9.66,0,0,1-4.22-1.7A3.83,3.83,0,0,1,306.82,41a4.49,4.49,0,0,1,1.78-3.59,7.29,7.29,0,0,1,4.81-1.47,8.2,8.2,0,0,1,5.09,1.43A4.22,4.22,0,0,1,320.31,41l0,.09h-4.86a2,2,0,0,0-.47-1.44,2.14,2.14,0,0,0-1.56-.49,2.09,2.09,0,0,0-1.32.43,1.36,1.36,0,0,0-.53,1.1,1.32,1.32,0,0,0,.62,1.08,6.81,6.81,0,0,0,2.48.8A10,10,0,0,1,319,44.33a4,4,0,0,1,1.4,3.25,4.22,4.22,0,0,1-1.91,3.56,8.37,8.37,0,0,1-5.07,1.4,7.65,7.65,0,0,1-5.18-1.65,4.57,4.57,0,0,1-1.81-3.71l0-.08H311a2,2,0,0,0,.69,1.64,3.06,3.06,0,0,0,1.87.5,2.49,2.49,0,0,0,1.52-.39A1.3,1.3,0,0,0,315.58,47.73Z"/><path class="cls-3" d="M149.59,75.45V62.12H154a5.59,5.59,0,0,1,4.13,1.59,5.52,5.52,0,0,1,1.58,4.07v2a5.5,5.5,0,0,1-1.58,4.07A5.62,5.62,0,0,1,154,75.45Zm2.23-11.54v9.76H154a3.22,3.22,0,0,0,2.55-1.08,4.1,4.1,0,0,0,.94-2.79v-2a4.08,4.08,0,0,0-.94-2.77A3.22,3.22,0,0,0,154,63.91Z"/><path class="cls-3" d="M166.59,75.64a4.31,4.31,0,0,1-3.39-1.37A5.1,5.1,0,0,1,162,70.72v-.36a5.27,5.27,0,0,1,1.23-3.59,4,4,0,0,1,3.15-1.41,3.72,3.72,0,0,1,3,1.23,5,5,0,0,1,1,3.29v1.2h-6.12l0,0a3.27,3.27,0,0,0,.64,2,2.18,2.18,0,0,0,1.82.76,4.88,4.88,0,0,0,1.57-.22,4,4,0,0,0,1.23-.63l.73,1.46a4.82,4.82,0,0,1-1.5.83A6.22,6.22,0,0,1,166.59,75.64Zm-.24-8.49a1.74,1.74,0,0,0-1.39.62,3.08,3.08,0,0,0-.65,1.64l0,0h3.87v-.17a2.45,2.45,0,0,0-.45-1.54A1.61,1.61,0,0,0,166.35,67.15Z"/><path class="cls-3" d="M178.23,72.74a1,1,0,0,0-.44-.85,4.63,4.63,0,0,0-1.64-.6,6.69,6.69,0,0,1-2.67-1.05,2.21,2.21,0,0,1-.93-1.87,2.65,2.65,0,0,1,1.06-2.12,4.15,4.15,0,0,1,2.77-.89,4.36,4.36,0,0,1,2.86.91,2.65,2.65,0,0,1,1,2.19l0,.06h-2.13a1.4,1.4,0,0,0-.48-1,1.82,1.82,0,0,0-1.27-.44,1.84,1.84,0,0,0-1.23.36,1.17,1.17,0,0,0-.42.9,1,1,0,0,0,.39.81,4.48,4.48,0,0,0,1.62.54,6.71,6.71,0,0,1,2.75,1.07,2.26,2.26,0,0,1,.92,1.9,2.61,2.61,0,0,1-1.1,2.18,4.59,4.59,0,0,1-2.9.85,4.42,4.42,0,0,1-3-1,2.77,2.77,0,0,1-1.06-2.27l0,0h2.06a1.5,1.5,0,0,0,.63,1.25,2.49,2.49,0,0,0,1.42.39,2.24,2.24,0,0,0,1.33-.34A1,1,0,0,0,178.23,72.74Z"/><path class="cls-3" d="M187.08,75.64a4.31,4.31,0,0,1-3.39-1.37,5.1,5.1,0,0,1-1.23-3.55v-.36a5.27,5.27,0,0,1,1.23-3.59,4,4,0,0,1,3.15-1.41,3.72,3.72,0,0,1,3,1.23,5,5,0,0,1,1,3.29v1.2h-6.12l0,0a3.27,3.27,0,0,0,.64,2,2.18,2.18,0,0,0,1.82.76,4.88,4.88,0,0,0,1.57-.22A4,4,0,0,0,190,73l.73,1.46a4.82,4.82,0,0,1-1.5.83A6.22,6.22,0,0,1,187.08,75.64Zm-.24-8.49a1.74,1.74,0,0,0-1.39.62,3.08,3.08,0,0,0-.65,1.64l0,0h3.87v-.17a2.45,2.45,0,0,0-.45-1.54A1.61,1.61,0,0,0,186.84,67.15Z"/><path class="cls-3" d="M195.17,65.55l.12,1.42a3.64,3.64,0,0,1,1.23-1.18,3.19,3.19,0,0,1,1.66-.43,3.11,3.11,0,0,1,2.41,1,4.38,4.38,0,0,1,.86,3v6.16h-2.22V69.31a2.38,2.38,0,0,0-.45-1.64,1.77,1.77,0,0,0-1.35-.49,2.67,2.67,0,0,0-1.24.27,2.15,2.15,0,0,0-.83.75v7.25h-2.22v-9.9Z"/><path class="cls-3" d="M207.68,72.1l.16.8h.06l.17-.8,2-6.55h2.29l-3.51,9.9h-1.93l-3.53-9.9h2.29Z"/><path class="cls-3" d="M213.65,70.4a5.36,5.36,0,0,1,1.22-3.62,4.1,4.1,0,0,1,3.31-1.42,4.17,4.17,0,0,1,3.35,1.42,5.4,5.4,0,0,1,1.21,3.62v.2a5.37,5.37,0,0,1-1.21,3.63,4.64,4.64,0,0,1-6.66,0,5.37,5.37,0,0,1-1.22-3.63Zm2.23.2a4.39,4.39,0,0,0,.56,2.36,1.94,1.94,0,0,0,1.76.9,1.92,1.92,0,0,0,1.74-.91,4.26,4.26,0,0,0,.58-2.35v-.2a4.26,4.26,0,0,0-.58-2.33,1.92,1.92,0,0,0-1.76-.92,1.89,1.89,0,0,0-1.73.92,4.35,4.35,0,0,0-.57,2.33Z"/><path class="cls-3" d="M227.52,75.45h-2.23V61.17h2.23Z"/><path class="cls-3" d="M233.91,72.1l.17.8h0l.18-.8,2-6.55h2.3l-3.51,9.9h-1.93l-3.53-9.9h2.29Z"/><path class="cls-3" d="M244.52,75.64a4.33,4.33,0,0,1-3.39-1.37,5.14,5.14,0,0,1-1.22-3.55v-.36a5.31,5.31,0,0,1,1.22-3.59,4,4,0,0,1,3.15-1.41,3.7,3.7,0,0,1,3,1.23,5,5,0,0,1,1,3.29v1.2h-6.12l0,0a3.2,3.2,0,0,0,.64,2,2.17,2.17,0,0,0,1.82.76,4.92,4.92,0,0,0,1.57-.22,4.22,4.22,0,0,0,1.23-.63l.72,1.46a4.82,4.82,0,0,1-1.5.83A6.18,6.18,0,0,1,244.52,75.64Zm-.24-8.49a1.74,1.74,0,0,0-1.39.62,3.16,3.16,0,0,0-.65,1.64l0,0h3.87v-.17a2.51,2.51,0,0,0-.44-1.54A1.64,1.64,0,0,0,244.28,67.15Z"/><path class="cls-3" d="M250.19,70.63a6.51,6.51,0,0,1,1-3.82,3.31,3.31,0,0,1,2.86-1.45,3.09,3.09,0,0,1,2.54,1.26V61.17h2.22V75.45H257l-.26-1.26a3.4,3.4,0,0,1-1.16,1.08,3.27,3.27,0,0,1-1.56.37,3.36,3.36,0,0,1-2.84-1.33,5.53,5.53,0,0,1-1-3.48Zm2.22.2a3.89,3.89,0,0,0,.53,2.18,1.82,1.82,0,0,0,1.67.82,2.15,2.15,0,0,0,1.19-.31,2.22,2.22,0,0,0,.8-.86V68.35a2.38,2.38,0,0,0-.8-.86,2.23,2.23,0,0,0-1.18-.31,1.79,1.79,0,0,0-1.67,1,5,5,0,0,0-.54,2.49Z"/><path class="cls-3" d="M261.27,70.4a5.35,5.35,0,0,1,1.21-3.62,4.61,4.61,0,0,1,6.66,0,5.35,5.35,0,0,1,1.21,3.62v.2a5.32,5.32,0,0,1-1.21,3.63,4.64,4.64,0,0,1-6.66,0,5.36,5.36,0,0,1-1.21-3.63Zm2.22.2a4.39,4.39,0,0,0,.57,2.36,2.14,2.14,0,0,0,3.5,0,4.26,4.26,0,0,0,.58-2.35v-.2a4.26,4.26,0,0,0-.58-2.33,1.94,1.94,0,0,0-1.76-.92,1.89,1.89,0,0,0-1.74.92,4.35,4.35,0,0,0-.57,2.33Z"/><path class="cls-3" d="M277.69,67.55l-.95,0a1.93,1.93,0,0,0-1.08.28,1.71,1.71,0,0,0-.67.78v6.88h-2.23v-9.9h2l.15,1.43a3.2,3.2,0,0,1,1-1.19,2.26,2.26,0,0,1,1.35-.43,1.53,1.53,0,0,1,.38,0l.32.07Z"/><path class="cls-3" d="M295.45,71.73h.05l2-9.61h2.34l-3.16,13.33h-2L292,66h-.05l-2.67,9.48h-2L284,62.12h2.33l2,9.6h0l2.54-9.6h2Z"/><path class="cls-3" d="M305.63,75.64a4.31,4.31,0,0,1-3.39-1.37A5.1,5.1,0,0,1,301,70.72v-.36a5.27,5.27,0,0,1,1.23-3.59,4,4,0,0,1,3.15-1.41,3.72,3.72,0,0,1,3,1.23,5,5,0,0,1,1,3.29v1.2h-6.12l0,0a3.27,3.27,0,0,0,.64,2,2.17,2.17,0,0,0,1.82.76,4.88,4.88,0,0,0,1.57-.22,4.22,4.22,0,0,0,1.23-.63l.73,1.46a4.82,4.82,0,0,1-1.5.83A6.22,6.22,0,0,1,305.63,75.64Zm-.24-8.49a1.72,1.72,0,0,0-1.39.62,3.08,3.08,0,0,0-.65,1.64l0,0h3.87v-.17a2.45,2.45,0,0,0-.45-1.54A1.61,1.61,0,0,0,305.39,67.15Z"/><path class="cls-3" d="M320.39,70.83a5.58,5.58,0,0,1-1,3.49,3.37,3.37,0,0,1-2.85,1.32,3.24,3.24,0,0,1-1.62-.39,3.1,3.1,0,0,1-1.14-1.11l-.27,1.31h-1.8V61.17h2.23v5.5a3,3,0,0,1,2.58-1.31,3.3,3.3,0,0,1,2.87,1.45,6.49,6.49,0,0,1,1,3.82Zm-2.22-.2a5.11,5.11,0,0,0-.53-2.49,1.78,1.78,0,0,0-1.68-1,2.18,2.18,0,0,0-1.24.33,2.22,2.22,0,0,0-.79.92v4.15a2.09,2.09,0,0,0,.78.92,2.28,2.28,0,0,0,1.27.33,1.85,1.85,0,0,0,1.67-.81,4,4,0,0,0,.52-2.19Z"/></svg>