<?xml version="1.0" encoding="utf-8"?>
<!-- Generator: Adobe Illustrator 25.2.0, SVG Export Plug-In . SVG Version: 6.00 Build 0)  -->
<svg version="1.1" id="Camada_1" xmlns="http://www.w3.org/2000/svg" xmlns:xlink="http://www.w3.org/1999/xlink" x="0px" y="0px"
	 viewBox="0 0 160 160" style="enable-background:new 0 0 160 160;" xml:space="preserve">
<style type="text/css">
	.st0{fill:#198CFF;}
	.st1{fill:#198DFF;}
	.st2{fill:#1A90FF;}
	.st3{fill:#1C97FF;}
	.st4{fill:#1A8EFF;}
	.st5{fill:#1C95FF;}
	.st6{fill:#1C96FF;}
	.st7{fill:#20A1FF;}
	.st8{fill:#1D99FF;}
	.st9{fill:#21A4FF;}
	.st10{fill:#23A9FF;}
	.st11{fill:#24AEFF;}
	.st12{fill:#29BDFF;}
	.st13{fill:#27B9FF;}
	.st14{fill:#2AC1FF;}
	.st15{fill:#2FD0FF;}
	.st16{fill:none;}
	.st17{fill:#FFFFFF;}
	.st18{fill:#3D4B66;}
</style>
<rect x="156.3" y="19.2" class="st0" width="3.1" height="3.1"/>
<rect x="98.9" class="st0" width="11.6" height="11.6"/>
<rect x="116" y="21.6" class="st1" width="31.6" height="31.6"/>
<rect x="146" y="44" class="st1" width="14" height="14"/>
<rect x="61.9" y="6.3" class="st2" width="26.1" height="26.1"/>
<rect x="123.1" y="74.8" class="st3" width="28" height="28"/>
<rect x="156.2" y="104" class="st0" width="3.1" height="3.1"/>
<rect x="15.7" y="4.7" class="st0" width="10.2" height="10.2"/>
<rect x="22.5" y="14.2" class="st4" width="32" height="32"/>
<rect x="110.9" y="106.8" class="st5" width="32.7" height="32.7"/>
<rect x="144.6" y="135.8" class="st0" width="12.3" height="12.3"/>
<rect x="0.7" y="32.6" class="st0" width="13.8" height="13.8"/>
<rect x="17.2" y="44.8" class="st6" width="33.7" height="33.7"/>
<rect x="75.9" y="107.4" class="st7" width="34.4" height="34.4"/>
<rect x="105.6" y="137.6" class="st1" width="16.1" height="16.1"/>
<rect y="72.2" class="st0" width="2.8" height="2.8"/>
<rect x="6.1" y="81.1" class="st2" width="27.3" height="27.3"/>
<rect x="29.6" y="103.8" class="st8" width="33.7" height="33.7"/>
<rect x="46.4" y="128.4" class="st5" width="28.7" height="28.7"/>
<rect x="81" y="156" class="st1" width="4" height="4"/>
<rect x="7.2" y="118" class="st0" width="13.8" height="13.8"/>
<rect x="23" y="140.7" class="st0" width="16.1" height="16.1"/>
<rect x="81.7" y="24.3" class="st9" width="35.6" height="35.6"/>
<rect x="96.6" y="52" class="st10" width="35.8" height="35.8"/>
<rect x="42.7" y="39.2" class="st11" width="37.5" height="37.5"/>
<rect x="92.2" y="74.3" class="st12" width="38.2" height="38.2"/>
<rect x="29.7" y="66.3" class="st13" width="38.7" height="38.7"/>
<rect x="60.1" y="91.9" class="st14" width="39.2" height="39.2"/>
<rect x="65.6" y="57.1" class="st15" width="41.8" height="41.8"/>
<path class="st16" d="M64,96.7"/>
<path class="st17" d="M31,129v-8h5v-12h-5V51h5V39h-5v-8h98v8h-5v12h5v58h-5v12h5v8H31z M107.3,121h12.1v-12h-12.1V121z M90.7,121
	h12.1v-12H90.7V121z M74,121h12v-12H74V121z M57.4,121h12v-12H57.3L57.4,121z M40.7,121h12v-12H40.6L40.7,121z M107.4,51h12.1V39
	h-12.1V51z M90.7,51h12.1V39H90.7V51z M74,51h12V39H74V51z M57.3,51h12.1V39H57.3V51z M40.7,51h12.1V39H40.7V51z"/>
<path class="st18" d="M128,32.1v5.8h-5v14.2h5v55.8h-5v14.2h5v5.8H32.2v-5.8h5v-14.2h-5V52.1h5V37.9h-5v-5.8L128,32.1 M106.3,52.1
	h14.2V37.9h-14.2V52.1 M89.6,52.1h14.2V37.9H89.6V52.1 M73,52.1h14.2V37.9H73V52.1 M56.3,52.1h14.2V37.9H56.3V52.1 M39.6,52.1h14.2
	V37.9H39.6V52.1 M106.3,122.1h14.2v-14.2h-14.2V122.1 M89.6,122.1h14.2v-14.2H89.6V122.1 M73,122.1h14.2v-14.2H73V122.1 M56.3,122.1
	h14.2v-14.2H56.3V122.1 M39.6,122.1h14.2v-14.2H39.6V122.1 M130,30H30v10h5v10h-5v60h5v10h-5v10h100v-10h-5v-10h5V50h-5V40h5V30z
	 M108.4,50V40h10v10H108.4z M91.7,50V40h10v10H91.7z M75,50V40h10v10H75z M58.4,50V40h10v10H58.4z M41.7,50V40h10v10H41.7z
	 M108.4,120v-10h10v10H108.4z M91.7,120v-10h10v10H91.7z M75,120v-10h10v10H75z M58.4,120v-10h10v10H58.4z M41.7,120v-10h10v10H41.7
	z"/>
<path class="st18" d="M69.5,95.6l22.4-13.4c1.2-0.7,1.6-2.3,0.9-3.5c-0.2-0.4-0.5-0.7-0.9-0.9L69.5,64.4c-0.8-0.5-1.9-0.2-2.3,0.6
	C67,65.3,67,65.6,67,65.9v28.2c0,0.9,0.8,1.7,1.7,1.7C68.9,95.8,69.2,95.8,69.5,95.6z"/>
</svg>
