<svg xmlns="http://www.w3.org/2000/svg" viewBox="0 0 342.94 340"><defs><style>.cls-1{fill:#80ffdb;}.cls-2{fill:#fff;}.cls-3,.cls-6,.cls-7,.cls-8{fill:none;}.cls-3,.cls-6,.cls-7{stroke:#2b3b4f;stroke-miterlimit:10;}.cls-3{stroke-linecap:round;}.cls-3,.cls-6{stroke-width:4px;}.cls-4{fill:#2b3b4f;}.cls-5{fill:#5390d9;}.cls-7{stroke-width:2px;}</style></defs><g id="Camada_2" data-name="Camada 2"><g id="Camada_1-2" data-name="Camada 1"><path class="cls-1" d="M44.34,152.5C58.1,123.37,62.86,70,93,77.33c30.62,7.48,38.71,51.67,69.07,61.54,50.7,16.48,97.81-61.21,145.47-29.26C368.38,150.4,281.79,208,248,239.87c-22.72,21.43-32.43,53-49.27,79.32-39.13,61.14-93.1-28.95-123.06-59.4-22.49-22.86-103-47.39-64.43-81C22,169.51,37.68,166.61,44.34,152.5Z"/><path class="cls-2" d="M58.18,119.5H271.41a14.24,14.24,0,0,1,14.24,14.24V254.46a0,0,0,0,1,0,0H43.94a0,0,0,0,1,0,0V133.74A14.24,14.24,0,0,1,58.18,119.5Z"/><path class="cls-3" d="M285.65,232v22.33H43.94V133.73A14.1,14.1,0,0,1,58,119.63H271.55a14.1,14.1,0,0,1,14.1,14.1v81.32"/><polyline class="cls-3" points="273.56 174.81 273.56 254.08 56.03 254.08 56.03 233.9"/><path class="cls-3" d="M248.44,131.72h20.09a5,5,0,0,1,5,5V155"/><path class="cls-3" d="M56,217.61V136.75a5,5,0,0,1,5-5H227.9"/><path class="cls-2" d="M34.34,254.33H295.25a5,5,0,0,1,5,5v.18a20,20,0,0,1-20,20H49.34a20,20,0,0,1-20-20v-.18a5,5,0,0,1,5-5Z"/><line class="cls-3" x1="86.24" y1="279.51" x2="327.59" y2="279.51"/><line class="cls-3" x1="2" y1="279.51" x2="61.06" y2="279.51"/><path class="cls-3" d="M61.06,279.51H49.48a20.14,20.14,0,0,1-20.14-20.14h0a5,5,0,0,1,5-5H295.21a5,5,0,0,1,5,5h0a20.14,20.14,0,0,1-20.14,20.14H86.24"/><line class="cls-3" x1="239.26" y1="297.13" x2="283.38" y2="297.13"/><line class="cls-3" x1="46.21" y1="297.13" x2="217.52" y2="297.13"/><path class="cls-4" d="M133.29,254.33h63a0,0,0,0,1,0,0v0a6.74,6.74,0,0,1-6.74,6.74H140a6.74,6.74,0,0,1-6.74-6.74v0a0,0,0,0,1,0,0Z"/><path class="cls-5" d="M206.75,224.17c-10.46,1.11-30.37,2.23-42,2.23s-31.49-1.12-42-2.23a11.93,11.93,0,0,1-11-11.89V170.11a11.93,11.93,0,0,1,11-11.89c10.47-1.11,30.38-2.23,42-2.23s31.5,1.12,42,2.23c6.06.64,11,5.32,11,11.89v42.17C217.78,218.85,212.81,223.53,206.75,224.17Z"/><rect class="cls-2" x="206.19" y="192.9" width="134.75" height="86.61" rx="5"/><rect class="cls-6" x="206.19" y="192.9" width="134.75" height="86.61" rx="5"/><line class="cls-6" x1="206.19" y1="217.59" x2="340.94" y2="217.59"/><line class="cls-7" x1="206.92" y1="205.8" x2="340.94" y2="206.31"/><polyline class="cls-7" points="216.63 192.9 222.32 205.85 216.63 217.59"/><polyline class="cls-7" points="226.47 192.9 232.15 205.85 226.47 217.59"/><polyline class="cls-7" points="236.3 192.9 241.99 205.85 236.3 217.59"/><polyline class="cls-7" points="246.13 192.9 251.82 205.85 246.13 217.59"/><polyline class="cls-7" points="255.97 192.9 261.65 205.85 255.97 217.59"/><polyline class="cls-7" points="265.8 192.9 271.49 205.85 265.8 217.59"/><polyline class="cls-7" points="275.63 192.9 281.32 205.85 275.63 217.59"/><polyline class="cls-7" points="285.47 192.9 291.16 205.85 285.47 217.59"/><polyline class="cls-7" points="295.3 192.9 300.99 205.85 295.3 217.59"/><polyline class="cls-7" points="305.14 192.9 310.82 205.85 305.14 217.59"/><polyline class="cls-7" points="314.97 192.9 320.66 205.85 314.97 217.59"/><polyline class="cls-7" points="324.81 192.9 330.49 205.85 324.81 217.59"/><rect class="cls-6" x="224.39" y="235.19" width="98.34" height="24.92" rx="5"/><line class="cls-6" x1="251.05" y1="235.19" x2="251.05" y2="260.11"/><line class="cls-6" x1="273.56" y1="235.19" x2="273.56" y2="260.11"/><line class="cls-6" x1="296.07" y1="235.19" x2="296.07" y2="260.11"/><path class="cls-4" d="M228.64,68l-.76,12.46a1.11,1.11,0,0,0,.4.84l10.85,8.05a1.24,1.24,0,0,1-.76,2.19l-13.51-.49a1.1,1.1,0,0,0-.83.41l-7.19,10.21a1.24,1.24,0,0,1-2.2-.78l.75-12.46a1.11,1.11,0,0,0-.39-.83l-10.86-8.05a1.24,1.24,0,0,1,.76-2.19l13.51.48a1.09,1.09,0,0,0,.83-.4l7.19-10.21A1.24,1.24,0,0,1,228.64,68Z"/><path class="cls-1" d="M29.47,107.17l-3.34,9.56a.88.88,0,0,0,.12.74l6.7,8.69a1,1,0,0,1-1.08,1.54l-10.45-3.36a.86.86,0,0,0-.73.13l-7.87,6.39a1,1,0,0,1-1.55-1.1l3.34-9.56a.92.92,0,0,0-.12-.74l-6.71-8.69a1,1,0,0,1,1.09-1.54l10.44,3.36a.88.88,0,0,0,.74-.13l7.87-6.38A1,1,0,0,1,29.47,107.17Z"/><path class="cls-2" d="M145.3,175.76v30.87a3,3,0,0,0,4.19,2.68l33.1-15.44a3,3,0,0,0,0-5.35l-33.1-15.43A2.94,2.94,0,0,0,145.3,175.76Z"/><rect class="cls-8" x="0.94" width="340" height="340"/></g></g></svg>