<svg xmlns="http://www.w3.org/2000/svg" viewBox="0 0 341 340"><defs><style>.cls-1{fill:#80ffdb;}.cls-2,.cls-4{fill:#fff;}.cls-3,.cls-5,.cls-6,.cls-9{fill:none;}.cls-3,.cls-4{stroke:#2b3b4f;}.cls-3,.cls-4,.cls-5,.cls-6{stroke-linecap:round;stroke-miterlimit:10;}.cls-3,.cls-4,.cls-6{stroke-width:4px;}.cls-5{stroke:#80ffdb;stroke-width:2px;}.cls-6{stroke:#5390d9;}.cls-7{fill:#5390d9;}.cls-8{fill:#2b3b4f;}</style></defs><g id="Camada_2" data-name="Camada 2"><g id="Camada_1-2" data-name="Camada 1"><path class="cls-1" d="M13.57,185c-33.59,33.82,6.88,73.42,42.55,78.63,44.64,6.52,76.56,36.09,114,58.78,25.12,15.23,79.6,18.56,83.7-22.28,10-62.37,40.61-96.75,76-142.69,23.72-30.78,7.27-70.69-26.22-51-30,22.67-84.32,30.25-124.87,13.27-37-15.48-50.94-55.55-92.91-30.63C53.15,108.47,52.5,145.85,13.57,185Z"/><path class="cls-2" d="M62.73,117.31H279.27a14.24,14.24,0,0,1,14.24,14.24V254.11a0,0,0,0,1,0,0h-245a0,0,0,0,1,0,0V131.55A14.24,14.24,0,0,1,62.73,117.31Z"/><path class="cls-3" d="M293.51,231.35V254h-245V131.73a14.29,14.29,0,0,1,14.3-14.29H239"/><line class="cls-3" x1="293.51" y1="139.26" x2="293.51" y2="214.17"/><path class="cls-3" d="M60.74,148.29V134.8a5.11,5.11,0,0,1,5.11-5.11H203.07"/><polyline class="cls-3" points="281.26 171.65 281.26 253.73 60.74 253.73 60.74 164.81"/><line class="cls-3" x1="216.88" y1="129.69" x2="230.15" y2="129.69"/><circle class="cls-2" cx="293.51" cy="117.82" r="21.44"/><path class="cls-4" d="M327.58,112.16l-7.11-1.06a27.44,27.44,0,0,0-3.13-7.57l4.34-5.87a1.49,1.49,0,0,0-.15-2l-5.91-5.91a1.49,1.49,0,0,0-1.95-.15L307.8,94a27.44,27.44,0,0,0-7.57-3.13l-1.06-7.11a1.5,1.5,0,0,0-1.48-1.27h-8.37a1.5,1.5,0,0,0-1.48,1.27l-1.06,7.11A27.44,27.44,0,0,0,279.21,94l-5.87-4.34a1.49,1.49,0,0,0-1.95.15l-5.91,5.91a1.49,1.49,0,0,0-.15,2l4.34,5.87a27.75,27.75,0,0,0-3.13,7.57l-7.11,1.06a1.5,1.5,0,0,0-1.27,1.48V122a1.5,1.5,0,0,0,1.27,1.48l7.11,1.06a27.75,27.75,0,0,0,3.13,7.57L265.33,138a1.49,1.49,0,0,0,.15,1.95l5.91,5.91a1.49,1.49,0,0,0,1.95.15l5.87-4.34a27.75,27.75,0,0,0,7.57,3.13l1.06,7.11a1.5,1.5,0,0,0,1.48,1.27h8.37a1.5,1.5,0,0,0,1.48-1.27l1.06-7.11a27.75,27.75,0,0,0,7.57-3.13l5.87,4.34a1.49,1.49,0,0,0,1.95-.15l5.91-5.91a1.49,1.49,0,0,0,.15-1.95l-4.34-5.87a27.44,27.44,0,0,0,3.13-7.57l7.11-1.06a1.5,1.5,0,0,0,1.27-1.48v-8.37A1.5,1.5,0,0,0,327.58,112.16Zm-34.07,18.2A12.54,12.54,0,1,1,306,117.82,12.54,12.54,0,0,1,293.51,130.36Z"/><path class="cls-5" d="M250.2,87.36,247.64,87a10,10,0,0,0-1.14-2.74l1.57-2.11a.55.55,0,0,0,0-.71l-2.14-2.13a.53.53,0,0,0-.7-.06l-2.12,1.57a10.09,10.09,0,0,0-2.73-1.13L240,77.1a.55.55,0,0,0-.54-.46h-3a.54.54,0,0,0-.53.46l-.39,2.57a10.09,10.09,0,0,0-2.73,1.13l-2.12-1.57a.54.54,0,0,0-.7.06l-2.14,2.13a.55.55,0,0,0-.05.71l1.57,2.11A9.72,9.72,0,0,0,228.17,87l-2.57.38a.55.55,0,0,0-.46.53v3a.55.55,0,0,0,.46.54l2.57.38a9.72,9.72,0,0,0,1.13,2.74l-1.57,2.11a.55.55,0,0,0,.05.71l2.14,2.13a.53.53,0,0,0,.7,0L232.74,98a10.09,10.09,0,0,0,2.73,1.13l.39,2.56a.54.54,0,0,0,.53.47h3a.55.55,0,0,0,.54-.47l.38-2.56A10.09,10.09,0,0,0,243.06,98l2.12,1.56a.53.53,0,0,0,.7,0L248,97.39a.55.55,0,0,0,0-.71l-1.57-2.11a10,10,0,0,0,1.14-2.74l2.56-.38a.54.54,0,0,0,.46-.54v-3A.54.54,0,0,0,250.2,87.36Zm-12.3,6.57a4.53,4.53,0,1,1,4.53-4.53A4.52,4.52,0,0,1,237.9,93.93Z"/><path class="cls-5" d="M37.16,114.87l-3.7-.55a14.25,14.25,0,0,0-1.63-3.94l2.26-3.06a.78.78,0,0,0-.08-1l-3.08-3.08a.78.78,0,0,0-1-.07l-3.06,2.26a14.38,14.38,0,0,0-3.94-1.63l-.56-3.7a.77.77,0,0,0-.77-.67H17.24a.79.79,0,0,0-.78.67l-.55,3.7A14.25,14.25,0,0,0,12,105.41l-3.06-2.26a.79.79,0,0,0-1,.07L4.81,106.3a.79.79,0,0,0-.07,1L7,110.38a14.25,14.25,0,0,0-1.63,3.94l-3.7.55a.79.79,0,0,0-.67.78V120a.77.77,0,0,0,.67.77l3.7.56A14.38,14.38,0,0,0,7,125.27l-2.26,3.06a.78.78,0,0,0,.07,1l3.08,3.08a.78.78,0,0,0,1,.08L12,130.24a14.25,14.25,0,0,0,3.94,1.63l.55,3.7a.79.79,0,0,0,.78.67h4.35a.78.78,0,0,0,.77-.67l.56-3.7a14.38,14.38,0,0,0,3.94-1.63l3.06,2.26a.76.76,0,0,0,1-.08L34,129.34a.76.76,0,0,0,.08-1l-2.26-3.06a14.38,14.38,0,0,0,1.63-3.94l3.7-.56a.78.78,0,0,0,.67-.77v-4.35A.79.79,0,0,0,37.16,114.87Zm-17.75,9.48a6.53,6.53,0,1,1,6.53-6.53A6.52,6.52,0,0,1,19.41,124.35Z"/><path class="cls-2" d="M38.69,254H303.31a5,5,0,0,1,5,5v.52a20,20,0,0,1-20,20H53.69a20,20,0,0,1-20-20V259a5,5,0,0,1,5-5Z"/><line class="cls-3" x1="91.37" y1="279.51" x2="336.02" y2="279.51"/><line class="cls-3" x1="5.98" y1="279.51" x2="65.85" y2="279.51"/><path class="cls-3" d="M65.85,279.51H54.11a20.42,20.42,0,0,1-20.42-20.42h0a5.11,5.11,0,0,1,5.1-5.11H303.21a5.11,5.11,0,0,1,5.1,5.11h0a20.42,20.42,0,0,1-20.42,20.42H91.37"/><line class="cls-3" x1="246.49" y1="297.37" x2="291.21" y2="297.37"/><line class="cls-3" x1="50.79" y1="297.37" x2="224.45" y2="297.37"/><rect class="cls-1" x="94.21" y="141.55" width="30.63" height="10.21" rx="5"/><line class="cls-6" x1="167.08" y1="146.66" x2="185.45" y2="146.66"/><line class="cls-6" x1="198.24" y1="146.66" x2="216.62" y2="146.66"/><line class="cls-6" x1="229.41" y1="146.66" x2="247.79" y2="146.66"/><rect class="cls-7" x="93.82" y="161.97" width="154.36" height="39.32" rx="5"/><rect class="cls-1" x="93.82" y="211.5" width="40.84" height="30.63" rx="5"/><rect class="cls-1" x="150.58" y="211.5" width="40.84" height="30.63" rx="5"/><rect class="cls-1" x="207.34" y="211.5" width="40.84" height="30.63" rx="5"/><path class="cls-8" d="M139.07,254h63.87a0,0,0,0,1,0,0v.14a6.74,6.74,0,0,1-6.74,6.74H145.81a6.74,6.74,0,0,1-6.74-6.74V254A0,0,0,0,1,139.07,254Z"/><rect class="cls-9" x="1" width="340" height="340"/></g></g></svg>